<?xml version="1.0" encoding="iso-8859-1"?>
<!-- Generator: Adobe Illustrator 17.1.0, SVG Export Plug-In . SVG Version: 6.00 Build 0)  -->
<!DOCTYPE svg PUBLIC "-//W3C//DTD SVG 1.1//EN" "http://www.w3.org/Graphics/SVG/1.1/DTD/svg11.dtd">
<svg version="1.1" id="Capa_1" xmlns="http://www.w3.org/2000/svg" xmlns:xlink="http://www.w3.org/1999/xlink" x="0px" y="0px"
	 viewBox="0 0 511.012 511.012" style="enable-background:new 0 0 511.012 511.012;" xml:space="preserve">
<g>
	<path d="M510.993,430.588c-0.137-8.886-2.228-24.491-5.187-38.534c-4.1-19.454-7.971-27.505-10.934-31.161
		c0.104-0.553,0.153-1.125,0.128-1.711c-0.305-7.042-7.953-173.005-49.863-220.63c-20.797-23.633-116.222-48.907-166.634-56.359
		c0.321-0.835,0.504-1.738,0.504-2.686c0-12.958-10.542-23.5-23.5-23.5s-23.5,10.542-23.5,23.5c0,0.948,0.183,1.851,0.504,2.686
		c-50.413,7.452-145.837,32.726-166.634,56.359c-41.909,47.625-49.558,213.588-49.863,220.63c-0.025,0.587,0.024,1.158,0.128,1.711
		c-2.963,3.655-6.834,11.707-10.934,31.161c-2.96,14.043-5.051,29.648-5.188,38.534c-0.16,3.938,0.677,7.872,2.5,11.489
		c5.831,11.569,19.986,16.243,31.556,10.417c61.308-30.875,139.947-47.878,221.431-47.878s160.124,17.003,221.428,47.876
		c3.309,1.668,6.862,2.514,10.561,2.514c8.937,0,16.983-4.955,20.999-12.929C510.315,438.46,511.152,434.525,510.993,430.588z
		 M27.55,370.714c65.173-34.312,141.863-51.708,227.956-51.708s162.783,17.396,227.956,51.708
		c3.213,3.983,7.467,21.444,10.104,37.584c-67.022-32.703-151.316-50.683-238.06-50.683s-171.038,17.979-238.06,50.683
		C20.083,392.157,24.337,374.697,27.55,370.714z M433.876,148.461c15.642,17.774,28.585,59.723,37.431,121.31
		c5.062,35.246,7.403,67.711,8.276,82.161c-10.871-5.324-22.03-10.21-33.474-14.653c0.168-0.689,0.243-1.412,0.205-2.157
		c-1.122-21.985-3.872-65.234-9.681-107.87c-5.443-39.952-12.325-70.24-20.529-90.448
		C424.696,141.026,430.825,144.994,433.876,148.461z M247.006,79.506c0-4.687,3.813-8.5,8.5-8.5s8.5,3.813,8.5,8.5
		c0,0.318,0.026,0.629,0.065,0.937c-3.269-0.284-6.157-0.437-8.565-0.437s-5.296,0.153-8.565,0.437
		C246.98,80.135,247.006,79.824,247.006,79.506z M248.006,95.369v16.137c0,4.142,3.358,7.5,7.5,7.5s7.5-3.358,7.5-7.5V95.369
		c19.536,1.64,54.164,8.7,87.354,17.985c16.676,4.665,31.683,9.541,44.316,14.323c0.151,0.315,0.317,0.627,0.517,0.926
		c10.578,15.892,19.768,50.705,26.576,100.675c5.392,39.573,8.117,79.744,9.346,102.483
		c-50.979-17.714-107.258-27.003-168.11-27.707V143.506c0-4.142-3.358-7.5-7.5-7.5s-7.5,3.358-7.5,7.5v160.548
		c-60.853,0.704-117.131,9.993-168.111,27.707c1.229-22.739,3.954-62.91,9.346-102.484c6.808-49.97,15.998-84.783,26.576-100.675
		c0.199-0.299,0.365-0.61,0.517-0.926c12.634-4.782,27.641-9.658,44.317-14.323C193.842,104.069,228.47,97.008,248.006,95.369z
		 M77.136,148.461c3.051-3.467,9.179-7.435,17.771-11.655c-8.204,20.208-15.086,50.496-20.529,90.447
		c-5.809,42.635-8.559,85.884-9.681,107.87c-0.038,0.745,0.038,1.468,0.205,2.157c-11.443,4.442-22.603,9.329-33.473,14.653
		c0.873-14.45,3.214-46.916,8.276-82.161C48.552,208.183,61.495,166.235,77.136,148.461z M487.494,440.006
		c-1.332,0-2.612-0.305-3.81-0.91c-63.36-31.908-144.396-49.481-228.178-49.481S90.688,407.188,27.329,439.096
		c-4.185,2.106-9.306,0.415-11.414-3.771c-0.62-1.23-0.921-2.561-0.908-3.899c0-0.063,0.002-0.134,0.003-0.198
		c0.027-0.801,0.166-1.603,0.424-2.386c0.712-2.155,2.222-3.905,4.251-4.928c65.674-33.081,149.423-51.3,235.821-51.3
		s170.147,18.219,235.821,51.3c2.029,1.022,3.539,2.772,4.251,4.928c0.258,0.783,0.397,1.585,0.424,2.387
		c0,0.063,0.003,0.133,0.003,0.195c0.014,1.339-0.288,2.672-0.909,3.904C493.644,438.214,490.731,440.006,487.494,440.006z"/>
	<path d="M380.171,177.201c0.808,3.46,3.891,5.795,7.297,5.795c0.564,0,1.139-0.064,1.712-0.198c4.034-0.942,6.54-4.976,5.597-9.009
		c-1.366-5.85-2.803-11.373-4.27-16.416c-1.157-3.977-5.32-6.262-9.296-5.107c-3.977,1.157-6.264,5.319-5.107,9.296
		C377.497,166.349,378.865,171.61,380.171,177.201z"/>
	<path d="M392.542,200.112c-4.085,0.682-6.845,4.546-6.163,8.632c3.455,20.699,6.46,44.741,8.932,71.457
		c0.36,3.89,3.629,6.81,7.459,6.81c0.231,0,0.465-0.011,0.7-0.032c4.125-0.382,7.159-4.035,6.777-8.159
		c-2.506-27.079-5.559-51.486-9.074-72.544C400.493,202.19,396.634,199.431,392.542,200.112z"/>
</g>
<g>
</g>
<g>
</g>
<g>
</g>
<g>
</g>
<g>
</g>
<g>
</g>
<g>
</g>
<g>
</g>
<g>
</g>
<g>
</g>
<g>
</g>
<g>
</g>
<g>
</g>
<g>
</g>
<g>
</g>
</svg>
