<?xml version="1.0" encoding="iso-8859-1"?>
<!-- Generator: Adobe Illustrator 17.1.0, SVG Export Plug-In . SVG Version: 6.00 Build 0)  -->
<!DOCTYPE svg PUBLIC "-//W3C//DTD SVG 1.1//EN" "http://www.w3.org/Graphics/SVG/1.1/DTD/svg11.dtd">
<svg version="1.1" id="Capa_1" xmlns="http://www.w3.org/2000/svg" xmlns:xlink="http://www.w3.org/1999/xlink" x="0px" y="0px"
	 viewBox="0 0 495 495" style="enable-background:new 0 0 495 495;" xml:space="preserve">
<g>
	<path d="M479.758,356h-0.799c-0.846-94.178-17.679-169.065-50.081-222.655C389.823,68.751,328.799,36,247.5,36
		S105.177,68.751,66.122,133.345C33.72,186.935,16.887,261.822,16.041,356h-0.799C6.837,356,0,362.953,0,371.5v72
		c0,8.547,6.837,15.5,15.242,15.5h464.517c8.404,0,15.242-6.953,15.242-15.5v-72C495,362.953,488.163,356,479.758,356z
		 M416.042,141.106C447.021,192.343,463.127,264.618,463.96,356h-24.996c-0.945-128.733-26.307-220.121-74.475-271.427
		C384.668,98.873,401.964,117.823,416.042,141.106z M63.495,371c0.002,0,0.003,0,0.005,0s0.003,0,0.005,0H64v73.002H47V371H63.495z
		 M330.203,74.841c21.744,14.848,40.013,36.959,54.297,65.721c25.517,51.377,38.782,123.835,39.467,215.438h-32.99
		c-0.078-13.981-0.371-27.673-0.88-40.794c-0.16-4.138-3.622-7.355-7.785-7.204c-4.139,0.16-7.364,3.646-7.204,7.785
		c0.501,12.93,0.79,26.427,0.868,40.213h-32.996c-0.198-55.055-2.578-103.921-7.092-145.314c-0.449-4.118-4.155-7.09-8.269-6.643
		c-4.118,0.449-7.092,4.151-6.643,8.269c4.456,40.861,6.806,89.18,7.003,143.688h-40.986c-0.022-16.752-0.118-33.062-0.286-48.58
		c-0.044-4.114-3.394-7.418-7.498-7.418c-0.027,0-0.055,0-0.083,0c-4.142,0.045-7.463,3.439-7.418,7.581
		c0.168,15.465,0.263,31.719,0.285,48.417h-48.989c0.114-88.256,2.255-159.162,6.367-210.831
		c6.202-77.915,15.555-91.558,18.108-93.866c1.831,1.754,8.105,10.468,13.577,50.168c4.152,30.126,7.167,72.614,8.96,126.282
		c0.138,4.14,3.608,7.393,7.746,7.245c4.14-0.138,7.384-3.606,7.245-7.746c-1.928-57.702-5.269-102.665-9.929-133.641
		c-2.365-15.718-5.025-27.752-8.103-36.673c28.006,18.176,42.49,74.806,49.903,123.681c0.621,4.096,4.443,6.914,8.54,6.291
		c4.095-0.621,6.912-4.444,6.291-8.54c-6.641-43.788-16.303-77.848-28.717-101.235c-2.177-4.1-4.449-7.891-6.813-11.383
		c0.877,0.603,1.748,1.22,2.609,1.859c14.313,10.629,26.866,26.605,37.311,47.486c19.637,39.256,32.184,96.092,37.293,168.927
		c0.29,4.131,3.872,7.245,8.006,6.957c4.132-0.29,7.247-3.874,6.957-8.006c-5.248-74.816-18.315-133.556-38.84-174.588
		c-7.22-14.433-15.376-26.712-24.429-36.851C326.814,72.602,328.524,73.695,330.203,74.841z M167.016,356
		c0.328-92.191,6.73-165.189,19.047-217.041c10.304-43.378,24.371-70.85,41.959-82.105c-1.122,3.277-2.073,6.664-2.908,9.942
		c-4.068,15.975-7.46,39.454-10.08,69.785c-4.546,52.624-6.908,126.422-7.028,219.419H167.016z M119.024,356
		c0.506-91.887,10.351-164.598,29.29-216.189c10.572-28.799,24.037-50.888,40.021-65.654c3.382-3.125,6.907-5.919,10.555-8.415
		C168.251,111.089,152.53,208.175,152.017,356H119.024z M164.797,74.841c1.65-1.126,3.329-2.202,5.026-3.249
		c-14.075,15.805-25.965,36.832-35.589,63.05C114.691,187.876,104.537,262.327,104.025,356H71.033
		c0.684-91.603,13.95-164.061,39.467-215.438C124.784,111.8,143.053,89.688,164.797,74.841z M79,371l17,0v73.002l-17,0V371z
		 M111,371h0.49c0.003,0,0.007,0,0.01,0s0.007,0,0.01,0H128v73.002h-17V371z M143,370.999h16.485c0.005,0,0.01,0.001,0.015,0.001
		s0.01-0.001,0.015-0.001H160v73.002h-17V370.999z M175,370.999h17v73.002h-17V370.999z M207,370.999h8.479
		c0.007,0,0.014,0.001,0.021,0.001s0.014-0.001,0.021-0.001H224v73.002h-17V370.999z M239,370.999h17v73.002h-17V370.999z
		 M271,370.999h8.472c0.009,0,0.018,0.001,0.028,0.001s0.018-0.001,0.028-0.001H288v73.002h-17V370.999z M303,370.999h17v73.002h-17
		V370.999z M335,370.998h0.467c0.011,0,0.022,0.002,0.033,0.002s0.022-0.002,0.033-0.002H352v73.002h-17V370.998z M367,370.998
		h16.462c0.013,0,0.025,0.002,0.038,0.002s0.025-0.002,0.038-0.002H384V444h-17V370.998z M399,370.998l17,0V444l-17,0V370.998z
		 M431,370.998h0.457c0.015,0,0.029,0.002,0.043,0.002s0.029-0.002,0.043-0.002H448V444h-17V370.998z M78.958,141.106
		c14.078-23.284,31.374-42.233,51.554-56.534C82.343,135.879,56.982,227.267,56.036,356H31.04
		C31.873,264.618,47.979,192.343,78.958,141.106z M15,443.5v-72c0-0.337,0.214-0.489,0.242-0.5h8.257c0,0,0.001,0,0.001,0
		s0.001,0,0.001,0H32v73.002H15.253C15.214,443.989,15,443.837,15,443.5z M480,443.5c0,0.337-0.214,0.489-0.242,0.5H463v-73.002
		h8.452c0.016,0,0.031,0.002,0.048,0.002s0.031-0.002,0.048-0.002h8.199c0.039,0.014,0.253,0.165,0.253,0.502V443.5z"/>
	<path d="M278.238,251.997c-4.141,0.095-7.421,3.529-7.326,7.67c0.121,5.264,0.231,10.59,0.332,15.975
		c0.076,4.094,3.418,7.361,7.496,7.361c0.047,0,0.095,0,0.142-0.001c4.142-0.077,7.437-3.496,7.359-7.638
		c-0.1-5.407-0.211-10.755-0.333-16.042C285.813,255.182,282.388,251.895,278.238,251.997z"/>
</g>
<g>
</g>
<g>
</g>
<g>
</g>
<g>
</g>
<g>
</g>
<g>
</g>
<g>
</g>
<g>
</g>
<g>
</g>
<g>
</g>
<g>
</g>
<g>
</g>
<g>
</g>
<g>
</g>
<g>
</g>
</svg>
