<?xml version="1.0" encoding="iso-8859-1"?>
<!-- Generator: Adobe Illustrator 19.1.0, SVG Export Plug-In . SVG Version: 6.00 Build 0)  -->
<svg version="1.1" id="Capa_1" xmlns="http://www.w3.org/2000/svg" xmlns:xlink="http://www.w3.org/1999/xlink" x="0px" y="0px"
	 viewBox="0 0 511.001 511.001" style="enable-background:new 0 0 511.001 511.001;" xml:space="preserve">
<path d="M508.803,2.197c-2.122-2.122-5.304-2.775-8.089-1.66l-96,38.4C401.867,40.076,400,42.834,400,45.9v54.494L116.394,384.001
	H55.5c-4.142,0-7.5,3.358-7.5,7.5s3.358,7.5,7.5,7.5h45.894l-9,9H31.5c-4.142,0-7.5,3.358-7.5,7.5s3.358,7.5,7.5,7.5h45.894l-9,9
	H7.5c-4.142,0-7.5,3.358-7.5,7.5s3.358,7.5,7.5,7.5H64v56.5c0,4.142,3.358,7.5,7.5,7.5s7.5-3.358,7.5-7.5v-60.894l9-9v45.894
	c0,4.142,3.358,7.5,7.5,7.5s7.5-3.358,7.5-7.5v-60.894l9-9v45.894c0,4.142,3.358,7.5,7.5,7.5s7.5-3.358,7.5-7.5v-60.894
	l283.606-283.606H465.1c3.067,0,5.825-1.867,6.963-4.714l38.4-96C511.578,7.501,510.925,4.319,508.803,2.197z M460.023,96.001
	h-34.416l35.197-35.197c2.929-2.929,2.929-7.678,0-10.606c-2.929-2.929-7.678-2.929-10.606,0L415,85.394V50.978l75.037-30.015
	L460.023,96.001z"/>
<g>
</g>
<g>
</g>
<g>
</g>
<g>
</g>
<g>
</g>
<g>
</g>
<g>
</g>
<g>
</g>
<g>
</g>
<g>
</g>
<g>
</g>
<g>
</g>
<g>
</g>
<g>
</g>
<g>
</g>
</svg>
