<?xml version="1.0" encoding="iso-8859-1"?>
<!-- Generator: Adobe Illustrator 17.1.0, SVG Export Plug-In . SVG Version: 6.00 Build 0)  -->
<!DOCTYPE svg PUBLIC "-//W3C//DTD SVG 1.1//EN" "http://www.w3.org/Graphics/SVG/1.1/DTD/svg11.dtd">
<svg version="1.1" id="Capa_1" xmlns="http://www.w3.org/2000/svg" xmlns:xlink="http://www.w3.org/1999/xlink" x="0px" y="0px"
	 viewBox="0 0 511 511" style="enable-background:new 0 0 511 511;" xml:space="preserve">
<g>
	<path d="M392.843,2.237C391.434,0.806,389.509,0,387.5,0h-248C126.542,0,116,10.542,116,23.5v64c0,10.336,6.71,19.128,16,22.266
		v17.166c0,12.688,4.941,24.616,13.913,33.587l0.568,0.568c6.139,6.139,9.519,14.3,9.519,22.981v144.108
		c0,13.899-3.78,27.546-10.931,39.465c-8.55,14.25-13.069,30.565-13.069,47.183V487.5c0,12.958,10.542,23.5,23.5,23.5h56
		c12.958,0,23.5-10.542,23.5-23.5V113.255c8.581,7.938,27.942,25.847,47.326,43.76c12.988,12.003,25.983,24.006,35.746,33.007
		c4.885,4.504,8.962,8.258,11.824,10.884c1.441,1.322,2.576,2.36,3.354,3.068c1.71,1.555,3.333,3.031,6.151,3.031
		c0.236,0,0.481-0.011,0.734-0.032c2.103-0.179,4.033-1.235,5.317-2.91c19.852-25.894,34.222-66.914,42.71-121.919
		c6.257-40.546,6.816-73.162,6.837-74.53C395.03,5.605,394.253,3.668,392.843,2.237z M211.5,496h-56c-4.687,0-8.5-3.813-8.5-8.5
		v-72.676c0-13.899,3.78-27.546,10.931-39.465c8.55-14.25,13.069-30.565,13.069-47.183V184.068c0-12.688-4.941-24.616-13.913-33.587
		l-0.568-0.568c-6.139-6.139-9.519-14.3-9.519-22.981V111h73v376.5C220,492.187,216.187,496,211.5,496z M338.286,188.247
		c-3.186-2.928-7.489-6.894-12.521-11.535c19.304-36.161,28.518-85.171,32.854-120.293c0.508-4.111-2.414-7.855-6.524-8.362
		c-4.11-0.504-7.855,2.414-8.362,6.524c-4.04,32.719-12.393,77.807-29.394,111.585c-24.288-22.425-57.075-52.748-73.745-68.172
		C239.208,96.712,237.389,96,235.5,96h-96c-4.687,0-8.5-3.813-8.5-8.5v-64c0-4.687,3.813-8.5,8.5-8.5h207.838
		c-0.153,2.607-0.326,5.265-0.52,7.958c-0.298,4.131,2.81,7.722,6.942,8.019c0.184,0.013,0.365,0.02,0.546,0.02
		c3.896,0,7.188-3.014,7.473-6.962c0.221-3.064,0.414-6.08,0.582-9.036h17.376C378.518,42.394,371.928,136.962,338.286,188.247z"/>
	<path d="M227.5,24c-4.142,0-7.5,3.358-7.5,7.5v48c0,4.142,3.358,7.5,7.5,7.5s7.5-3.358,7.5-7.5v-48C235,27.358,231.642,24,227.5,24
		z"/>
</g>
<g>
</g>
<g>
</g>
<g>
</g>
<g>
</g>
<g>
</g>
<g>
</g>
<g>
</g>
<g>
</g>
<g>
</g>
<g>
</g>
<g>
</g>
<g>
</g>
<g>
</g>
<g>
</g>
<g>
</g>
</svg>
