<?xml version="1.0" encoding="iso-8859-1"?>
<!-- Generator: Adobe Illustrator 17.1.0, SVG Export Plug-In . SVG Version: 6.00 Build 0)  -->
<!DOCTYPE svg PUBLIC "-//W3C//DTD SVG 1.1//EN" "http://www.w3.org/Graphics/SVG/1.1/DTD/svg11.dtd">
<svg version="1.1" id="Capa_1" xmlns="http://www.w3.org/2000/svg" xmlns:xlink="http://www.w3.org/1999/xlink" x="0px" y="0px"
	 viewBox="0 0 511 511" style="enable-background:new 0 0 511 511;" xml:space="preserve">
<g>
	<path d="M447,264.723V151.5c0-0.335-0.03-0.662-0.072-0.985C456.856,140.483,463,126.698,463,111.501V39.533
		C463,17.734,445.266,0,423.467,0H87.533C65.734,0,48,17.734,48,39.533v71.969c0,15.196,6.144,28.981,16.072,39.014
		C64.03,150.838,64,151.165,64,151.5v113.223c-18.205,3.515-32,19.561-32,38.777v136.012C32,452.463,42.537,463,55.488,463h9.032
		c3.675,27.067,26.921,48,54.979,48h272c28.058,0,51.305-20.933,54.979-48h9.033C468.463,463,479,452.463,479,439.512V303.5
		C479,284.284,465.205,268.238,447,264.723z M464,303.5V320h-17v-39.821C456.851,283.354,464,292.606,464,303.5z M64,280.179V320H47
		v-16.5C47,292.606,54.149,283.354,64,280.179z M47,439.512V335h17v113h-8.512C50.808,448,47,444.192,47,439.512z M391.5,496h-272
		C97.168,496,79,477.832,79,455.5V161.283c7.394,3.654,15.708,5.717,24.499,5.717H112v24.5c0,12.958,10.542,23.5,23.5,23.5h16
		c12.958,0,23.5-10.542,23.5-23.5V167h136.498c4.142,0,7.5-3.358,7.5-7.5s-3.358-7.5-7.5-7.5H175v-24.5
		c0-12.958-10.542-23.5-23.5-23.5h-16c-12.958,0-23.5,10.542-23.5,23.5V152h-8.501C81.167,152,63,133.833,63,111.501V39.533
		C63,26.005,74.005,15,87.533,15h335.935C436.995,15,448,26.005,448,39.533v71.969C448,133.833,429.833,152,407.501,152H399v-24.5
		c0-12.958-10.542-23.5-23.5-23.5h-16c-12.958,0-23.5,10.542-23.5,23.5v64c0,12.958,10.542,23.5,23.5,23.5h16
		c12.958,0,23.5-10.542,23.5-23.5V167h8.501c8.79,0,17.104-2.063,24.499-5.717V455.5C432,477.832,413.832,496,391.5,496z
		 M160,159.423c0,0.026-0.004,0.051-0.004,0.077s0.004,0.051,0.004,0.077V191.5c0,4.687-3.813,8.5-8.5,8.5h-16
		c-4.687,0-8.5-3.813-8.5-8.5v-31.932c0-0.023,0.003-0.045,0.003-0.068S127,159.455,127,159.432V127.5c0-4.687,3.813-8.5,8.5-8.5h16
		c4.687,0,8.5,3.813,8.5,8.5V159.423z M384,191.5c0,4.687-3.813,8.5-8.5,8.5h-16c-4.687,0-8.5-3.813-8.5-8.5v-64
		c0-4.687,3.813-8.5,8.5-8.5h16c4.687,0,8.5,3.813,8.5,8.5V191.5z M455.512,448H447V335h17v104.512
		C464,444.192,460.192,448,455.512,448z"/>
	<path d="M359.5,264h-208c-21.78,0-39.5,17.72-39.5,39.5v120c0,21.78,17.72,39.5,39.5,39.5h208c21.78,0,39.5-17.72,39.5-39.5v-120
		C399,281.72,381.28,264,359.5,264z M359.5,448h-208c-13.509,0-24.5-10.991-24.5-24.5V335h160.5c4.142,0,7.5-3.358,7.5-7.5
		s-3.358-7.5-7.5-7.5H127v-16.5c0-13.509,10.991-24.5,24.5-24.5h208c13.509,0,24.5,10.991,24.5,24.5V320h-16.5
		c-4.142,0-7.5,3.358-7.5,7.5s3.358,7.5,7.5,7.5H384v88.5C384,437.009,373.009,448,359.5,448z"/>
	<path d="M335.5,320h-16c-4.142,0-7.5,3.358-7.5,7.5s3.358,7.5,7.5,7.5h16c4.142,0,7.5-3.358,7.5-7.5S339.642,320,335.5,320z"/>
	<path d="M143.5,144c-4.142,0-7.5,3.358-7.5,7.5v16c0,4.142,3.358,7.5,7.5,7.5s7.5-3.358,7.5-7.5v-16
		C151,147.358,147.642,144,143.5,144z"/>
	<path d="M367.5,144c-4.142,0-7.5,3.358-7.5,7.5v16c0,4.142,3.358,7.5,7.5,7.5s7.5-3.358,7.5-7.5v-16
		C375,147.358,371.642,144,367.5,144z"/>
</g>
<g>
</g>
<g>
</g>
<g>
</g>
<g>
</g>
<g>
</g>
<g>
</g>
<g>
</g>
<g>
</g>
<g>
</g>
<g>
</g>
<g>
</g>
<g>
</g>
<g>
</g>
<g>
</g>
<g>
</g>
</svg>
