<?xml version="1.0" encoding="iso-8859-1"?>
<!-- Generator: Adobe Illustrator 17.1.0, SVG Export Plug-In . SVG Version: 6.00 Build 0)  -->
<!DOCTYPE svg PUBLIC "-//W3C//DTD SVG 1.1//EN" "http://www.w3.org/Graphics/SVG/1.1/DTD/svg11.dtd">
<svg version="1.1" id="Capa_1" xmlns="http://www.w3.org/2000/svg" xmlns:xlink="http://www.w3.org/1999/xlink" x="0px" y="0px"
	 viewBox="0 0 511 511" style="enable-background:new 0 0 511 511;" xml:space="preserve">
<path d="M511,395.371v-31.871c0-4.142-3.358-7.5-7.5-7.5s-7.5,3.358-7.5,7.5v21.705c-50.419-17.533-103.115-56.223-149.446-109.94
	C302.859,224.603,270.9,166.255,263,122.789v-23.29c0-4.142-3.358-7.5-7.5-7.5c-4.142,0-7.5,3.358-7.5,7.5v23.29
	c-7.899,43.466-39.859,101.814-83.554,152.475C118.115,328.981,65.419,367.672,15,385.204v-21.705c0-4.142-3.358-7.5-7.5-7.5
	s-7.5,3.358-7.5,7.5v31.871c0,0.019,0,0.037,0,0.056v16.073c0,4.142,3.358,7.5,7.5,7.5s7.5-3.358,7.5-7.5v-10.472
	c24.132-7.798,48.751-20.21,73-36.608v39.58h-8.5c-4.142,0-7.5,3.358-7.5,7.5s3.358,7.5,7.5,7.5h95.97
	c0.008,0,0.016,0.001,0.023,0.001c0.008,0,0.015-0.001,0.022-0.001h159.969c0.007,0,0.015,0.001,0.022,0.001
	c0.008,0,0.016-0.001,0.023-0.001h95.97c4.142,0,7.5-3.358,7.5-7.5s-3.358-7.5-7.5-7.5H423v-39.58
	c24.249,16.398,48.868,28.81,73,36.608v10.472c0,4.142,3.358,7.5,7.5,7.5s7.5-3.358,7.5-7.5v-16.073
	C511,395.408,511,395.389,511,395.371z M248,237.727v166.273h-59.922c30.215-57.609,48.65-119.404,58.963-162.245
	C247.368,240.399,247.686,239.059,248,237.727z M263,237.727c0.314,1.333,0.632,2.673,0.958,4.028
	c17.842,74.114,40.932,127.799,58.971,162.245H263V237.727z M102.816,353.865c25.265-18.907,49.928-42.066,72.988-68.803
	c29.018-33.644,52.64-69.761,68.262-103.547c-7.694,45.276-27.996,139.97-73.004,222.485H103v-48.5
	C103,354.937,102.933,354.391,102.816,353.865z M408,355.499v48.5h-68.062c-44.968-82.447-65.288-177.166-72.995-222.466
	c15.622,33.781,39.24,69.89,68.253,103.528c23.06,26.737,47.724,49.896,72.988,68.803C408.067,354.391,408,354.937,408,355.499z"/>
<g>
</g>
<g>
</g>
<g>
</g>
<g>
</g>
<g>
</g>
<g>
</g>
<g>
</g>
<g>
</g>
<g>
</g>
<g>
</g>
<g>
</g>
<g>
</g>
<g>
</g>
<g>
</g>
<g>
</g>
</svg>
