<?xml version="1.0" encoding="iso-8859-1"?>
<!-- Generator: Adobe Illustrator 17.1.0, SVG Export Plug-In . SVG Version: 6.00 Build 0)  -->
<!DOCTYPE svg PUBLIC "-//W3C//DTD SVG 1.1//EN" "http://www.w3.org/Graphics/SVG/1.1/DTD/svg11.dtd">
<svg version="1.1" id="Capa_1" xmlns="http://www.w3.org/2000/svg" xmlns:xlink="http://www.w3.org/1999/xlink" x="0px" y="0px"
	 viewBox="0 0 511.042 511.042" style="enable-background:new 0 0 511.042 511.042;" xml:space="preserve">
<g>
	<path d="M511.021,291.52c0-0.697,0.005-1.383,0.011-2.056c0.049-6.266,0.099-12.745-4.461-17.342
		c-2.701-2.722-6.418-4.102-11.049-4.102h-99.2l-32.963-89h59.163c4.687,0,8.5-3.813,8.5-8.5v-31c0-12.958-10.542-23.5-23.5-23.5
		h-304c-12.958,0-23.5,10.542-23.5,23.5v31c0,4.687,3.813,8.5,8.5,8.5h59.163l-32.963,89h-99.2c-4.631,0-8.348,1.38-11.049,4.102
		c-4.561,4.597-4.51,11.076-4.461,17.342c0.005,0.673,0.011,1.359,0.011,2.056s-0.005,1.383-0.011,2.056
		c-0.049,6.266-0.099,12.745,4.461,17.342c2.701,2.722,6.418,4.102,11.049,4.102h81.793l-23.83,64.34
		c-0.081,0.219-0.147,0.439-0.207,0.66H55.521c-4.142,0-7.5,3.358-7.5,7.5s3.358,7.5,7.5,7.5h57.016c0.015,0,0.03,0.002,0.044,0.002
		c0.009,0,0.017-0.002,0.026-0.002h22.914c4.142,0,7.5-3.358,7.5-7.5s-3.358-7.5-7.5-7.5h-12.163l24.074-65H363.61l24.074,65
		h-12.163c-4.142,0-7.5,3.358-7.5,7.5s3.358,7.5,7.5,7.5h22.914c0.009,0,0.017,0.002,0.026,0.002c0.015,0,0.03-0.002,0.044-0.002
		h57.016c4.142,0,7.5-3.358,7.5-7.5s-3.358-7.5-7.5-7.5h-17.756c-0.06-0.221-0.126-0.441-0.207-0.66l-23.83-64.34h81.792
		c4.631,0,8.348-1.38,11.049-4.102c4.561-4.597,4.51-11.076,4.461-17.342C511.026,292.903,511.021,292.217,511.021,291.52z
		 M380.325,268.02h-18.126l-32.963-89h18.126L380.325,268.02z M197.765,179.02h115.512c0.06,0.221,0.126,0.441,0.207,0.66
		l32.719,88.34H164.839l32.719-88.34C197.639,179.461,197.705,179.241,197.765,179.02z M95.021,139.52c0-4.687,3.813-8.5,8.5-8.5
		h304c4.687,0,8.5,3.813,8.5,8.5v0.5h-8.5c-4.142,0-7.5,3.358-7.5,7.5s3.358,7.5,7.5,7.5h8.5v9h-321V139.52z M163.68,179.02h18.126
		l-32.963,89h-18.126L163.68,179.02z M107.362,380.02H89.235l24.074-65h18.126L107.362,380.02z M421.806,380.02H403.68l-24.074-65
		h18.127L421.806,380.02z M496.032,293.693c0.016,1.995,0.038,4.834-0.214,6.322c-0.09,0.003-0.188,0.005-0.297,0.005h-480
		c-0.109,0-0.208-0.002-0.297-0.005c-0.251-1.488-0.229-4.327-0.214-6.322c0.006-0.711,0.011-1.436,0.011-2.173
		s-0.005-1.462-0.011-2.173c-0.016-1.995-0.038-4.834,0.214-6.322c0.09-0.003,0.188-0.005,0.297-0.005h104.217
		c0.067,0.002,0.134,0.009,0.2,0.009c0.039,0,0.076-0.008,0.115-0.009h33.976c0.011,0,0.022,0.001,0.033,0.001
		c0.006,0,0.013-0.001,0.019-0.001H356.96c0.007,0,0.013,0.001,0.019,0.001c0.011,0,0.022-0.001,0.033-0.001h138.508
		c0.109,0,0.208,0.002,0.297,0.005c0.251,1.488,0.229,4.327,0.214,6.322c-0.006,0.711-0.011,1.436-0.011,2.173
		S496.026,292.982,496.032,293.693z"/>
	<path d="M375.521,140.02h-8c-4.142,0-7.5,3.358-7.5,7.5s3.358,7.5,7.5,7.5h8c4.142,0,7.5-3.358,7.5-7.5
		S379.663,140.02,375.521,140.02z"/>
	<path d="M335.521,140.02h-72c-4.142,0-7.5,3.358-7.5,7.5s3.358,7.5,7.5,7.5h72c4.142,0,7.5-3.358,7.5-7.5
		S339.663,140.02,335.521,140.02z"/>
</g>
<g>
</g>
<g>
</g>
<g>
</g>
<g>
</g>
<g>
</g>
<g>
</g>
<g>
</g>
<g>
</g>
<g>
</g>
<g>
</g>
<g>
</g>
<g>
</g>
<g>
</g>
<g>
</g>
<g>
</g>
</svg>
