<?xml version="1.0" encoding="iso-8859-1"?>
<!-- Generator: Adobe Illustrator 17.1.0, SVG Export Plug-In . SVG Version: 6.00 Build 0)  -->
<!DOCTYPE svg PUBLIC "-//W3C//DTD SVG 1.1//EN" "http://www.w3.org/Graphics/SVG/1.1/DTD/svg11.dtd">
<svg version="1.1" id="Capa_1" xmlns="http://www.w3.org/2000/svg" xmlns:xlink="http://www.w3.org/1999/xlink" x="0px" y="0px"
	 viewBox="0 0 511 511" style="enable-background:new 0 0 511 511;" xml:space="preserve">
<g>
	<path d="M367,423.5v-176c0-29.34-8.858-56.647-24.03-79.4c0.035-0.438,0.038-0.884-0.006-1.336l-15.01-152.082
		c-0.006-0.064-0.014-0.129-0.022-0.193C326.899,6.229,319.844,0,311.48,0c-8.324,0-15.38,6.229-16.412,14.488
		c-0.008,0.064-0.016,0.129-0.022,0.193l-10.178,103.122C266.252,108.958,245.445,104,223.5,104
		c-71.123,0-130.317,52.015-141.565,120H79.5C66.542,224,56,234.542,56,247.5v80c0,12.958,10.542,23.5,23.5,23.5H80v72.5
		c0,48.248,39.252,87.5,87.5,87.5h112C327.748,511,367,471.748,367,423.5z M309.96,16.292c0.121-0.741,0.765-1.292,1.559-1.292
		c0.756,0,1.399,0.552,1.52,1.292l12.914,130.841c-8.021-8.186-17.011-15.417-26.784-21.507L309.96,16.292z M79.5,336
		c-4.687,0-8.5-3.813-8.5-8.5v-80c0-4.687,3.813-8.5,8.5-8.5h0.759c-0.165,2.813-0.259,5.646-0.259,8.5V336H79.5z M279.5,496h-112
		c-39.977,0-72.5-32.523-72.5-72.5v-176C95,176.645,152.645,119,223.5,119S352,176.645,352,247.5v176
		C352,463.477,319.477,496,279.5,496z"/>
	<path d="M303.5,216h-160c-12.958,0-23.5,10.542-23.5,23.5v40c0,12.958,10.542,23.5,23.5,23.5h160c12.958,0,23.5-10.542,23.5-23.5
		v-40C327,226.542,316.458,216,303.5,216z M312,279.5c0,4.687-3.813,8.5-8.5,8.5h-160c-4.687,0-8.5-3.813-8.5-8.5v-40
		c0-4.687,3.813-8.5,8.5-8.5h160c4.687,0,8.5,3.813,8.5,8.5V279.5z"/>
	<path d="M247,343.5c0-12.958-10.542-23.5-23.5-23.5S200,330.542,200,343.5s10.542,23.5,23.5,23.5S247,356.458,247,343.5z
		 M223.5,352c-4.687,0-8.5-3.813-8.5-8.5s3.813-8.5,8.5-8.5s8.5,3.813,8.5,8.5S228.187,352,223.5,352z"/>
	<path d="M200,415.5c0,12.958,10.542,23.5,23.5,23.5s23.5-10.542,23.5-23.5S236.458,392,223.5,392S200,402.542,200,415.5z
		 M223.5,407c4.687,0,8.5,3.813,8.5,8.5s-3.813,8.5-8.5,8.5s-8.5-3.813-8.5-8.5S218.813,407,223.5,407z"/>
	<path d="M259.5,356c-12.958,0-23.5,10.542-23.5,23.5s10.542,23.5,23.5,23.5s23.5-10.542,23.5-23.5S272.458,356,259.5,356z
		 M259.5,388c-4.687,0-8.5-3.813-8.5-8.5s3.813-8.5,8.5-8.5s8.5,3.813,8.5,8.5S264.187,388,259.5,388z"/>
	<path d="M211,379.5c0-12.958-10.542-23.5-23.5-23.5S164,366.542,164,379.5s10.542,23.5,23.5,23.5S211,392.458,211,379.5z
		 M187.5,388c-4.687,0-8.5-3.813-8.5-8.5s3.813-8.5,8.5-8.5s8.5,3.813,8.5,8.5S192.187,388,187.5,388z"/>
	<path d="M223.5,456c-4.142,0-7.5,3.358-7.5,7.5v16c0,4.142,3.358,7.5,7.5,7.5s7.5-3.358,7.5-7.5v-16
		C231,459.358,227.642,456,223.5,456z"/>
	<path d="M199.5,456c-4.142,0-7.5,3.358-7.5,7.5v16c0,4.142,3.358,7.5,7.5,7.5s7.5-3.358,7.5-7.5v-16
		C207,459.358,203.642,456,199.5,456z"/>
	<path d="M247.5,456c-4.142,0-7.5,3.358-7.5,7.5v16c0,4.142,3.358,7.5,7.5,7.5s7.5-3.358,7.5-7.5v-16
		C255,459.358,251.642,456,247.5,456z"/>
	<path d="M223.5,207c4.142,0,7.5-3.358,7.5-7.5v-16c0-4.142-3.358-7.5-7.5-7.5s-7.5,3.358-7.5,7.5v16
		C216,203.642,219.358,207,223.5,207z"/>
	<path d="M199.5,207c4.142,0,7.5-3.358,7.5-7.5v-16c0-4.142-3.358-7.5-7.5-7.5s-7.5,3.358-7.5,7.5v16
		C192,203.642,195.358,207,199.5,207z"/>
	<path d="M247.5,207c4.142,0,7.5-3.358,7.5-7.5v-16c0-4.142-3.358-7.5-7.5-7.5s-7.5,3.358-7.5,7.5v16
		C240,203.642,243.358,207,247.5,207z"/>
	<path d="M430.976,167.992c0.026-0.404,0.029-0.813-0.012-1.229l-15.01-152.082c-0.006-0.064-0.014-0.129-0.022-0.193
		C414.899,6.229,407.844,0,399.48,0c-8.324,0-15.38,6.229-16.412,14.488c-0.008,0.064-0.016,0.129-0.022,0.193l-10.178,103.123
		c-6.204-2.954-12.607-5.481-19.173-7.499c-3.959-1.215-8.155,1.008-9.372,4.967c-1.216,3.959,1.007,8.156,4.967,9.372
		c25.713,7.899,48.817,24.166,65.055,45.802C431.129,192.811,440,219.455,440,247.5v176c0,39.977-32.523,72.5-72.5,72.5h-24.001
		c-4.142,0-7.5,3.358-7.5,7.5s3.358,7.5,7.5,7.5H367.5c48.248,0,87.5-39.252,87.5-87.5v-176
		C455,218.875,446.716,191.555,430.976,167.992z M387.169,125.636L397.96,16.292c0.121-0.741,0.765-1.292,1.559-1.292
		c0.756,0,1.399,0.552,1.52,1.292l12.909,130.792C405.901,138.901,396.89,131.694,387.169,125.636z"/>
	<path d="M391.5,288h-8c-4.142,0-7.5,3.358-7.5,7.5s3.358,7.5,7.5,7.5h8c12.958,0,23.5-10.542,23.5-23.5v-40
		c0-12.958-10.542-23.5-23.5-23.5h-8c-4.142,0-7.5,3.358-7.5,7.5s3.358,7.5,7.5,7.5h8c4.687,0,8.5,3.813,8.5,8.5v40
		C400,284.187,396.187,288,391.5,288z"/>
</g>
<g>
</g>
<g>
</g>
<g>
</g>
<g>
</g>
<g>
</g>
<g>
</g>
<g>
</g>
<g>
</g>
<g>
</g>
<g>
</g>
<g>
</g>
<g>
</g>
<g>
</g>
<g>
</g>
<g>
</g>
</svg>
