<?xml version="1.0" encoding="iso-8859-1"?>
<!-- Generator: Adobe Illustrator 17.1.0, SVG Export Plug-In . SVG Version: 6.00 Build 0)  -->
<!DOCTYPE svg PUBLIC "-//W3C//DTD SVG 1.1//EN" "http://www.w3.org/Graphics/SVG/1.1/DTD/svg11.dtd">
<svg version="1.1" id="Capa_1" xmlns="http://www.w3.org/2000/svg" xmlns:xlink="http://www.w3.org/1999/xlink" x="0px" y="0px"
	 viewBox="0 0 511.001 511.001" style="enable-background:new 0 0 511.001 511.001;" xml:space="preserve">
<g>
	<path d="M338.633,189.395c-3.763-1.729-8.217-0.081-9.947,3.683c-9.872,21.479-28.543,37.478-51.227,43.894
		c-3.985,1.127-6.303,5.272-5.175,9.258c0.935,3.304,3.941,5.461,7.213,5.461c0.676,0,1.363-0.092,2.045-0.285
		c26.914-7.613,49.065-26.589,60.773-52.063C344.046,195.578,342.397,191.124,338.633,189.395z"/>
	<path d="M495.5,496H487V7.5c0-4.142-3.358-7.5-7.5-7.5S472,3.358,472,7.5V72H327.252c-19.995-15.061-44.848-24-71.751-24
		s-51.756,8.939-71.751,24H39V7.5C39,3.358,35.643,0,31.5,0S24,3.358,24,7.5V496h-8.5c-4.142,0-7.5,3.358-7.5,7.5s3.358,7.5,7.5,7.5
		h32c4.142,0,7.5-3.358,7.5-7.5s-3.358-7.5-7.5-7.5H39V87h128.26c-17.829,19.526-29.273,44.97-31.018,73H127.5
		c-4.142,0-7.5,3.358-7.5,7.5s3.358,7.5,7.5,7.5h1.584c3.588,29.563,17.338,56.833,39.187,77.408
		C191.961,274.715,222.94,287,255.5,287s63.539-12.285,87.229-34.592c21.849-20.574,35.599-47.845,39.187-77.408h1.584
		c4.142,0,7.5-3.358,7.5-7.5s-3.358-7.5-7.5-7.5h-8.742c-1.745-28.03-13.189-53.474-31.018-73H472v409h-8.5
		c-4.142,0-7.5,3.358-7.5,7.5s3.358,7.5,7.5,7.5h32c4.142,0,7.5-3.358,7.5-7.5S499.643,496,495.5,496z M255.5,63
		c15.089,0,29.439,3.22,42.406,9h-84.811C226.062,66.22,240.411,63,255.5,63z M255.5,272c-56.276,0-103.692-41.998-111.295-97
		h222.59C359.192,230.002,311.777,272,255.5,272z M359.729,160H151.272c2.089-29.308,16.313-55.312,37.668-73h133.121
		C343.416,104.688,357.64,130.692,359.729,160z"/>
	<path d="M366.913,470.36c-0.63-4.094-4.45-6.9-8.553-6.272L255.5,479.912l-102.859-15.824c-4.095-0.627-7.923,2.178-8.553,6.272
		c-0.63,4.094,2.178,7.923,6.272,8.553l55.817,8.587l-55.817,8.587c-4.094,0.63-6.902,4.459-6.272,8.553
		c0.57,3.708,3.765,6.361,7.403,6.361c0.379,0,0.763-0.029,1.15-0.088L255.5,495.088l102.859,15.824
		c0.387,0.059,0.771,0.088,1.15,0.088c3.639,0,6.833-2.653,7.403-6.361c0.63-4.094-2.178-7.923-6.272-8.553l-55.817-8.587
		l55.817-8.587C364.735,478.283,367.543,474.454,366.913,470.36z"/>
	<path d="M248,423.5v16c0,4.142,3.358,7.5,7.5,7.5s7.5-3.358,7.5-7.5v-16c0-4.142-3.358-7.5-7.5-7.5S248,419.358,248,423.5z"/>
	<path d="M258.908,328.819c-2.784-1.42-6.159-0.964-8.467,1.145C221.282,356.609,208,397.129,208,423.5
		c0,26.192,21.309,47.5,47.5,47.5s47.5-21.308,47.5-47.5c0-34.348-25.092-60.184-26.16-61.267c-1.403-1.423-3.316-2.227-5.314-2.233
		c-1.986-0.006-3.916,0.784-5.329,2.197l-0.598,0.597c-4.121-12.325-2.665-26.285-2.647-26.449
		C263.305,333.238,261.693,330.239,258.908,328.819z M262.802,382.968c2.221,0.206,4.423-0.586,6.001-2.165l2.236-2.236
		c6.438,8.426,16.96,25.215,16.96,44.933c0,17.921-14.58,32.5-32.5,32.5S223,441.421,223,423.5c0-16.191,7.003-45.389,25.43-69.243
		c1.067,8.208,3.528,17.636,8.875,25.471C258.564,381.572,260.579,382.76,262.802,382.968z"/>
</g>
<g>
</g>
<g>
</g>
<g>
</g>
<g>
</g>
<g>
</g>
<g>
</g>
<g>
</g>
<g>
</g>
<g>
</g>
<g>
</g>
<g>
</g>
<g>
</g>
<g>
</g>
<g>
</g>
<g>
</g>
</svg>
