<?xml version="1.0" encoding="iso-8859-1"?>
<!-- Generator: Adobe Illustrator 17.1.0, SVG Export Plug-In . SVG Version: 6.00 Build 0)  -->
<!DOCTYPE svg PUBLIC "-//W3C//DTD SVG 1.1//EN" "http://www.w3.org/Graphics/SVG/1.1/DTD/svg11.dtd">
<svg version="1.1" id="Capa_1" xmlns="http://www.w3.org/2000/svg" xmlns:xlink="http://www.w3.org/1999/xlink" x="0px" y="0px"
	 viewBox="0 0 511 511" style="enable-background:new 0 0 511 511;" xml:space="preserve">
<g>
	<path d="M295.609,197.11c-0.028-0.081-0.048-0.163-0.079-0.244c-9.948-26.177-15.115-61.87-16.261-112.329
		c-0.152-6.661,1.096-13.395,3.607-19.475C285.574,58.533,287,51.077,287,43.5C287,19.107,273.164,0,255.5,0S224,19.107,224,43.5
		c0,7.577,1.426,15.033,4.123,21.562c2.512,6.08,3.759,12.813,3.607,19.475c-1.146,50.443-6.31,86.127-16.25,112.3
		c-0.034,0.09-0.058,0.182-0.088,0.272C146.795,214.942,96,277.399,96,351.5C96,439.449,167.551,511,255.5,511
		S415,439.449,415,351.5C415,277.4,364.206,214.943,295.609,197.11z M246.727,84.878c0.199-8.724-1.44-17.556-4.74-25.543
		C240.033,54.606,239,49.13,239,43.5c0-15.182,7.71-28.5,16.5-28.5S272,28.318,272,43.5c0,5.63-1.033,11.106-2.986,15.835
		c-3.3,7.987-4.939,16.82-4.74,25.543c1.333,58.692,8.13,90,14.232,108.787c-7.514-1.09-15.193-1.666-23.005-1.666
		s-15.491,0.575-23.006,1.666C238.594,174.886,245.393,143.583,246.727,84.878z M255.5,496C175.822,496,111,431.178,111,351.5
		c0-79.677,64.822-144.5,144.5-144.5S400,271.823,400,351.5C400,431.178,335.178,496,255.5,496z"/>
	<path d="M263,47.5v-8c0-4.142-3.358-7.5-7.5-7.5s-7.5,3.358-7.5,7.5v8c0,4.142,3.358,7.5,7.5,7.5S263,51.642,263,47.5z"/>
	<path d="M363.367,283.493c-2.211-3.501-6.844-4.547-10.347-2.335c-3.501,2.212-4.547,6.844-2.335,10.346
		C362.013,309.435,368,330.181,368,351.5c0,62.033-50.467,112.5-112.5,112.5S143,413.533,143,351.5S193.467,239,255.5,239
		c15.64,0,30.773,3.146,44.981,9.35c3.794,1.658,8.217-0.076,9.875-3.871c1.658-3.796-0.076-8.217-3.872-9.875
		C290.372,227.568,273.218,224,255.5,224C185.196,224,128,281.196,128,351.5S185.196,479,255.5,479S383,421.804,383,351.5
		C383,327.341,376.211,303.825,363.367,283.493z"/>
	<path d="M323.009,261.498c3.105,2.333,6.125,4.857,8.977,7.501c1.444,1.339,3.273,2.001,5.099,2.001c2.014,0,4.023-0.806,5.5-2.399
		c2.817-3.037,2.639-7.782-0.398-10.599c-3.229-2.996-6.65-5.854-10.168-8.497c-3.312-2.488-8.013-1.82-10.501,1.491
		C319.03,254.309,319.698,259.01,323.009,261.498z"/>
</g>
<g>
</g>
<g>
</g>
<g>
</g>
<g>
</g>
<g>
</g>
<g>
</g>
<g>
</g>
<g>
</g>
<g>
</g>
<g>
</g>
<g>
</g>
<g>
</g>
<g>
</g>
<g>
</g>
<g>
</g>
</svg>
