<?xml version="1.0" encoding="iso-8859-1"?>
<!-- Generator: Adobe Illustrator 17.1.0, SVG Export Plug-In . SVG Version: 6.00 Build 0)  -->
<!DOCTYPE svg PUBLIC "-//W3C//DTD SVG 1.1//EN" "http://www.w3.org/Graphics/SVG/1.1/DTD/svg11.dtd">
<svg version="1.1" id="Capa_1" xmlns="http://www.w3.org/2000/svg" xmlns:xlink="http://www.w3.org/1999/xlink" x="0px" y="0px"
	 viewBox="0 0 511 511" style="enable-background:new 0 0 511 511;" xml:space="preserve">
<g>
	<path d="M367.5,128h-1.379L351.932,14.488C350.899,6.229,343.844,0,335.48,0c-8.324,0-15.38,6.229-16.412,14.488L304.879,128H207
		v-8.5c0-8.547-6.953-15.5-15.5-15.5h-24c-8.547,0-15.5,6.953-15.5,15.5v8.5h-8.5c-21.78,0-39.5,17.72-39.5,39.5v304
		c0,21.78,17.72,39.5,39.5,39.5h224c21.78,0,39.5-17.72,39.5-39.5v-304C407,145.72,389.28,128,367.5,128z M333.952,16.349
		C334.048,15.58,334.706,15,335.52,15c0.775,0,1.432,0.58,1.528,1.349L351.004,128h-31.009L333.952,16.349z M167,119.5
		c0-0.276,0.224-0.5,0.5-0.5h24c0.276,0,0.5,0.224,0.5,0.5v8.5h-25V119.5z M392,471.5c0,13.509-10.991,24.5-24.5,24.5h-224
		c-13.509,0-24.5-10.991-24.5-24.5v-304c0-13.509,10.991-24.5,24.5-24.5h215.97c0.007,0,0.014,0.001,0.021,0.001
		c0.005,0,0.01-0.001,0.016-0.001h7.994c13.509,0,24.5,10.991,24.5,24.5V471.5z"/>
	<path d="M359.5,168h-208c-4.142,0-7.5,3.358-7.5,7.5v192c0,4.142,3.358,7.5,7.5,7.5h208c4.142,0,7.5-3.358,7.5-7.5v-192
		C367,171.358,363.642,168,359.5,168z M352,360H159V183h193V360z"/>
	<path d="M199.5,288.914l33.752,8.438l3.92,27.444c0.605,4.232,3.838,7.585,8.045,8.343c0.591,0.106,1.182,0.158,1.767,0.158
		c3.578,0,6.927-1.94,8.683-5.166l50.682-93.044c1.547-2.839,1.099-6.351-1.11-8.712c-2.209-2.361-5.682-3.041-8.62-1.685
		l-98.868,45.63c-3.806,1.757-6.1,5.741-5.708,9.915C192.437,284.41,195.433,287.897,199.5,288.914z M282.344,247.8l-32.496,59.657
		l-2.459-17.218c-0.432-3.019-2.647-5.476-5.606-6.215l-24.599-6.15L282.344,247.8z"/>
	<path d="M335.5,400c-17.369,0-31.5,14.131-31.5,31.5s14.131,31.5,31.5,31.5s31.5-14.131,31.5-31.5S352.869,400,335.5,400z
		 M335.5,448c-9.098,0-16.5-7.402-16.5-16.5s7.402-16.5,16.5-16.5s16.5,7.402,16.5,16.5S344.598,448,335.5,448z"/>
	<path d="M271.5,408c-12.958,0-23.5,10.542-23.5,23.5s10.542,23.5,23.5,23.5s23.5-10.542,23.5-23.5S284.458,408,271.5,408z
		 M271.5,440c-4.687,0-8.5-3.813-8.5-8.5s3.813-8.5,8.5-8.5s8.5,3.813,8.5,8.5S276.187,440,271.5,440z"/>
	<path d="M175.5,400h-24c-4.142,0-7.5,3.358-7.5,7.5s3.358,7.5,7.5,7.5h24c4.142,0,7.5-3.358,7.5-7.5S179.642,400,175.5,400z"/>
	<path d="M175.5,424h-24c-4.142,0-7.5,3.358-7.5,7.5s3.358,7.5,7.5,7.5h24c4.142,0,7.5-3.358,7.5-7.5S179.642,424,175.5,424z"/>
	<path d="M175.5,448h-24c-4.142,0-7.5,3.358-7.5,7.5s3.358,7.5,7.5,7.5h24c4.142,0,7.5-3.358,7.5-7.5S179.642,448,175.5,448z"/>
</g>
<g>
</g>
<g>
</g>
<g>
</g>
<g>
</g>
<g>
</g>
<g>
</g>
<g>
</g>
<g>
</g>
<g>
</g>
<g>
</g>
<g>
</g>
<g>
</g>
<g>
</g>
<g>
</g>
<g>
</g>
</svg>
