<?xml version="1.0" encoding="iso-8859-1"?>
<!-- Generator: Adobe Illustrator 17.1.0, SVG Export Plug-In . SVG Version: 6.00 Build 0)  -->
<!DOCTYPE svg PUBLIC "-//W3C//DTD SVG 1.1//EN" "http://www.w3.org/Graphics/SVG/1.1/DTD/svg11.dtd">
<svg version="1.1" id="Capa_1" xmlns="http://www.w3.org/2000/svg" xmlns:xlink="http://www.w3.org/1999/xlink" x="0px" y="0px"
	 viewBox="0 0 511 511" style="enable-background:new 0 0 511 511;" xml:space="preserve">
<g>
	<path d="M506.217,159.369l-90.829-90.83C412.46,65.612,408.568,64,404.429,64H271.243V39.5c0-21.78-17.72-39.5-39.5-39.5
		s-39.5,17.72-39.5,39.5V64h-168.5c-12.958,0-23.5,10.542-23.5,23.5v160c0,12.958,10.542,23.5,23.5,23.5h168.5v232.5
		c0,4.142,3.358,7.5,7.5,7.5h64c4.142,0,7.5-3.358,7.5-7.5V271h133.186c4.093,0,7.945-1.576,10.861-4.442l90.754-85.102
		c0.059-0.055,0.116-0.111,0.173-0.167c2.928-2.928,4.54-6.82,4.54-10.96S509.145,162.296,506.217,159.369z M207.243,39.5
		c0-13.509,10.991-24.5,24.5-24.5s24.5,10.991,24.5,24.5V64h-49V39.5z M256.243,496h-49V271h17v64.5c0,4.142,3.358,7.5,7.5,7.5
		s7.5-3.358,7.5-7.5V271h17V496z M495.648,170.643l-90.692,85.044c-0.058,0.055-0.116,0.11-0.172,0.167
		c-0.095,0.095-0.221,0.147-0.355,0.147H263.82c-0.026,0-0.051-0.004-0.077-0.004S263.691,256,263.665,256H199.82
		c-0.026,0-0.051-0.004-0.077-0.004S199.691,256,199.665,256H23.743c-4.687,0-8.5-3.813-8.5-8.5V223h128.5
		c4.142,0,7.5-3.358,7.5-7.5s-3.358-7.5-7.5-7.5h-128.5V87.5c0-4.687,3.813-8.5,8.5-8.5h380.686c0.134,0,0.26,0.052,0.354,0.146
		L421.637,96h-85.894c-4.142,0-7.5,3.358-7.5,7.5s3.358,7.5,7.5,7.5h96c1.402,0,2.71-0.392,3.832-1.062l60.036,60.037
		c0.036,0.036,0.146,0.146,0.146,0.353C495.757,170.485,495.694,170.586,495.648,170.643z"/>
	<path d="M303.743,96h-16c-4.142,0-7.5,3.358-7.5,7.5s3.358,7.5,7.5,7.5h16c4.142,0,7.5-3.358,7.5-7.5S307.885,96,303.743,96z"/>
	<path d="M231.743,360c-4.142,0-7.5,3.358-7.5,7.5v16c0,4.142,3.358,7.5,7.5,7.5s7.5-3.358,7.5-7.5v-16
		C239.243,363.358,235.885,360,231.743,360z"/>
</g>
<g>
</g>
<g>
</g>
<g>
</g>
<g>
</g>
<g>
</g>
<g>
</g>
<g>
</g>
<g>
</g>
<g>
</g>
<g>
</g>
<g>
</g>
<g>
</g>
<g>
</g>
<g>
</g>
<g>
</g>
</svg>
