<?xml version="1.0" encoding="iso-8859-1"?>
<!-- Generator: Adobe Illustrator 17.1.0, SVG Export Plug-In . SVG Version: 6.00 Build 0)  -->
<!DOCTYPE svg PUBLIC "-//W3C//DTD SVG 1.1//EN" "http://www.w3.org/Graphics/SVG/1.1/DTD/svg11.dtd">
<svg version="1.1" id="Capa_1" xmlns="http://www.w3.org/2000/svg" xmlns:xlink="http://www.w3.org/1999/xlink" x="0px" y="0px"
	 viewBox="0 0 511 511" style="enable-background:new 0 0 511 511;" xml:space="preserve">
<g>
	<path d="M447,263.5c0-74.715-60.785-135.5-135.5-135.5H311V87.5c0-0.089-0.01-0.175-0.013-0.264C320.695,80.033,327,68.49,327,55.5
		v-16C327,17.72,309.28,0,287.5,0h-64C201.72,0,184,17.72,184,39.5v0.742C121.589,44.127,72,96.127,72,159.5
		c0,14.236,2.483,28.147,7.368,41.378C69.559,219.619,64,240.921,64,263.5v112c0,2.168,0.057,4.324,0.158,6.468
		C64.055,382.462,64,382.975,64,383.5c0,0.835,0.142,1.636,0.394,2.386C69.716,455.767,128.279,511,199.5,511h112
		c71.221,0,129.784-55.233,135.106-125.114c0.252-0.75,0.394-1.551,0.394-2.386c0-0.525-0.055-1.038-0.158-1.532
		c0.101-2.144,0.158-4.299,0.158-6.468V263.5z M296,128h-81V94.069c2.74,0.604,5.582,0.931,8.5,0.931h64
		c2.918,0,5.76-0.328,8.5-0.931V128z M223.5,15h64c13.509,0,24.5,10.991,24.5,24.5V40h-8.5c-4.142,0-7.5,3.358-7.5,7.5
		s3.358,7.5,7.5,7.5h8.5v0.5c0,13.509-10.991,24.5-24.5,24.5h-64C209.991,80,199,69.009,199,55.5V55h72.5c4.142,0,7.5-3.358,7.5-7.5
		s-3.358-7.5-7.5-7.5H199v-0.5C199,25.991,209.991,15,223.5,15z M87,159.5c0-55.1,42.866-100.37,97-104.228V55.5
		c0,12.99,6.305,24.533,16.013,31.736C200.01,87.325,200,87.411,200,87.5V128h-0.5c-45.011,0-84.959,22.067-109.615,55.944
		C87.977,175.986,87,167.809,87,159.5z M311.5,496h-112c-61.193,0-111.876-45.85-119.506-105H327.5c4.142,0,7.5-3.358,7.5-7.5
		s-3.358-7.5-7.5-7.5H79.006c-0.001-0.167-0.006-0.333-0.006-0.5v-112C79,197.056,133.056,143,199.5,143h112
		c66.444,0,120.5,54.056,120.5,120.5v112c0,0.167-0.006,0.333-0.006,0.5H407.5c-4.142,0-7.5,3.358-7.5,7.5s3.358,7.5,7.5,7.5h23.506
		C423.376,450.15,372.693,496,311.5,496z"/>
	<path d="M375.5,376h-16c-4.142,0-7.5,3.358-7.5,7.5s3.358,7.5,7.5,7.5h16c4.142,0,7.5-3.358,7.5-7.5S379.642,376,375.5,376z"/>
	<path d="M407.5,271c4.142,0,7.5-3.358,7.5-7.5c0-34.707-17.315-66.945-46.318-86.235c-3.448-2.293-8.104-1.358-10.398,2.091
		c-2.294,3.449-1.358,8.104,2.091,10.398C385.187,206.257,400,233.826,400,263.5C400,267.642,403.358,271,407.5,271z"/>
	<path d="M337.375,163.275C328.962,161.102,320.256,160,311.5,160c-4.142,0-7.5,3.358-7.5,7.5s3.358,7.5,7.5,7.5
		c7.491,0,14.935,0.941,22.124,2.798c0.629,0.163,1.26,0.24,1.881,0.24c3.337,0,6.383-2.245,7.256-5.626
		C343.797,168.402,341.386,164.311,337.375,163.275z"/>
</g>
<g>
</g>
<g>
</g>
<g>
</g>
<g>
</g>
<g>
</g>
<g>
</g>
<g>
</g>
<g>
</g>
<g>
</g>
<g>
</g>
<g>
</g>
<g>
</g>
<g>
</g>
<g>
</g>
<g>
</g>
</svg>
