<?xml version="1.0" encoding="iso-8859-1"?>
<!-- Generator: Adobe Illustrator 17.1.0, SVG Export Plug-In . SVG Version: 6.00 Build 0)  -->
<!DOCTYPE svg PUBLIC "-//W3C//DTD SVG 1.1//EN" "http://www.w3.org/Graphics/SVG/1.1/DTD/svg11.dtd">
<svg version="1.1" id="Capa_1" xmlns="http://www.w3.org/2000/svg" xmlns:xlink="http://www.w3.org/1999/xlink" x="0px" y="0px"
	 viewBox="0 0 511 511" style="enable-background:new 0 0 511 511;" xml:space="preserve">
<g>
	<path d="M271.497,48H255.5c-4.142,0-7.5,3.358-7.5,7.5s3.358,7.5,7.5,7.5h15.997c4.142,0,7.5-3.358,7.5-7.5S275.639,48,271.497,48z
		"/>
	<path d="M399.5,80H343V55.5c0-0.061-0.008-0.119-0.009-0.18c-0.004-0.157-0.01-0.313-0.024-0.47
		c-0.009-0.102-0.021-0.203-0.034-0.303c-0.018-0.139-0.038-0.278-0.064-0.416c-0.022-0.12-0.049-0.237-0.076-0.354
		c-0.027-0.115-0.056-0.23-0.088-0.344c-0.04-0.138-0.085-0.274-0.132-0.408c-0.033-0.093-0.065-0.186-0.102-0.278
		c-0.059-0.15-0.125-0.297-0.194-0.442c-0.025-0.052-0.043-0.106-0.069-0.158l-15.155-30.312C320.318,8.367,306.781,0,291.723,0
		H107.277c-15.058,0-28.595,8.367-35.33,21.835L56.792,52.146c-0.026,0.052-0.044,0.105-0.069,0.158
		c-0.069,0.145-0.134,0.292-0.194,0.442c-0.037,0.092-0.069,0.185-0.102,0.278c-0.047,0.135-0.092,0.27-0.132,0.408
		c-0.033,0.115-0.061,0.229-0.088,0.344c-0.028,0.117-0.054,0.235-0.076,0.354c-0.026,0.138-0.046,0.277-0.064,0.416
		c-0.013,0.101-0.026,0.201-0.034,0.303c-0.014,0.157-0.02,0.313-0.024,0.47C56.008,55.381,56,55.439,56,55.5v280
		c0,19.217,13.793,35.273,32,38.786V463.5c0,26.191,21.309,47.5,47.5,47.5h128c26.191,0,47.5-21.309,47.5-47.5v-89.214
		c18.207-3.513,32-19.568,32-38.786V335h56.5c30.603,0,55.5-24.897,55.5-55.5v-144C455,104.897,430.103,80,399.5,80z M343,127h56.5
		c4.687,0,8.5,3.813,8.5,8.5v144c0,4.687-3.813,8.5-8.5,8.5H343V127z M328,335.5c0,13.509-10.991,24.5-24.5,24.5h-16
		c-4.142,0-7.5,3.358-7.5,7.5s3.358,7.5,7.5,7.5h8.5v88.5c0,17.92-14.58,32.5-32.5,32.5h-128c-17.92,0-32.5-14.58-32.5-32.5V375
		h152.5c4.142,0,7.5-3.358,7.5-7.5s-3.358-7.5-7.5-7.5h-160C81.991,360,71,349.009,71,335.5V63h152.498c4.142,0,7.5-3.358,7.5-7.5
		s-3.358-7.5-7.5-7.5H75.635l9.728-19.457C89.541,20.189,97.938,15,107.277,15h184.446c9.339,0,17.736,5.189,21.914,13.543
		L323.365,48h-19.866c-4.142,0-7.5,3.358-7.5,7.5s3.358,7.5,7.5,7.5H328V335.5z M440,279.5c0,22.332-18.168,40.5-40.5,40.5H343v-17
		h56.5c12.958,0,23.5-10.542,23.5-23.5v-144c0-12.958-10.542-23.5-23.5-23.5H343V95h56.5c22.332,0,40.5,18.168,40.5,40.5V279.5z"/>
	<path d="M295.5,88c-4.142,0-7.5,3.358-7.5,7.5v16c0,4.142,3.358,7.5,7.5,7.5s7.5-3.358,7.5-7.5v-16C303,91.358,299.642,88,295.5,88
		z"/>
	<path d="M295.5,136c-4.142,0-7.5,3.358-7.5,7.5v88c0,4.142,3.358,7.5,7.5,7.5s7.5-3.358,7.5-7.5v-88
		C303,139.358,299.642,136,295.5,136z"/>
</g>
<g>
</g>
<g>
</g>
<g>
</g>
<g>
</g>
<g>
</g>
<g>
</g>
<g>
</g>
<g>
</g>
<g>
</g>
<g>
</g>
<g>
</g>
<g>
</g>
<g>
</g>
<g>
</g>
<g>
</g>
</svg>
