<?xml version="1.0" encoding="iso-8859-1"?>
<!-- Generator: Adobe Illustrator 17.1.0, SVG Export Plug-In . SVG Version: 6.00 Build 0)  -->
<!DOCTYPE svg PUBLIC "-//W3C//DTD SVG 1.1//EN" "http://www.w3.org/Graphics/SVG/1.1/DTD/svg11.dtd">
<svg version="1.1" id="Capa_1" xmlns="http://www.w3.org/2000/svg" xmlns:xlink="http://www.w3.org/1999/xlink" x="0px" y="0px"
	 viewBox="0 0 511 511" style="enable-background:new 0 0 511 511;" xml:space="preserve">
<g>
	<path d="M401.98,0H287.5c-4.142,0-7.5,3.358-7.5,7.5s3.358,7.5,7.5,7.5h114.48C418.533,15,432,28.467,432,45.025
		c0,9.256-4.38,18.15-11.716,23.794L332.949,136H279V95h38.5c5.238,0,9.5-4.262,9.5-9.5v-28c0-5.238-4.262-9.5-9.5-9.5h-124
		c-5.238,0-9.5,4.262-9.5,9.5v28c0,5.238,4.262,9.5,9.5,9.5H232v41h-53.949L90.716,68.82C83.38,63.176,79,54.281,79,45.02
		C79,28.467,92.467,15,109.02,15H223.5c4.142,0,7.5-3.358,7.5-7.5S227.642,0,223.5,0H109.02C84.196,0,64,20.196,64,45.025
		c0,13.88,6.568,27.22,17.571,35.684L168,147.193v104.499c-3.723,1.555-7.225,3.574-10.385,6.034
		C118.458,288.211,96,334.054,96,383.5v104c0,12.958,10.542,23.5,23.5,23.5h272c12.958,0,23.5-10.542,23.5-23.5v-104
		c0-49.445-22.458-95.288-61.615-125.774c-3.16-2.46-6.662-4.479-10.385-6.034V223h33v15.5c0,4.687,3.813,8.5,8.5,8.5h30
		c4.687,0,8.5-3.813,8.5-8.5v-78c0-4.687-3.813-8.5-8.5-8.5h-30c-4.687,0-8.5,3.813-8.5,8.5V176h-33v-28.807l86.429-66.484
		C440.432,72.245,447,58.906,447,45.02C447,20.196,426.804,0,401.98,0z M199,63h113v17H199V63z M247,95h17v41h-17V95z M400,383.5
		v104c0,4.687-3.813,8.5-8.5,8.5h-272c-4.687,0-8.5-3.813-8.5-8.5v-104c0-44.786,20.349-86.314,55.829-113.938
		c5.436-4.231,12.419-6.562,19.664-6.562h138.015c7.245,0,14.228,2.331,19.663,6.562C379.651,297.185,400,338.714,400,383.5z
		 M186.493,248H183v-97h145v97h-3.493H186.493z M391,167h17v65h-17V167z M376,191v17h-33v-17H376z"/>
	<path d="M368,383.5v48c0,4.142,3.358,7.5,7.5,7.5s7.5-3.358,7.5-7.5v-48c0-15.824-2.858-31.253-8.496-45.858
		c-1.492-3.865-5.833-5.789-9.698-4.296c-3.864,1.492-5.788,5.833-4.296,9.698C365.48,355.918,368,369.53,368,383.5z"/>
	<path d="M345.448,316.003c1.475,1.95,3.717,2.976,5.987,2.976c1.576,0,3.165-0.495,4.519-1.519
		c3.303-2.499,3.956-7.203,1.457-10.506c-4.592-6.07-9.778-11.78-15.414-16.972c-3.047-2.807-7.792-2.611-10.598,0.435
		c-2.806,3.047-2.611,7.792,0.436,10.598C336.814,305.602,341.395,310.645,345.448,316.003z"/>
	<path d="M303.5,168c-4.142,0-7.5,3.358-7.5,7.5v48c0,4.142,3.358,7.5,7.5,7.5s7.5-3.358,7.5-7.5v-48
		C311,171.358,307.642,168,303.5,168z"/>
</g>
<g>
</g>
<g>
</g>
<g>
</g>
<g>
</g>
<g>
</g>
<g>
</g>
<g>
</g>
<g>
</g>
<g>
</g>
<g>
</g>
<g>
</g>
<g>
</g>
<g>
</g>
<g>
</g>
<g>
</g>
</svg>
