<?xml version="1.0" encoding="iso-8859-1"?>
<!-- Generator: Adobe Illustrator 17.1.0, SVG Export Plug-In . SVG Version: 6.00 Build 0)  -->
<!DOCTYPE svg PUBLIC "-//W3C//DTD SVG 1.1//EN" "http://www.w3.org/Graphics/SVG/1.1/DTD/svg11.dtd">
<svg version="1.1" id="Capa_1" xmlns="http://www.w3.org/2000/svg" xmlns:xlink="http://www.w3.org/1999/xlink" x="0px" y="0px"
	 viewBox="0 0 511 511" style="enable-background:new 0 0 511 511;" xml:space="preserve">
<g>
	<path d="M508.803,80.808l-33.941-33.941c-1.406-1.407-3.314-2.197-5.303-2.197s-3.897,0.79-5.303,2.197L243.744,267.378
		c-0.005,0.004-0.009,0.009-0.013,0.013l-0.093,0.093c-0.044,0.044-0.082,0.093-0.125,0.138c-0.117,0.124-0.233,0.248-0.343,0.379
		c-0.068,0.082-0.129,0.167-0.193,0.25c-0.083,0.109-0.167,0.217-0.244,0.332c-0.081,0.118-0.152,0.24-0.225,0.362
		c-0.051,0.086-0.105,0.17-0.153,0.259c-0.084,0.155-0.158,0.313-0.231,0.472c-0.024,0.053-0.053,0.103-0.077,0.156
		c-0.079,0.185-8.066,18.622-21.037,31.593l-25.865,25.865c-13.621-55.519-51.123-94.057-52.806-95.763
		c-1.403-1.423-3.316-2.227-5.314-2.233c-1.993-0.022-3.916,0.784-5.329,2.197l-11.702,11.702
		c-17.437-33.456-12.598-79.064-12.543-79.553c0.353-3.107-1.259-6.106-4.044-7.526c-2.785-1.42-6.159-0.964-8.467,1.145
		c-30.886,28.223-56.233,65.68-73.302,108.323C7.887,299.935,0,336.644,0,366.294c0,55.14,44.86,100,100,100h19.261
		c0.567,0.023,1.137,0.036,1.712,0.036c14.726-0.001,31.949-7.72,46.36-22.131c12.502-12.502,20.464-27.841,21.845-42.084
		c0.165-1.704,1.004-3.392,2.362-4.75l62.705-62.705c12.904-12.903,31.413-20.959,31.592-21.037
		c0.053-0.022,0.102-0.051,0.154-0.075c0.16-0.073,0.319-0.148,0.475-0.232c0.089-0.048,0.173-0.102,0.259-0.153
		c0.122-0.073,0.243-0.145,0.361-0.225c0.116-0.079,0.226-0.163,0.336-0.247c0.082-0.063,0.165-0.123,0.245-0.189
		c0.135-0.112,0.262-0.23,0.388-0.351c0.042-0.041,0.088-0.076,0.13-0.117l0.086-0.086c0.007-0.008,0.015-0.015,0.022-0.022
		l22.518-22.517c0.001-0.001,0.002-0.002,0.003-0.003L508.803,91.415C511.732,88.485,511.732,83.737,508.803,80.808z M15,366.294
		c0-27.813,7.496-62.491,20.564-95.14c13.699-34.224,32.948-64.885,56.188-89.675c0.213,20.54,3.601,53.206,20.552,78.042
		c1.259,1.844,3.273,3.032,5.497,3.24c2.222,0.206,4.423-0.586,6.001-2.165l12.905-12.905
		c11.171,13.119,37.632,47.985,45.819,92.217l-24.221,24.221c-1.358,1.358-3.046,2.198-4.751,2.363
		c-14.242,1.379-29.581,9.341-42.083,21.844c-11.214,11.214-18.361,24.126-20.988,36.243C78.884,419.496,71,407.869,71,394.794
		c0-9.252,2.098-19.061,6.235-29.154c1.571-3.833-0.262-8.213-4.095-9.784c-3.833-1.571-8.213,0.263-9.784,4.095
		C58.475,371.858,56,383.582,56,394.794c0,21.022,13.953,39.487,33.744,45.471c0.554,3.854,1.691,7.472,3.457,10.733
		C49.502,447.519,15,410.873,15,366.294z M243.638,324.053l-62.705,62.705c-3.813,3.813-6.187,8.753-6.686,13.911
		c-1.035,10.679-7.585,22.987-17.521,32.923c-11.492,11.492-25.535,17.964-36.218,17.778c-0.331-0.045-0.666-0.076-1.009-0.076
		h-0.511c-4.135-0.333-7.691-1.737-10.284-4.329c-9.39-9.391-3.267-31.382,13.373-48.021c9.937-9.937,22.245-16.486,32.923-17.521
		c5.159-0.5,10.099-2.874,13.911-6.686l62.705-62.705c12.962-12.962,21.333-29.984,23.602-34.916l30.029-30.029
		c4.047,1.607,4.477,5.486,3.259,16.845c-0.87,8.114-1.77,16.503,3.586,22.464c0.082,0.091,0.176,0.167,0.259,0.256l-13.798,13.798
		C273.622,302.721,256.6,311.091,243.638,324.053z M303.086,275.919c-0.564-1.988-0.01-7.169,0.335-10.387
		c0.885-8.255,2.339-21.945-7.242-29.375l173.38-173.38l23.334,23.334L303.086,275.919z"/>
	<path d="M83.001,339.091c3.317,2.483,8.017,1.807,10.499-1.508c2.686-3.586,5.274-6.718,7.526-9.293
		c3.252,7.573,8.038,18.379,13.562,29.789c1.295,2.675,3.97,4.233,6.756,4.233c1.096,0,2.21-0.241,3.263-0.751
		c3.728-1.805,5.288-6.29,3.482-10.019c-10.026-20.711-17.557-39.363-17.632-39.549c-0.921-2.288-2.908-3.977-5.315-4.517
		c-2.404-0.541-4.924,0.137-6.735,1.812c-0.327,0.302-8.102,7.536-16.914,19.304C79.011,331.907,79.686,336.608,83.001,339.091z"/>
</g>
<g>
</g>
<g>
</g>
<g>
</g>
<g>
</g>
<g>
</g>
<g>
</g>
<g>
</g>
<g>
</g>
<g>
</g>
<g>
</g>
<g>
</g>
<g>
</g>
<g>
</g>
<g>
</g>
<g>
</g>
</svg>
