<?xml version="1.0" encoding="iso-8859-1"?>
<!-- Generator: Adobe Illustrator 17.1.0, SVG Export Plug-In . SVG Version: 6.00 Build 0)  -->
<!DOCTYPE svg PUBLIC "-//W3C//DTD SVG 1.1//EN" "http://www.w3.org/Graphics/SVG/1.1/DTD/svg11.dtd">
<svg version="1.1" id="Capa_1" xmlns="http://www.w3.org/2000/svg" xmlns:xlink="http://www.w3.org/1999/xlink" x="0px" y="0px"
	 viewBox="0 0 511 511" style="enable-background:new 0 0 511 511;" xml:space="preserve">
<g>
	<path d="M447.5,160h-160c-0.301,0-0.596,0.022-0.888,0.057l-22.27-40.085c-2.732-4.917-7.924-7.972-13.549-7.972h-26.355
		c-4.403,0-8.613,1.882-11.549,5.163s-4.342,7.672-3.856,12.049L212.454,160H63.5C27.893,160,0,212.491,0,279.5S27.893,399,63.5,399
		h384c35.607,0,63.5-52.491,63.5-119.5S483.107,160,447.5,160z M30.61,355.342C20.544,335.209,15,308.274,15,279.5
		s5.544-55.709,15.61-75.842C39.717,185.445,51.705,175,63.5,175s23.783,10.445,32.89,28.658C106.456,223.791,112,250.726,112,279.5
		s-5.544,55.709-15.61,75.842C87.283,373.555,75.295,384,63.5,384S39.717,373.555,30.61,355.342z M447.5,384H94.757
		C114.147,363.769,127,324.982,127,279.5S114.147,195.231,94.757,175H214.12l1.925,17.328c0.458,4.117,4.161,7.084,8.282,6.626
		c4.117-0.458,7.083-4.166,6.626-8.282l-7.013-63.116c-0.007-0.061-0.024-0.223,0.125-0.389s0.312-0.167,0.373-0.167h26.355
		c0.182,0,0.349,0.099,0.437,0.257l37.714,67.886c1.371,2.467,3.927,3.859,6.563,3.859c1.232,0,2.482-0.304,3.635-0.945
		c3.621-2.011,4.926-6.578,2.914-10.199L294.913,175H447.5c11.795,0,23.783,10.445,32.89,28.658
		C490.456,223.791,496,250.726,496,279.5s-5.544,55.709-15.61,75.842C471.283,373.555,459.295,384,447.5,384z"/>
	<path d="M48.313,302.621C47.442,295.221,47,287.442,47,279.5c0-44.395,12.657-64.5,16.5-64.5c4.142,0,7.5-3.358,7.5-7.5
		s-3.358-7.5-7.5-7.5c-7.001,0-16.863,4.548-24.086,26.217C34.633,240.56,32,259.483,32,279.5c0,8.526,0.477,16.896,1.417,24.875
		c0.449,3.816,3.688,6.624,7.439,6.624c0.292,0,0.589-0.018,0.887-0.053C45.856,310.462,48.798,306.734,48.313,302.621z"/>
	<path d="M87.586,332.783C92.367,318.439,95,299.517,95,279.5c0-11.649-0.873-22.828-2.596-33.225
		c-0.677-4.087-4.542-6.849-8.625-6.174c-4.086,0.677-6.851,4.538-6.174,8.625C79.195,258.316,80,268.67,80,279.5
		c0,44.395-12.657,64.5-16.5,64.5c-0.736,0-4.279-1.935-8.17-11.401c-1.575-3.832-5.958-5.66-9.788-4.086
		c-3.831,1.574-5.661,5.957-4.086,9.788C48.487,355.409,57.325,359,63.5,359C70.501,359,80.363,354.452,87.586,332.783z"/>
	<path d="M415.5,232h-23.996c-4.142,0-7.5,3.358-7.5,7.5s3.358,7.5,7.5,7.5H415.5c4.142,0,7.5-3.358,7.5-7.5S419.642,232,415.5,232z
		"/>
	<path d="M215.501,247h144c4.142,0,7.5-3.358,7.5-7.5s-3.358-7.5-7.5-7.5h-144c-4.142,0-7.5,3.358-7.5,7.5S211.359,247,215.501,247z
		"/>
	<path d="M159.5,247h24.002c4.142,0,7.5-3.358,7.5-7.5s-3.358-7.5-7.5-7.5H159.5c-4.142,0-7.5,3.358-7.5,7.5S155.358,247,159.5,247z
		"/>
	<path d="M455.5,272h-23.998c-4.142,0-7.5,3.358-7.5,7.5s3.358,7.5,7.5,7.5H455.5c4.142,0,7.5-3.358,7.5-7.5S459.642,272,455.5,272z
		"/>
	<path d="M399.501,272h-16.004c-4.142,0-7.5,3.358-7.5,7.5s3.358,7.5,7.5,7.5h16.004c4.142,0,7.5-3.358,7.5-7.5
		S403.644,272,399.501,272z"/>
	<path d="M167.5,272c-4.142,0-7.5,3.358-7.5,7.5s3.358,7.5,7.5,7.5h184.003c4.142,0,7.5-3.358,7.5-7.5s-3.358-7.5-7.5-7.5H167.5z"/>
	<path d="M383.5,312h-104c-4.142,0-7.5,3.358-7.5,7.5s3.358,7.5,7.5,7.5h104c4.142,0,7.5-3.358,7.5-7.5S387.642,312,383.5,312z"/>
	<path d="M247.5,312h-15.997c-4.142,0-7.5,3.358-7.5,7.5s3.358,7.5,7.5,7.5H247.5c4.142,0,7.5-3.358,7.5-7.5S251.643,312,247.5,312z
		"/>
	<path d="M191.5,312h-40c-4.142,0-7.5,3.358-7.5,7.5s3.358,7.5,7.5,7.5h40c4.142,0,7.5-3.358,7.5-7.5S195.642,312,191.5,312z"/>
</g>
<g>
</g>
<g>
</g>
<g>
</g>
<g>
</g>
<g>
</g>
<g>
</g>
<g>
</g>
<g>
</g>
<g>
</g>
<g>
</g>
<g>
</g>
<g>
</g>
<g>
</g>
<g>
</g>
<g>
</g>
</svg>
