<?xml version="1.0" encoding="iso-8859-1"?>
<!-- Generator: Adobe Illustrator 17.1.0, SVG Export Plug-In . SVG Version: 6.00 Build 0)  -->
<!DOCTYPE svg PUBLIC "-//W3C//DTD SVG 1.1//EN" "http://www.w3.org/Graphics/SVG/1.1/DTD/svg11.dtd">
<svg version="1.1" id="Capa_1" xmlns="http://www.w3.org/2000/svg" xmlns:xlink="http://www.w3.org/1999/xlink" x="0px" y="0px"
	 viewBox="0 0 509.722 509.722" style="enable-background:new 0 0 509.722 509.722;" xml:space="preserve">
<path d="M491.152,292.484c-1.705-1.705-4.126-2.484-6.504-2.1c-2.38,0.386-4.429,1.893-5.507,4.049l-11.313,22.627
	c-1.853,3.705-0.351,8.21,3.354,10.062c3.704,1.853,8.21,0.351,10.062-3.354l6.088-12.175c11.759,18.727,9.498,43.804-6.786,60.087
	c-9.161,9.16-21.34,14.205-34.295,14.205c-12.955,0-25.134-5.045-34.294-14.205l-54.985-54.985
	c4.347-8.787,2.886-19.741-4.42-27.048L328.5,265.596c-4.438-4.438-10.34-6.883-16.617-6.883c-3.687,0-7.241,0.85-10.449,2.445
	L163.055,122.779c-8.971-8.972-20.899-13.913-33.587-13.913c-12.688,0-24.616,4.941-33.587,13.913
	c-18.521,18.521-18.521,48.655,0,67.175c0.186,0.186,0.382,0.361,0.586,0.525l118.269,118.269c0.125,0.125,0.255,0.246,0.389,0.362
	c5.913,6.095,9.163,14.107,9.163,22.619c0,8.681-3.381,16.842-9.519,22.981s-14.3,9.519-22.981,9.519
	c-8.681,0-16.842-3.38-22.981-9.519c-0.15-0.15-0.307-0.294-0.467-0.429L12.803,198.745c-2.929-2.929-7.678-2.929-10.606,0
	c-2.929,2.929-2.929,7.678,0,10.606l156.002,156.002c0.165,0.165,0.336,0.321,0.514,0.468c8.911,8.651,20.627,13.407,33.074,13.407
	c12.688,0,24.616-4.941,33.587-13.913c8.972-8.972,13.913-20.9,13.913-33.587c0-12.688-4.941-24.616-13.913-33.587
	c-0.138-0.138-0.28-0.269-0.427-0.395L106.547,179.347c-0.17-0.17-0.349-0.332-0.535-0.484
	c-12.196-12.708-12.038-32.967,0.474-45.479c6.139-6.138,14.3-9.519,22.981-9.519c8.681,0,16.843,3.38,22.981,9.519l138.379,138.379
	c-1.595,3.207-2.445,6.762-2.445,10.449c0,6.277,2.445,12.179,6.883,16.617l24.051,24.051c4.581,4.582,10.599,6.872,16.617,6.872
	c3.58,0,7.153-0.83,10.431-2.452l54.985,54.985c12.379,12.379,28.64,18.569,44.901,18.569c16.261,0,32.521-6.189,44.901-18.569
	C515.911,357.528,515.911,317.243,491.152,292.484z M303.383,282.213c0-2.271,0.884-4.405,2.49-6.01
	c1.605-1.605,3.739-2.49,6.01-2.49s4.405,0.884,6.011,2.49l6.722,6.722l-12.021,12.021l-6.722-6.722
	C304.267,286.618,303.383,284.484,303.383,282.213z M329.924,312.275l-6.723-6.723l12.021-12.021l6.723,6.723
	c3.314,3.314,3.314,8.707,0,12.021S333.239,315.59,329.924,312.275z"/>
<g>
</g>
<g>
</g>
<g>
</g>
<g>
</g>
<g>
</g>
<g>
</g>
<g>
</g>
<g>
</g>
<g>
</g>
<g>
</g>
<g>
</g>
<g>
</g>
<g>
</g>
<g>
</g>
<g>
</g>
</svg>
