<?xml version="1.0" encoding="iso-8859-1"?>
<!-- Generator: Adobe Illustrator 17.1.0, SVG Export Plug-In . SVG Version: 6.00 Build 0)  -->
<!DOCTYPE svg PUBLIC "-//W3C//DTD SVG 1.1//EN" "http://www.w3.org/Graphics/SVG/1.1/DTD/svg11.dtd">
<svg version="1.1" id="Capa_1" xmlns="http://www.w3.org/2000/svg" xmlns:xlink="http://www.w3.org/1999/xlink" x="0px" y="0px"
	 viewBox="0 0 511 511" style="enable-background:new 0 0 511 511;" xml:space="preserve">
<g>
	<path d="M131.5,96c-11.537,0-21.955,8.129-29.336,22.891C95.61,132,92,149.263,92,167.5s3.61,35.5,10.164,48.609
		C109.545,230.871,119.964,239,131.5,239s21.955-8.129,29.336-22.891C167.39,203,171,185.737,171,167.5s-3.61-35.5-10.164-48.609
		C153.455,104.129,143.037,96,131.5,96z M147.42,209.401C142.78,218.679,136.978,224,131.5,224s-11.28-5.321-15.919-14.599
		C110.048,198.334,107,183.453,107,167.5s3.047-30.834,8.581-41.901C120.22,116.321,126.022,111,131.5,111
		s11.28,5.321,15.919,14.599C152.953,136.666,156,151.547,156,167.5S152.953,198.334,147.42,209.401z"/>
	<path d="M474.852,158.011c-1.263-40.427-10.58-78.216-26.555-107.262C430.298,18.023,405.865,0,379.5,0h-248
		c-26.365,0-50.798,18.023-68.797,50.749C45.484,82.057,36,123.52,36,167.5s9.483,85.443,26.703,116.751
		C80.702,316.977,105.135,335,131.5,335c1.968,0,3.923-0.113,5.867-0.312c0.677,0.2,1.391,0.312,2.133,0.312h48
		c4.142,0,7.5-3.358,7.5-7.5s-3.358-7.5-7.5-7.5h-16c10.686-8.524,20.436-20.547,28.797-35.749
		c4.423-8.041,8.331-16.756,11.703-26.007V503.5c0,2.747,1.501,5.273,3.913,6.586c2.413,1.314,5.35,1.203,7.656-0.286l20.704-13.373
		l20.716,13.374c2.476,1.598,5.658,1.599,8.134,0l20.729-13.376l20.729,13.376c1.238,0.799,2.652,1.198,4.066,1.198
		c1.416,0,2.832-0.4,4.07-1.2l20.699-13.372l20.726,13.374c2.476,1.597,5.657,1.598,8.133,0l20.732-13.377l20.738,13.377
		c2.474,1.596,5.651,1.596,8.126,0.003l20.783-13.385l20.783,13.385c2.308,1.486,5.242,1.592,7.652,0.279
		c2.41-1.314,3.909-3.84,3.909-6.584v-344C475,158.99,474.949,158.492,474.852,158.011z M187.154,277.023
		C171.911,304.737,152.146,320,131.5,320s-40.411-15.263-55.654-42.977C59.824,247.891,51,208.995,51,167.5
		s8.824-80.391,24.846-109.523C91.09,30.263,110.854,15,131.5,15s40.411,15.263,55.654,42.977C203.176,87.109,212,126.005,212,167.5
		S203.176,247.891,187.154,277.023z M446.717,481.194c-2.474-1.593-5.648-1.593-8.122,0l-20.78,13.383l-20.742-13.38
		c-2.476-1.597-5.657-1.596-8.131,0l-20.732,13.376l-20.729-13.376c-2.477-1.599-5.661-1.598-8.136,0.002l-20.699,13.373
		l-20.727-13.375c-2.476-1.598-5.657-1.598-8.133,0l-20.728,13.375l-20.718-13.375c-2.477-1.599-5.66-1.599-8.137,0.001L227,489.728
		V271h8.5c4.142,0,7.5-3.358,7.5-7.5s-3.358-7.5-7.5-7.5H227v-96.5c0-0.521-0.054-1.03-0.155-1.521
		c-1.267-40.416-10.577-78.192-26.548-107.231C191.936,35.547,182.186,23.524,171.5,15h208c20.646,0,40.411,15.263,55.654,42.977
		C451.176,87.109,460,126.005,460,167.5V256h-0.5c-4.142,0-7.5,3.358-7.5,7.5s3.358,7.5,7.5,7.5h0.5v218.749L446.717,481.194z"/>
	<path d="M283.5,256h-16c-4.142,0-7.5,3.358-7.5,7.5s3.358,7.5,7.5,7.5h16c4.142,0,7.5-3.358,7.5-7.5S287.642,256,283.5,256z"/>
	<path d="M331.5,256h-16c-4.142,0-7.5,3.358-7.5,7.5s3.358,7.5,7.5,7.5h16c4.142,0,7.5-3.358,7.5-7.5S335.642,256,331.5,256z"/>
	<path d="M379.5,256h-16c-4.142,0-7.5,3.358-7.5,7.5s3.358,7.5,7.5,7.5h16c4.142,0,7.5-3.358,7.5-7.5S383.642,256,379.5,256z"/>
	<path d="M427.5,256h-16c-4.142,0-7.5,3.358-7.5,7.5s3.358,7.5,7.5,7.5h16c4.142,0,7.5-3.358,7.5-7.5S431.642,256,427.5,256z"/>
</g>
<g>
</g>
<g>
</g>
<g>
</g>
<g>
</g>
<g>
</g>
<g>
</g>
<g>
</g>
<g>
</g>
<g>
</g>
<g>
</g>
<g>
</g>
<g>
</g>
<g>
</g>
<g>
</g>
<g>
</g>
</svg>
