<?xml version="1.0" encoding="iso-8859-1"?>
<!-- Generator: Adobe Illustrator 17.1.0, SVG Export Plug-In . SVG Version: 6.00 Build 0)  -->
<!DOCTYPE svg PUBLIC "-//W3C//DTD SVG 1.1//EN" "http://www.w3.org/Graphics/SVG/1.1/DTD/svg11.dtd">
<svg version="1.1" id="Capa_1" xmlns="http://www.w3.org/2000/svg" xmlns:xlink="http://www.w3.org/1999/xlink" x="0px" y="0px"
	 viewBox="0 0 511.003 511.003" style="enable-background:new 0 0 511.003 511.003;" xml:space="preserve">
<g>
	<path d="M310.999,119.503c0-95.584-39.808-119.135-47.133-119.492c-4.002-0.215-7.451,2.789-7.833,6.776
		c-4.498,46.903-31.152,109.122-31.42,109.745c-0.405,0.938-0.614,1.95-0.614,2.971v192.516
		c-11.735,0.168-21.883,8.527-23.684,19.593c-1.12,6.885,0.803,13.85,5.277,19.11c4.476,5.263,11.002,8.281,17.907,8.281h0.5v120.5
		c0,17.369,14.131,31.5,31.5,31.5h16c17.369,0,31.5-14.131,31.5-31.5V319.89C305.096,299.842,310.999,165.045,310.999,119.503z
		 M252.854,84.156c8.024-23.712,13.529-44.808,16.428-62.928c10.417,10.898,26.717,37.641,26.717,98.274
		c0,41.876-4.999,159.487-7.387,192.5h-49.613V121.028C240.857,116.608,246.618,102.583,252.854,84.156z M287.999,479.503
		c0,9.098-7.402,16.5-16.5,16.5h-16c-9.098,0-16.5-7.402-16.5-16.5v-120.5h24.5c4.142,0,7.5-3.358,7.5-7.5s-3.358-7.5-7.5-7.5h-32
		h-8c-2.498,0-4.859-1.093-6.48-2.999c-1.643-1.931-2.316-4.411-1.898-6.984c0.64-3.935,4.696-7.017,9.234-7.017h63.644V479.503z"/>
	<path d="M255.499,303.003c4.142,0,7.5-3.358,7.5-7.5v-152c0-4.142-3.358-7.5-7.5-7.5s-7.5,3.358-7.5,7.5v152
		C247.999,299.645,251.357,303.003,255.499,303.003z"/>
	<path d="M263.499,464.003c-1.97,0-3.91,0.8-5.3,2.2c-1.4,1.39-2.2,3.33-2.2,5.3c0,1.97,0.8,3.91,2.2,5.3c1.39,1.4,3.33,2.2,5.3,2.2
		c1.97,0,3.91-0.8,5.3-2.2c1.4-1.39,2.2-3.32,2.2-5.3c0-1.97-0.8-3.91-2.2-5.3C267.409,464.802,265.469,464.003,263.499,464.003z"/>
</g>
<g>
</g>
<g>
</g>
<g>
</g>
<g>
</g>
<g>
</g>
<g>
</g>
<g>
</g>
<g>
</g>
<g>
</g>
<g>
</g>
<g>
</g>
<g>
</g>
<g>
</g>
<g>
</g>
<g>
</g>
</svg>
