<?xml version="1.0" encoding="iso-8859-1"?>
<!-- Generator: Adobe Illustrator 17.1.0, SVG Export Plug-In . SVG Version: 6.00 Build 0)  -->
<!DOCTYPE svg PUBLIC "-//W3C//DTD SVG 1.1//EN" "http://www.w3.org/Graphics/SVG/1.1/DTD/svg11.dtd">
<svg version="1.1" id="Capa_1" xmlns="http://www.w3.org/2000/svg" xmlns:xlink="http://www.w3.org/1999/xlink" x="0px" y="0px"
	 viewBox="0 0 510.715 510.715" style="enable-background:new 0 0 510.715 510.715;" xml:space="preserve">
<g>
	<path d="M504.038,3.915c-5.096-5.094-12.915-5.233-18.188-0.323l-66.147,61.585c-40.836-34.112-95.72-43.357-137.617-21.989
		c-10.167,5.183-17.708,14.017-21.231,24.875c-3.524,10.858-2.609,22.437,2.578,32.605c7.546,14.791,22.576,23.314,38.141,23.313
		c6.524,0,13.145-1.499,19.343-4.66c9.661-4.926,23.699-1.487,35.123,5.15l-76.15,70.881l-35.721-85.73
		c-2.337-5.611-8.245-8.366-14.046-6.553c-5.801,1.813-9.087,7.443-7.813,13.386l23.963,111.827L7.561,456.089
		c-3.046,2.905-4.751,6.823-4.802,11.032c-0.05,4.21,1.562,8.167,4.539,11.145l27.909,27.909c2.896,2.896,6.876,4.54,10.965,4.54
		c0.105,0,0.21-0.001,0.316-0.003c4.199-0.087,8.239-1.91,11.083-5l324.694-352.72c5.834,12.464,5.665,23.873,2.466,30.146
		c-8.443,16.555-5.294,36.5,7.837,49.632c3.157,3.157,6.795,5.799,10.815,7.853c6.101,3.112,12.71,4.686,19.367,4.686
		c4.437,0,8.895-0.699,13.237-2.108c10.858-3.524,19.692-11.064,24.875-21.23c20.616-40.423,12.736-92.932-18.476-133.253
		l61.98-66.614C509.275,16.828,509.134,9.009,504.038,3.915z M46.535,495.553c-0.04,0.043-0.145,0.157-0.357,0.162
		c-0.2-0.005-0.323-0.105-0.364-0.146l-27.909-27.909c-0.037-0.037-0.149-0.149-0.146-0.36c0.002-0.21,0.117-0.319,0.157-0.357
		L259.66,236.237c1.886-1.8,2.702-4.449,2.156-6.997l-16.88-78.773l25.251,60.602c0.944,2.266,2.937,3.926,5.336,4.446
		c2.399,0.52,4.9-0.168,6.697-1.84l90.496-84.233c0.286-0.229,0.557-0.481,0.812-0.756l3.416-3.179l5.207,5.465l-3.341,3.629
		c-0.477,0.401-0.885,0.856-1.237,1.344L46.535,495.553z M447.5,215.156c-3.363,6.597-9.095,11.49-16.142,13.776
		c-7.046,2.287-14.561,1.694-21.154-1.67c-2.617-1.337-4.982-3.052-7.028-5.099c-8.52-8.52-10.562-21.465-5.081-32.211
		c6.586-12.916,4.485-31.885-5.04-48.681l4.888-5.31c2.676-2.907,2.638-7.393-0.088-10.253l-15.167-15.917
		c-2.834-2.974-7.532-3.115-10.54-0.316l-4.727,4.4c-17.859-11.863-39.055-15.19-53.322-7.917
		c-13.621,6.947-30.357,1.518-37.308-12.105c-3.365-6.598-3.959-14.112-1.672-21.158c2.287-7.046,7.18-12.779,13.778-16.143
		c38.192-19.479,89.176-9.422,125.901,24.25c0.068,0.063,0.136,0.126,0.207,0.186c1.393,1.282,2.771,2.588,4.121,3.938
		C456.089,121.886,467.757,175.438,447.5,215.156z M432.565,77.253c-0.596-0.629-1.199-1.253-1.807-1.873l26.551-24.72
		L432.565,77.253z"/>
	<path d="M348.251,65.257c-5.629-1.023-11.306-1.542-16.871-1.542c-4.142,0-7.5,3.358-7.5,7.5s3.358,7.5,7.5,7.5
		c4.667,0,9.441,0.438,14.188,1.301c0.454,0.082,0.905,0.122,1.35,0.122c3.555,0,6.712-2.538,7.37-6.16
		C355.03,69.902,352.327,65.998,348.251,65.257z"/>
	<path d="M376.201,74.624c-3.711-1.842-8.211-0.327-10.053,3.383c-1.842,3.71-0.327,8.211,3.383,10.053
		c9.852,4.891,18.926,11.449,26.97,19.493c5.837,5.838,10.955,12.372,15.211,19.422c1.409,2.334,3.887,3.625,6.428,3.625
		c1.319,0,2.657-0.349,3.869-1.081c3.546-2.141,4.685-6.751,2.544-10.297c-4.882-8.086-10.751-15.581-17.446-22.275
		C397.911,87.75,387.513,80.24,376.201,74.624z"/>
</g>
<g>
</g>
<g>
</g>
<g>
</g>
<g>
</g>
<g>
</g>
<g>
</g>
<g>
</g>
<g>
</g>
<g>
</g>
<g>
</g>
<g>
</g>
<g>
</g>
<g>
</g>
<g>
</g>
<g>
</g>
</svg>
