<?xml version="1.0" encoding="iso-8859-1"?>
<!-- Generator: Adobe Illustrator 17.1.0, SVG Export Plug-In . SVG Version: 6.00 Build 0)  -->
<!DOCTYPE svg PUBLIC "-//W3C//DTD SVG 1.1//EN" "http://www.w3.org/Graphics/SVG/1.1/DTD/svg11.dtd">
<svg version="1.1" id="Capa_1" xmlns="http://www.w3.org/2000/svg" xmlns:xlink="http://www.w3.org/1999/xlink" x="0px" y="0px"
	 viewBox="0 0 511.056 511.056" style="enable-background:new 0 0 511.056 511.056;" xml:space="preserve">
<g>
	<path d="M501.718,13.879l-4.653-4.653C491.115,3.276,483.205,0,474.791,0c-8.414,0-16.324,3.276-22.273,9.226l-33.146,33.146
		c-5.905,5.904-9.172,13.741-9.221,22.084L299.142,175.464c-41.073-26.105-92.511-22.696-124.038,8.832
		c-4.027,4.027-7.672,8.458-10.833,13.168c-13.968,20.817-37.115,35.286-65.178,40.743c-24.288,4.723-46.164,16.257-63.265,33.358
		c-51.048,51.048-46.872,138.286,9.309,194.467c29.856,29.856,68.479,45.026,105.785,45.024
		c32.893-0.001,64.763-11.796,88.682-35.715c17.101-17.101,28.635-38.977,33.358-63.265c5.457-28.062,19.926-51.209,40.743-65.178
		c4.71-3.161,9.141-6.806,13.168-10.833c31.753-31.752,35.008-83.137,8.644-124.311l110.959-110.959
		c8.348-0.045,16.19-3.314,22.098-9.222l33.146-33.146c5.95-5.949,9.226-13.86,9.226-22.273
		C510.944,27.739,507.668,19.829,501.718,13.879z M250.513,275.543c-1.929-2.986-4.178-5.795-6.751-8.368
		c-2.594-2.594-5.407-4.835-8.374-6.745L414.755,81.064c1.288,2.102,2.829,4.069,4.617,5.856l4.653,4.653
		c1.785,1.785,3.749,3.324,5.848,4.611L250.513,275.543z M233.155,277.782c6.683,6.683,10.363,15.569,10.363,25.02
		c0,9.451-3.68,18.336-10.363,25.02s-15.568,10.363-25.02,10.363c-9.451,0-18.336-3.68-25.02-10.363
		c-13.795-13.795-13.795-36.243,0-50.039c6.899-6.898,15.958-10.347,25.02-10.347C217.196,267.435,226.258,270.885,233.155,277.782z
		 M316.266,325.458c-3.341,3.341-7.015,6.364-10.92,8.984c-24.155,16.208-40.885,42.763-47.109,74.771
		c-4.149,21.343-14.261,40.542-29.24,55.521c-45.2,45.199-122.921,41.023-173.254-9.309C5.41,405.092,1.234,327.371,46.434,282.171
		c14.979-14.979,34.178-25.09,55.521-29.24c32.008-6.224,58.562-22.955,74.771-47.109c2.62-3.905,5.643-7.579,8.984-10.92
		c25.818-25.817,67.885-28.969,102.527-8.533L220.6,254.005c-16.662-4.227-35.078,0.157-48.09,13.17
		c-19.644,19.645-19.644,51.608,0,71.252c9.516,9.516,22.168,14.757,35.626,14.757c13.458,0,26.11-5.241,35.626-14.757
		c9.516-9.516,14.757-22.168,14.757-35.626c0-4.271-0.532-8.459-1.557-12.494l67.664-67.664
		C345.31,257.376,342.284,299.439,316.266,325.458z M491.111,47.82l-33.146,33.146c-5.386,5.386-13.592,6.245-19.899,2.613
		l34.775-34.775c2.929-2.929,2.929-7.678,0-10.606c-2.929-2.929-7.678-2.929-10.606,0l-34.799,34.799
		c-3.713-6.323-2.879-14.598,2.541-20.019l33.146-33.146c3.217-3.217,7.442-4.825,11.667-4.825c4.225,0,8.45,1.608,11.667,4.825
		l4.653,4.653C497.544,30.919,497.544,41.387,491.111,47.82z"/>
	<path d="M187.152,421.963c1.919,0,3.839-0.732,5.303-2.197c2.929-2.929,2.929-7.678,0-10.606l-88-88
		c-2.929-2.929-7.678-2.929-10.606,0c-2.929,2.929-2.929,7.678,0,10.606l88,88C183.313,421.23,185.232,421.963,187.152,421.963z"/>
	<path d="M235.619,397.174c-4.066-0.789-8.003,1.865-8.794,5.931c-1.17,6.02-3.018,11.842-5.491,17.307
		c-1.708,3.773-0.033,8.217,3.741,9.925c1.003,0.455,2.054,0.669,3.088,0.669c2.855,0,5.583-1.639,6.837-4.41
		c2.954-6.525,5.157-13.466,6.55-20.628C242.34,401.902,239.685,397.965,235.619,397.174z"/>
	<path d="M206.369,442.106c-14.201,14.201-33.899,22.022-55.465,22.022c-4.142,0-7.5,3.358-7.5,7.5s3.358,7.5,7.5,7.5
		c25.573,0,49.038-9.381,66.072-26.416c2.929-2.929,2.929-7.678,0-10.606C214.047,439.177,209.298,439.178,206.369,442.106z"/>
</g>
<g>
</g>
<g>
</g>
<g>
</g>
<g>
</g>
<g>
</g>
<g>
</g>
<g>
</g>
<g>
</g>
<g>
</g>
<g>
</g>
<g>
</g>
<g>
</g>
<g>
</g>
<g>
</g>
<g>
</g>
</svg>
