<?xml version="1.0" encoding="iso-8859-1"?>
<!-- Generator: Adobe Illustrator 17.1.0, SVG Export Plug-In . SVG Version: 6.00 Build 0)  -->
<!DOCTYPE svg PUBLIC "-//W3C//DTD SVG 1.1//EN" "http://www.w3.org/Graphics/SVG/1.1/DTD/svg11.dtd">
<svg version="1.1" id="Capa_1" xmlns="http://www.w3.org/2000/svg" xmlns:xlink="http://www.w3.org/1999/xlink" x="0px" y="0px"
	 viewBox="0 0 511 511" style="enable-background:new 0 0 511 511;" xml:space="preserve">
<path d="M503.5,391.398h-3.983L350.683,168.127c-6.963-10.445-18.615-16.682-31.169-16.682c-12.553,0-24.205,6.236-31.168,16.682
	l-8.935,13.404l-39.016-61.066c-6.346-9.933-17.172-15.863-28.959-15.863c-11.787,0-22.613,5.93-28.959,15.863L9.378,391.388H7.5
	c-4.142,0-7.5,3.357-7.5,7.5s3.358,7.5,7.5,7.5l496,0.01c4.142,0,7.5-3.358,7.5-7.5C511,394.756,507.642,391.398,503.5,391.398z
	 M288.531,194.892l12.295-18.445c4.237-6.356,11.048-10.002,18.688-10.002s14.451,3.646,18.688,10.002l61.201,91.81
	c-1.792,1.581-3.69,3.011-5.695,4.241c-3.531,2.166-4.638,6.783-2.472,10.314c1.415,2.308,3.878,3.58,6.4,3.58
	c1.337,0,2.691-0.357,3.914-1.108c2.17-1.331,4.249-2.826,6.234-4.454l73.705,110.567l-67.994-0.001l-62.838-98.352
	c5.55,0.855,10.867,1.286,15.913,1.286c0.34,0,0.68-0.002,1.017-0.006c4.142-0.048,7.46-3.445,7.413-7.587
	c-0.048-4.142-3.488-7.448-7.586-7.412c-8.399,0.092-17.853-1.274-28.103-4.04l-51.094-79.97
	C288.324,195.177,288.432,195.04,288.531,194.892z M119.233,247.308c7.818,13.99,22.802,23.223,39.491,23.223
	c11.932,0,23.053-4.555,31.419-12.691c13.08,8.487,46.823,28.611,80.168,33.937c0.401,0.064,0.799,0.095,1.192,0.095
	c3.621,0,6.808-2.629,7.397-6.318c0.653-4.09-2.133-7.936-6.223-8.589c-38.178-6.098-79.05-34.838-79.457-35.126
	c-3.314-2.354-7.899-1.639-10.34,1.611c-5.765,7.678-14.569,12.081-24.157,12.081c-14.204,0-26.555-10.002-29.518-23.833
	l65.909-103.157c3.629-5.681,9.577-8.939,16.318-8.939c6.742,0,12.689,3.258,16.319,8.939l88.938,139.201
	c-4.362,3.867-9.385,6.612-15.282,8.322c-3.979,1.153-6.269,5.313-5.116,9.291c0.951,3.281,3.947,5.414,7.2,5.414
	c0.691,0,1.394-0.096,2.091-0.298c7.197-2.086,13.647-5.433,19.258-9.971l70.853,110.896l-368.517-0.008L119.233,247.308z"/>
<g>
</g>
<g>
</g>
<g>
</g>
<g>
</g>
<g>
</g>
<g>
</g>
<g>
</g>
<g>
</g>
<g>
</g>
<g>
</g>
<g>
</g>
<g>
</g>
<g>
</g>
<g>
</g>
<g>
</g>
</svg>
