<?xml version="1.0" encoding="iso-8859-1"?>
<!-- Generator: Adobe Illustrator 17.1.0, SVG Export Plug-In . SVG Version: 6.00 Build 0)  -->
<!DOCTYPE svg PUBLIC "-//W3C//DTD SVG 1.1//EN" "http://www.w3.org/Graphics/SVG/1.1/DTD/svg11.dtd">
<svg version="1.1" id="Capa_1" xmlns="http://www.w3.org/2000/svg" xmlns:xlink="http://www.w3.org/1999/xlink" x="0px" y="0px"
	 viewBox="0 0 510.715 510.715" style="enable-background:new 0 0 510.715 510.715;" xml:space="preserve">
<g>
	<path d="M504.038,3.915c-5.096-5.094-12.915-5.234-18.188-0.323l-67.941,63.256l-9.003-9.003
		c-4.895-4.895-11.655-7.373-18.555-6.803c-6.898,0.571-13.162,4.128-17.185,9.761l-16.58,23.212l-15.527,11.091
		c-7.549,5.393-12.318,13.788-13.083,23.034c-0.747,9.021,2.408,17.864,8.655,24.382l-56.743,52.83l-35.721-85.729
		c-2.337-5.611-8.246-8.366-14.046-6.553c-5.801,1.813-9.087,7.443-7.813,13.386l23.963,111.827L7.562,456.089
		c-3.046,2.905-4.751,6.823-4.802,11.032c-0.05,4.21,1.562,8.167,4.539,11.145l27.909,27.909c2.896,2.896,6.876,4.54,10.965,4.54
		c0.105,0,0.21-0.001,0.316-0.003c4.199-0.087,8.239-1.91,11.082-4.998l308.103-334.491c6.963,5.556,15.533,8.58,24.573,8.58
		c10.551,0,20.47-4.109,27.93-11.569l33.941-33.941c4.438-4.438,6.883-10.34,6.883-16.617c0-6.277-2.445-12.179-6.883-16.617
		L441.13,90.069l63.238-67.966C509.275,16.828,509.134,9.009,504.038,3.915z M46.536,495.553c-0.04,0.043-0.145,0.157-0.357,0.162
		c-0.213,0.005-0.322-0.105-0.364-0.146l-27.909-27.909c-0.037-0.037-0.149-0.149-0.146-0.36c0.002-0.21,0.117-0.319,0.157-0.357
		L259.66,236.237c1.886-1.799,2.702-4.449,2.156-6.997l-16.88-78.773l25.251,60.602c0.944,2.266,2.937,3.927,5.336,4.446
		c2.399,0.519,4.9-0.169,6.697-1.841l65.01-60.526l7.651,7.651L46.536,495.553z M444.001,117.674c0,2.27-0.884,4.405-2.49,6.01
		l-33.941,33.941c-4.627,4.627-10.78,7.176-17.324,7.176c-6.544,0-12.697-2.548-17.324-7.176L347.7,132.404
		c-3.436-3.436-5.177-8.185-4.776-13.028c0.401-4.843,2.899-9.241,6.854-12.066l16.544-11.817c0.673-0.481,1.263-1.07,1.744-1.744
		l17.306-24.229c1.477-2.067,3.684-3.321,6.216-3.531c0.247-0.021,0.492-0.031,0.735-0.031c2.255,0,4.355,0.87,5.977,2.491
		l43.213,43.213C443.117,113.269,444.001,115.404,444.001,117.674z M430.516,79.456l-1.994-1.994l28.788-26.803L430.516,79.456z"/>
	<path d="M386.143,146.48c1.464,1.465,3.384,2.197,5.303,2.197c1.919,0,3.839-0.732,5.303-2.197l24.186-24.185
		c2.929-2.929,2.929-7.677,0-10.606c-2.928-2.929-7.677-2.929-10.606,0l-24.186,24.185
		C383.213,138.803,383.213,143.551,386.143,146.48z"/>
</g>
<g>
</g>
<g>
</g>
<g>
</g>
<g>
</g>
<g>
</g>
<g>
</g>
<g>
</g>
<g>
</g>
<g>
</g>
<g>
</g>
<g>
</g>
<g>
</g>
<g>
</g>
<g>
</g>
<g>
</g>
</svg>
