<?xml version="1.0" encoding="iso-8859-1"?>
<!-- Generator: Adobe Illustrator 17.1.0, SVG Export Plug-In . SVG Version: 6.00 Build 0)  -->
<!DOCTYPE svg PUBLIC "-//W3C//DTD SVG 1.1//EN" "http://www.w3.org/Graphics/SVG/1.1/DTD/svg11.dtd">
<svg version="1.1" id="Capa_1" xmlns="http://www.w3.org/2000/svg" xmlns:xlink="http://www.w3.org/1999/xlink" x="0px" y="0px"
	 viewBox="0 0 504.902 504.902" style="enable-background:new 0 0 504.902 504.902;" xml:space="preserve">
<g>
	<path d="M340.441,406.027c0.478,0,0.963-0.046,1.45-0.142l8.009-1.568c4.065-0.796,6.715-4.737,5.919-8.802
		c-0.797-4.065-4.74-6.715-8.802-5.919l-8.009,1.569c-4.065,0.796-6.715,4.737-5.919,8.802
		C333.79,403.545,336.926,406.027,340.441,406.027z"/>
	<path d="M292.443,415.428c0.478,0,0.963-0.046,1.45-0.142l16.005-3.135c4.065-0.796,6.715-4.736,5.919-8.802
		c-0.796-4.064-4.738-6.714-8.802-5.918l-16.005,3.135c-4.065,0.796-6.715,4.736-5.919,8.802
		C285.792,412.946,288.929,415.428,292.443,415.428z"/>
	<path d="M492.38,425.44l-34.439-6.746l34.439-6.746c8.387-1.643,13.874-9.803,12.231-18.19l-9.227-47.104
		c-0.794-4.054-3.126-7.562-6.568-9.875c-3.44-2.314-7.57-3.15-11.623-2.356l-224.743,44.022L27.708,334.421
		c-4.055-0.794-8.182,0.043-11.623,2.356c-3.441,2.314-5.773,5.821-6.567,9.875l-9.227,47.105
		c-1.643,8.387,3.844,16.547,12.231,18.19l34.439,6.746l-34.439,6.746c-8.387,1.643-13.875,9.803-12.232,18.19l9.227,47.104
		c0.794,4.054,3.126,7.562,6.567,9.875c2.593,1.744,5.576,2.649,8.625,2.649c0.996,0,2-0.097,2.998-0.292l224.743-44.021
		l224.743,44.021c0.999,0.195,2.002,0.292,2.999,0.292c3.048,0,6.032-0.904,8.625-2.648c3.441-2.313,5.773-5.821,6.568-9.875
		l9.227-47.105C506.254,435.242,500.767,427.082,492.38,425.44z M85.891,411.034l-70.485-13.807
		c-0.252-0.049-0.444-0.335-0.395-0.587l3.262-16.652l56.736,11.113c0.487,0.096,0.972,0.142,1.45,0.142
		c3.513,0,6.651-2.482,7.352-6.06c0.796-4.065-1.854-8.005-5.918-8.802l-56.737-11.113l3.082-15.732
		c0.024-0.126,0.098-0.23,0.217-0.311c0.119-0.08,0.243-0.108,0.369-0.083l188.61,36.944L85.968,411.053
		C85.942,411.048,85.917,411.039,85.891,411.034z M24.824,488.246c-0.125,0.025-0.25-0.003-0.369-0.083
		c-0.119-0.08-0.192-0.185-0.217-0.311l-9.227-47.104c-0.05-0.252,0.142-0.538,0.394-0.587l238.549-46.726
		c0.017-0.004,0.034-0.007,0.051-0.01l226.072-44.282c0.03-0.005,0.059-0.008,0.088-0.008c0.096,0,0.19,0.031,0.282,0.092
		c0.119,0.08,0.192,0.185,0.217,0.311l2.619,13.368L379.007,383.33c-4.064,0.796-6.714,4.737-5.918,8.802
		c0.701,3.578,3.838,6.06,7.352,6.06c0.478,0,0.963-0.046,1.45-0.142l104.275-20.425l3.725,19.016
		c0.05,0.252-0.142,0.538-0.394,0.587l-238.565,46.729c-0.008,0.002-0.017,0.003-0.025,0.005L24.824,488.246z M480.664,487.851
		c-0.024,0.126-0.098,0.23-0.217,0.311c-0.12,0.08-0.245,0.108-0.37,0.083l-188.61-36.944l127.467-24.968
		c0.026,0.005,0.051,0.014,0.077,0.019l70.485,13.806c0.252,0.05,0.444,0.335,0.394,0.587L480.664,487.851z"/>
	<path d="M252.451,352.644c62.033,0,112.5-50.467,112.5-112.5c0-44.65-17.707-83.658-32.562-108.519
		c-16.03-26.827-31.93-43.07-32.599-43.748c-1.403-1.423-3.316-2.227-5.314-2.233c-0.009,0-0.017,0-0.026,0
		c-1.989,0-3.896,0.79-5.303,2.197l-14.252,14.251c-20.708-38.377-15.056-91.538-14.993-92.103c0.353-3.107-1.259-6.106-4.044-7.526
		c-2.785-1.42-6.159-0.964-8.467,1.145c-34.947,31.935-63.631,74.325-82.951,122.589c-15.564,38.882-24.49,80.414-24.49,113.947
		C139.951,302.176,190.419,352.644,252.451,352.644z M178.367,131.771c15.937-39.813,38.477-75.398,65.72-103.946
		c-0.012,22.955,3.354,61.516,23.169,90.547c1.259,1.844,3.273,3.032,5.497,3.24c2.223,0.206,4.423-0.586,6.001-2.165l15.419-15.419
		c14.61,16.994,55.777,70.695,55.777,136.116c0,53.762-43.738,97.5-97.5,97.5s-97.5-43.738-97.5-97.5
		C154.951,208.447,163.486,168.947,178.367,131.771z"/>
	<path d="M212.451,280.644c4.142,0,7.5-3.358,7.5-7.5c0-8.979,5.187-16.605,13.038-28.15c6.621-9.735,14.57-21.424,21.846-37.81
		c1.487,1.872,3.135,4.019,4.875,6.4c2.443,3.345,7.136,4.076,10.48,1.633c3.345-2.443,4.076-7.135,1.633-10.48
		c-4.025-5.513-7.444-9.661-9.603-12.17c-4.278-4.973-6.421-7.468-10.795-6.859c-2.734,0.381-5.047,2.24-6.006,4.828
		c-7.752,20.907-17.223,34.833-24.833,46.022c-8.735,12.844-15.635,22.989-15.635,36.585
		C204.951,277.286,208.309,280.644,212.451,280.644z"/>
	<path d="M284.951,273.144c0,17.921-14.58,32.5-32.5,32.5c-10.328,0-19.811-4.746-26.018-13.02c-2.486-3.313-7.186-3.985-10.5-1.499
		c-3.313,2.485-3.984,7.187-1.499,10.5c9.067,12.087,22.924,19.019,38.017,19.019c26.191,0,47.5-21.309,47.5-47.5
		c0-12.874-4.216-27.507-12.532-43.494c-1.912-3.674-6.44-5.104-10.115-3.192c-3.675,1.911-5.104,6.44-3.193,10.115
		C281.304,250.4,284.951,262.704,284.951,273.144z"/>
</g>
<g>
</g>
<g>
</g>
<g>
</g>
<g>
</g>
<g>
</g>
<g>
</g>
<g>
</g>
<g>
</g>
<g>
</g>
<g>
</g>
<g>
</g>
<g>
</g>
<g>
</g>
<g>
</g>
<g>
</g>
</svg>
