<?xml version="1.0" encoding="iso-8859-1"?>
<!-- Generator: Adobe Illustrator 17.1.0, SVG Export Plug-In . SVG Version: 6.00 Build 0)  -->
<!DOCTYPE svg PUBLIC "-//W3C//DTD SVG 1.1//EN" "http://www.w3.org/Graphics/SVG/1.1/DTD/svg11.dtd">
<svg version="1.1" id="Capa_1" xmlns="http://www.w3.org/2000/svg" xmlns:xlink="http://www.w3.org/1999/xlink" x="0px" y="0px"
	 viewBox="0 0 511 511" style="enable-background:new 0 0 511 511;" xml:space="preserve">
<path d="M503.5,399.999h-10.312l-54.466-194.522c-0.597-2.131-2.104-3.89-4.119-4.805L263,122.67v-19.171c0-4.142-3.358-7.5-7.5-7.5
	s-7.5,3.358-7.5,7.5v19.171L76.396,200.671c-2.015,0.916-3.522,2.674-4.119,4.805L17.812,399.999H7.5c-4.142,0-7.5,3.358-7.5,7.5
	s3.358,7.5,7.5,7.5h135.997c0.003,0,0.006,0,0.009,0c0.002,0,0.004,0,0.006,0h0.106c0.01,0,0.02,0,0.03,0h223.837
	c0.007,0,0.014,0.001,0.022,0.001c0.008,0,0.017-0.001,0.025-0.001h119.941c0.008,0,0.016,0.002,0.024,0.002
	c0.009,0,0.019-0.002,0.029-0.002H503.5c4.142,0,7.5-3.358,7.5-7.5S507.642,399.999,503.5,399.999z M425.219,212.882l52.393,187.117
	h-94.777l46.585-59.896c1.458-1.874,1.942-4.326,1.306-6.612c-0.635-2.287-2.315-4.138-4.53-4.991
	C345.78,297.525,273.785,203.577,263,189.044v-49.898L425.219,212.882z M248,222.256v177.243c0,0.169,0.014,0.334,0.025,0.5h-92.188
	L248,222.256z M142.232,393.652l-42.767-54.987c35.584-15.708,72.93-43.566,111.166-82.941c2.347-2.417,4.618-4.801,6.829-7.154
	L142.232,393.652z M263,399.499V222.256l92.163,177.743h-92.188C262.986,399.833,263,399.668,263,399.499z M293.541,248.57
	c2.211,2.353,4.482,4.738,6.829,7.154c38.236,39.375,75.582,67.233,111.166,82.941l-42.767,54.987L293.541,248.57z M85.781,212.882
	L248,139.146v49.899C237.224,203.576,165.294,297.497,84.804,328.5c-2.215,0.853-3.895,2.704-4.53,4.991
	c-0.636,2.287-0.151,4.739,1.306,6.612l46.585,59.896H33.388L85.781,212.882z"/>
<g>
</g>
<g>
</g>
<g>
</g>
<g>
</g>
<g>
</g>
<g>
</g>
<g>
</g>
<g>
</g>
<g>
</g>
<g>
</g>
<g>
</g>
<g>
</g>
<g>
</g>
<g>
</g>
<g>
</g>
</svg>
