<?xml version="1.0" encoding="iso-8859-1"?>
<!-- Generator: Adobe Illustrator 17.1.0, SVG Export Plug-In . SVG Version: 6.00 Build 0)  -->
<!DOCTYPE svg PUBLIC "-//W3C//DTD SVG 1.1//EN" "http://www.w3.org/Graphics/SVG/1.1/DTD/svg11.dtd">
<svg version="1.1" id="Capa_1" xmlns="http://www.w3.org/2000/svg" xmlns:xlink="http://www.w3.org/1999/xlink" x="0px" y="0px"
	 viewBox="0 0 511.177 511.177" style="enable-background:new 0 0 511.177 511.177;" xml:space="preserve">
<g>
	<path d="M169.073,339.93c-2.121-0.163-3.986-0.322-5.808-0.477c-2.927-0.25-5.692-0.485-9.225-0.716
		c-4.126-0.261-7.702,2.864-7.972,6.997c-0.269,4.133,2.864,7.702,6.997,7.972c3.382,0.22,6.074,0.45,8.924,0.693
		c1.863,0.159,3.769,0.321,5.938,0.487c0.195,0.015,0.388,0.022,0.581,0.022c3.882,0,7.169-2.993,7.47-6.928
		C176.294,343.851,173.203,340.246,169.073,339.93z"/>
	<path d="M510.969,350.959c-0.201-2.188-1.351-4.177-3.147-5.443c-1.39-0.98-3.057-1.445-4.729-1.353
		c0.253-18.764-0.141-50.357-19.537-62.827c-12.241-7.869-35.952-7.606-65.974-7.271c-27.142,0.302-58.455,0.646-84.964-5.365
		c0.548-2.961-0.723-6.086-3.442-7.757c-3.53-2.169-8.148-1.065-10.316,2.464l-0.71,1.155c-6.605-2.344-12.72-5.256-18.191-8.84
		l1.755-2.127c2.636-3.195,2.183-7.922-1.012-10.559c-3.195-2.637-7.922-2.183-10.559,1.012l-1.745,2.115
		c-4.148-4.124-8.157-8.748-12.023-13.755l1.605-1.129c3.388-2.383,4.203-7.061,1.819-10.449c-2.382-3.388-7.061-4.202-10.449-1.819
		l-1.681,1.182c-3.673-5.562-7.196-11.404-10.566-17.402l1.036-0.39c3.877-1.458,5.837-5.783,4.379-9.66
		c-1.458-3.877-5.784-5.837-9.66-4.379l-2.892,1.088c-2.867-5.61-5.605-11.264-8.208-16.869c3.438-1.187,5.596-4.727,4.927-8.417
		c-0.739-4.076-4.645-6.776-8.718-6.041l-2.504,0.454c-2.406-5.517-4.673-10.89-6.795-16.023c2.691-1.139,4.58-3.804,4.58-6.91
		c0-4.142-3.358-7.5-7.5-7.5h-2.953c-0.352-0.873-0.704-1.746-1.046-2.593c-10.07-24.981-13.495-33.021-18.53-35.897
		c-3.122-1.784-7.006-4.004-75.344,4.909c-36.775,4.796-79.175,11.156-101.176,14.52C11.23,111.45,0,124.543,0,140.217V166.9
		c0,12.809,3.813,25.174,11.026,35.759l4.718,6.923c-1.458,13.623-7.64,74.777-7.741,132.624C3.073,346.499,0,352.74,0,359.734
		v55.911c0,4.142,3.358,7.5,7.5,7.5h144c4.142,0,7.5-3.377,7.5-7.52c0-2.006,0.813-3.848,2.289-5.188
		c1.463-1.328,3.356-1.952,5.328-1.764c44.875,4.351,155.062,14.471,208.884,14.471c65.57,0,97.983-2.55,116.71-17.664
		C514.084,387.829,511.106,352.457,510.969,350.959z M482.79,393.809C467.684,406,436.157,408.146,375.5,408.146
		c-53.167,0-162.778-10.071-207.437-14.4c-6.148-0.595-12.29,1.44-16.857,5.587c-2.676,2.429-4.685,5.467-5.893,8.813H15v-48.411
		c0-4.643,3.929-8.378,8.944-8.504c32.989-0.823,64.38-0.591,95.968,0.711c4.146,0.174,7.632-3.046,7.803-7.185
		s-3.046-7.632-7.185-7.803c-31.923-1.316-63.64-1.552-96.961-0.719c-0.18,0.004-0.356,0.018-0.535,0.026
		c0.449-50.889,5.35-103.035,7.208-121.116h113.032c12.107,0,23.374-5.434,30.912-14.909s10.299-21.675,7.577-33.473l-9.284-40.229
		c-0.932-4.036-4.961-6.553-8.995-5.622c-4.036,0.932-6.553,4.958-5.622,8.995l9.284,40.229c1.688,7.317-0.024,14.885-4.7,20.762
		s-11.664,9.248-19.173,9.248H27.465l-4.043-5.934C17.912,186.127,15,176.683,15,166.9v-26.683c0-8.21,5.875-15.068,13.969-16.305
		c107.796-16.482,156.374-21.52,166.625-20.896c2.35,3.795,6.804,14.667,11.028,25.129h-4.873c-4.142,0-7.5,3.358-7.5,7.5
		s3.358,7.5,7.5,7.5h10.944c2.346,5.742,4.885,11.851,7.614,18.182l-5.953,1.08c-4.076,0.739-6.78,4.642-6.041,8.718
		c0.657,3.624,3.814,6.163,7.371,6.163c0.444,0,0.895-0.04,1.347-0.122l9.532-1.729c2.917,6.381,6.014,12.866,9.288,19.324
		l-5.455,2.052c-3.877,1.458-5.837,5.783-4.379,9.66c1.131,3.007,3.987,4.861,7.021,4.861c0.877,0,1.77-0.155,2.64-0.482
		l7.249-2.727c3.942,7.113,8.103,14.073,12.488,20.689l-5.693,4.004c-3.388,2.383-4.203,7.061-1.819,10.449
		c1.46,2.076,3.782,3.186,6.141,3.186c1.491,0,2.997-0.443,4.309-1.366l5.752-4.046c4.681,6.115,9.586,11.754,14.709,16.741
		l-3.943,4.778c-2.636,3.195-2.183,7.922,1.012,10.559c1.398,1.153,3.088,1.715,4.769,1.715c2.161,0,4.307-0.93,5.79-2.727
		l3.927-4.76c6.041,4.131,12.686,7.502,19.783,10.234l-3.855,6.274c-2.168,3.529-1.065,8.148,2.464,10.316
		c1.225,0.752,2.58,1.111,3.919,1.111c2.521,0,4.981-1.27,6.397-3.575l5.813-9.462c29.241,7.513,63.37,7.146,92.859,6.817
		c24.208-0.27,49.237-0.548,57.695,4.889c13.302,8.551,12.836,38.285,12.612,52.574c-0.006,0.386-0.012,0.759-0.018,1.13
		c-81.566,18.587-143.089,11.338-219.896,2.263c-21.606-2.553-43.948-5.193-68.617-7.53c-4.129-0.379-7.783,2.636-8.174,6.76
		c-0.391,4.124,2.635,7.783,6.759,8.174c24.497,2.32,46.75,4.95,68.272,7.493c79.721,9.42,143.263,16.93,229.615-3.594
		C495.412,370.794,492.808,385.724,482.79,393.809z"/>
</g>
<g>
</g>
<g>
</g>
<g>
</g>
<g>
</g>
<g>
</g>
<g>
</g>
<g>
</g>
<g>
</g>
<g>
</g>
<g>
</g>
<g>
</g>
<g>
</g>
<g>
</g>
<g>
</g>
<g>
</g>
</svg>
