<?xml version="1.0" encoding="iso-8859-1"?>
<!-- Generator: Adobe Illustrator 17.1.0, SVG Export Plug-In . SVG Version: 6.00 Build 0)  -->
<!DOCTYPE svg PUBLIC "-//W3C//DTD SVG 1.1//EN" "http://www.w3.org/Graphics/SVG/1.1/DTD/svg11.dtd">
<svg version="1.1" id="Capa_1" xmlns="http://www.w3.org/2000/svg" xmlns:xlink="http://www.w3.org/1999/xlink" x="0px" y="0px"
	 viewBox="0 0 511.001 511.001" style="enable-background:new 0 0 511.001 511.001;" xml:space="preserve">
<g>
	<path d="M383.501,248h-104.5v-41h0.5c4.142,0,7.5-3.358,7.5-7.5v-168c0-17.369-14.131-31.5-31.5-31.5s-31.5,14.131-31.5,31.5v168
		c0,4.142,3.358,7.5,7.5,7.5h0.5v41h-104.5c-4.142,0-7.5,3.358-7.5,7.5s3.358,7.5,7.5,7.5h8.5v120.5
		c0,62.393,111.166,123.987,115.897,126.578c0.127,0.069,0.258,0.12,0.386,0.181c0.135,0.064,0.268,0.134,0.406,0.19
		c0.199,0.081,0.401,0.143,0.604,0.206c0.1,0.031,0.198,0.069,0.299,0.096c0.256,0.068,0.513,0.115,0.772,0.155
		c0.057,0.009,0.113,0.024,0.17,0.032c0.319,0.041,0.639,0.064,0.957,0.064c0.002,0,0.005,0,0.007,0s0.005,0,0.007,0
		c0.319,0,0.638-0.023,0.958-0.064c0.056-0.007,0.111-0.022,0.167-0.031c0.26-0.04,0.519-0.088,0.776-0.155
		c0.1-0.026,0.195-0.064,0.294-0.094c0.205-0.063,0.409-0.126,0.61-0.208c0.136-0.055,0.266-0.124,0.399-0.187
		c0.131-0.062,0.264-0.113,0.393-0.184c4.732-2.591,115.897-64.185,115.897-126.578V263h8.5c4.142,0,7.5-3.358,7.5-7.5
		S387.643,248,383.501,248z M239.001,263h33v80.5c0,9.098-7.402,16.5-16.5,16.5s-16.5-7.402-16.5-16.5V263z M239.001,31.5
		c0-9.098,7.402-16.5,16.5-16.5s16.5,7.402,16.5,16.5V192h-33V31.5z M247.001,207h17v41h-17V207z M360.001,383.5
		c0,21.61-18.347,47.904-53.056,76.039c-21.405,17.351-43.08,30.472-51.444,35.331c-8.364-4.858-30.039-17.98-51.444-35.331
		c-34.709-28.134-53.056-54.428-53.056-76.039V263h73v80.5c0,17.369,14.131,31.5,31.5,31.5s31.5-14.131,31.5-31.5V263h73V383.5z"/>
	<path d="M286.205,444.831c1.482,1.821,3.643,2.765,5.821,2.765c1.664,0,3.339-0.551,4.73-1.684
		c41.738-33.978,46.244-54.966,46.244-62.413v-48c0-4.142-3.358-7.5-7.5-7.5s-7.5,3.358-7.5,7.5v48c0,1.489-0.6,7.188-8.321,17.995
		c-7.165,10.029-18.366,21.365-32.393,32.785C284.074,436.895,283.59,441.619,286.205,444.831z"/>
	<path d="M335.501,311c4.142,0,7.5-3.358,7.5-7.5v-16c0-4.142-3.358-7.5-7.5-7.5s-7.5,3.358-7.5,7.5v16
		C328.001,307.643,331.359,311,335.501,311z"/>
</g>
<g>
</g>
<g>
</g>
<g>
</g>
<g>
</g>
<g>
</g>
<g>
</g>
<g>
</g>
<g>
</g>
<g>
</g>
<g>
</g>
<g>
</g>
<g>
</g>
<g>
</g>
<g>
</g>
<g>
</g>
</svg>
