<?xml version="1.0" encoding="iso-8859-1"?>
<!-- Generator: Adobe Illustrator 17.1.0, SVG Export Plug-In . SVG Version: 6.00 Build 0)  -->
<!DOCTYPE svg PUBLIC "-//W3C//DTD SVG 1.1//EN" "http://www.w3.org/Graphics/SVG/1.1/DTD/svg11.dtd">
<svg version="1.1" id="Capa_1" xmlns="http://www.w3.org/2000/svg" xmlns:xlink="http://www.w3.org/1999/xlink" x="0px" y="0px"
	 viewBox="0 0 511 511" style="enable-background:new 0 0 511 511;" xml:space="preserve">
<g>
	<path d="M407.881,143.118C368.952,104.189,317.749,82.003,263,80.143v-1.866c18.205-3.515,32-19.561,32-38.777
		C295,17.72,277.28,0,255.5,0S216,17.72,216,39.5c0,19.216,13.795,35.262,32,38.777v1.866
		c-54.749,1.861-105.952,24.046-144.881,62.975C62.416,183.821,40,237.938,40,295.5s22.416,111.679,63.119,152.381
		S197.938,511,255.5,511s111.679-22.416,152.381-63.119S471,353.062,471,295.5S448.584,183.821,407.881,143.118z M231,39.5
		c0-13.509,10.991-24.5,24.5-24.5S280,25.991,280,39.5c0,10.894-7.149,20.146-17,23.321V39.5c0-4.142-3.358-7.5-7.5-7.5
		s-7.5,3.358-7.5,7.5v23.321C238.149,59.646,231,50.394,231,39.5z M255.5,496C144.944,496,55,406.056,55,295.5S144.944,95,255.5,95
		S456,184.944,456,295.5S366.056,496,255.5,496z"/>
	<path d="M358.987,199.206c-0.006-0.147-0.009-0.295-0.023-0.443c-0.004-0.042-0.013-0.082-0.018-0.124
		c-0.065-0.563-0.198-1.124-0.396-1.673c-0.037-0.104-0.069-0.209-0.111-0.311c-0.028-0.067-0.063-0.133-0.093-0.2
		c-0.073-0.164-0.146-0.327-0.23-0.485c-0.005-0.009-0.008-0.018-0.012-0.026c-0.03-0.055-0.066-0.105-0.097-0.16
		c-0.088-0.155-0.177-0.308-0.277-0.457c-0.051-0.076-0.107-0.146-0.16-0.22c-0.09-0.125-0.18-0.25-0.279-0.37
		c-0.07-0.085-0.145-0.165-0.219-0.247c-0.089-0.099-0.177-0.199-0.272-0.294c-0.091-0.091-0.188-0.175-0.283-0.261
		c-0.085-0.077-0.168-0.155-0.258-0.229c-0.116-0.095-0.237-0.182-0.357-0.269c-0.078-0.057-0.153-0.116-0.233-0.169
		c-0.144-0.096-0.293-0.183-0.443-0.268c-0.058-0.033-0.111-0.071-0.171-0.103c-0.009-0.005-0.019-0.008-0.028-0.013
		c-0.15-0.08-0.305-0.149-0.459-0.218c-0.076-0.034-0.151-0.074-0.227-0.106c-0.078-0.032-0.158-0.055-0.236-0.084
		c-0.595-0.222-1.204-0.368-1.815-0.432c-0.017-0.002-0.033-0.005-0.05-0.007c-0.167-0.016-0.333-0.021-0.499-0.026
		c-0.079-0.003-0.158-0.011-0.237-0.011c-0.114,0-0.227,0.01-0.341,0.015c-0.133,0.006-0.265,0.008-0.397,0.021
		c-0.058,0.006-0.115,0.018-0.174,0.025c-0.508,0.062-1.014,0.178-1.511,0.349c-0.144,0.049-0.289,0.095-0.429,0.153
		c-0.05,0.021-0.099,0.047-0.148,0.069c-0.182,0.079-0.362,0.162-0.538,0.256c-0.007,0.004-0.014,0.006-0.02,0.01l-104,56
		c-0.471,0.254-0.902,0.552-1.295,0.884c-15.875,4.469-28.4,16.993-32.868,32.868c-0.333,0.393-0.631,0.824-0.885,1.295l-56,104
		c-0.005,0.009-0.008,0.018-0.012,0.026c-0.084,0.158-0.158,0.322-0.23,0.485c-0.03,0.067-0.065,0.133-0.093,0.2
		c-0.042,0.102-0.073,0.207-0.111,0.311c-0.198,0.549-0.331,1.11-0.396,1.673c-0.005,0.042-0.014,0.082-0.018,0.124
		c-0.014,0.148-0.017,0.295-0.023,0.443c-0.004,0.098-0.013,0.196-0.013,0.294c0,0.099,0.009,0.196,0.013,0.294
		c0.006,0.147,0.009,0.295,0.023,0.443c0.004,0.042,0.013,0.082,0.018,0.124c0.065,0.563,0.198,1.124,0.396,1.673
		c0.037,0.104,0.069,0.209,0.111,0.311c0.028,0.067,0.063,0.133,0.093,0.2c0.073,0.164,0.146,0.327,0.23,0.485
		c0.005,0.009,0.008,0.018,0.012,0.026c0.012,0.023,0.029,0.043,0.042,0.066c0.137,0.249,0.291,0.489,0.457,0.722
		c0.044,0.063,0.088,0.124,0.134,0.185c0.177,0.233,0.364,0.46,0.569,0.673c0.012,0.012,0.022,0.026,0.034,0.038
		c0.208,0.212,0.433,0.41,0.668,0.599c0.076,0.061,0.155,0.117,0.232,0.175c0.166,0.123,0.338,0.24,0.517,0.35
		c0.089,0.055,0.177,0.111,0.268,0.162c0.044,0.025,0.083,0.053,0.127,0.077c0.115,0.062,0.235,0.107,0.352,0.162
		c0.134,0.063,0.265,0.13,0.401,0.185c0.193,0.078,0.388,0.14,0.584,0.2c0.106,0.033,0.209,0.072,0.317,0.1
		c0.242,0.064,0.486,0.109,0.731,0.147c0.07,0.011,0.138,0.029,0.208,0.038c0.319,0.041,0.638,0.065,0.956,0.065
		c0.002,0,0.004,0,0.006,0s0.004,0,0.006,0c0.318,0,0.637-0.023,0.956-0.065c0.072-0.009,0.141-0.028,0.212-0.039
		c0.243-0.039,0.486-0.083,0.727-0.147c0.109-0.029,0.214-0.068,0.322-0.102c0.194-0.061,0.388-0.121,0.579-0.199
		c0.137-0.055,0.269-0.122,0.403-0.185c0.117-0.055,0.236-0.1,0.352-0.162l104-56c0.471-0.254,0.902-0.552,1.295-0.884
		c15.887-4.472,28.419-17.012,32.879-32.904c0.324-0.386,0.626-0.798,0.874-1.259l56-104c0.005-0.009,0.008-0.018,0.012-0.026
		c0.084-0.158,0.158-0.322,0.23-0.485c0.03-0.067,0.065-0.133,0.093-0.2c0.042-0.102,0.074-0.207,0.111-0.311
		c0.198-0.549,0.331-1.11,0.396-1.673c0.005-0.042,0.014-0.082,0.018-0.124c0.015-0.148,0.017-0.295,0.023-0.443
		c0.004-0.098,0.013-0.196,0.013-0.294C359,199.401,358.991,199.304,358.987,199.206z M271.856,250.903l61.188-32.947
		l-32.947,61.188C295.293,266.088,284.912,255.707,271.856,250.903z M239.144,340.097l-61.188,32.947l32.948-61.188
		C215.707,324.912,226.088,335.293,239.144,340.097z M255.5,328c-17.92,0-32.5-14.58-32.5-32.5s14.58-32.5,32.5-32.5
		s32.5,14.58,32.5,32.5S273.42,328,255.5,328z"/>
	<path d="M255.5,280c-8.547,0-15.5,6.953-15.5,15.5s6.953,15.5,15.5,15.5s15.5-6.953,15.5-15.5S264.047,280,255.5,280z M255.5,296
		c-0.276,0-0.5-0.224-0.5-0.5s0.224-0.5,0.5-0.5s0.5,0.224,0.5,0.5S255.776,296,255.5,296z"/>
	<path d="M422.984,220.418c-1.696-3.779-6.134-5.467-9.914-3.771c-3.779,1.697-5.467,6.135-3.771,9.914
		c9.754,21.726,14.7,44.92,14.7,68.938c0,92.911-75.589,168.5-168.5,168.5S87,388.411,87,295.5S162.589,127,255.5,127
		c34.937,0,68.445,10.593,96.902,30.633c3.386,2.386,8.065,1.573,10.45-1.813s1.573-8.065-1.813-10.45
		C330.04,123.539,293.545,112,255.5,112C154.318,112,72,194.318,72,295.5S154.318,479,255.5,479S439,396.682,439,295.5
		C439,269.35,433.611,244.089,422.984,220.418z"/>
	<path d="M391.451,195.934c1.47,2.003,3.746,3.064,6.053,3.064c1.54,0,3.094-0.473,4.431-1.453c3.34-2.45,4.061-7.144,1.611-10.484
		c-4.474-6.099-9.379-11.984-14.578-17.492c-2.843-3.012-7.589-3.15-10.602-0.306c-3.012,2.843-3.149,7.59-0.306,10.602
		C382.836,184.925,387.341,190.331,391.451,195.934z"/>
	<path d="M119.5,288c-4.142,0-7.5,3.358-7.5,7.5s3.358,7.5,7.5,7.5h24c4.142,0,7.5-3.358,7.5-7.5s-3.358-7.5-7.5-7.5H119.5z"/>
	<path d="M360,295.5c0,4.142,3.358,7.5,7.5,7.5h24c4.142,0,7.5-3.358,7.5-7.5s-3.358-7.5-7.5-7.5h-24
		C363.358,288,360,291.358,360,295.5z"/>
	<path d="M248.003,407.502v24c0,4.142,3.358,7.5,7.5,7.5s7.5-3.358,7.5-7.5v-24c0-4.142-3.358-7.5-7.5-7.5
		S248.003,403.36,248.003,407.502z"/>
	<path d="M263.003,183.502v-24c0-4.142-3.358-7.5-7.5-7.5s-7.5,3.358-7.5,7.5v24c0,4.142,3.358,7.5,7.5,7.5
		S263.003,187.644,263.003,183.502z"/>
</g>
<g>
</g>
<g>
</g>
<g>
</g>
<g>
</g>
<g>
</g>
<g>
</g>
<g>
</g>
<g>
</g>
<g>
</g>
<g>
</g>
<g>
</g>
<g>
</g>
<g>
</g>
<g>
</g>
<g>
</g>
</svg>
