<?xml version="1.0" encoding="iso-8859-1"?>
<!-- Generator: Adobe Illustrator 17.1.0, SVG Export Plug-In . SVG Version: 6.00 Build 0)  -->
<!DOCTYPE svg PUBLIC "-//W3C//DTD SVG 1.1//EN" "http://www.w3.org/Graphics/SVG/1.1/DTD/svg11.dtd">
<svg version="1.1" id="Capa_1" xmlns="http://www.w3.org/2000/svg" xmlns:xlink="http://www.w3.org/1999/xlink" x="0px" y="0px"
	 viewBox="0 0 479 479" style="enable-background:new 0 0 479 479;" xml:space="preserve">
<g>
	<path d="M455.5,0h-23.869c-0.002,0-0.004,0-0.006,0H23.5C19.358,0,16,3.358,16,7.5s3.358,7.5,7.5,7.5h17.347l23.169,192.824
		c0.018,0.421,0.064,0.835,0.148,1.235l28.296,235.496C94.995,464.192,111.836,479,131.636,479h215.728
		c19.8,0,36.641-14.808,39.183-34.51l28.288-235.43c0.085-0.4,0.13-0.814,0.148-1.236L438.153,15H455.5c4.142,0,7.5-3.358,7.5-7.5
		S459.642,0,455.5,0z M295.681,71l-1.375,33H247V71H295.681z M412.351,104h-40.7l2.75-33h41.915L412.351,104z M395.049,248h-35.398
		l2.75-33h36.613L395.049,248z M389.281,296h-33.63l2.75-33h34.845L389.281,296z M297.319,392l1.375-33h36.655l-2.75,33H297.319z
		 M247,392v-33h36.681l-1.375,33H247z M196.694,392l-1.375-33H232v33H196.694z M74.219,167h38.38l2.75,33H78.184L74.219,167z
		 M127.651,167h44.655l1.375,33h-43.28L127.651,167z M232,263v33h-39.306l-1.375-33H232z M190.694,248l-1.375-33H232v33H190.694z
		 M247,263h40.681l-1.375,33H247V263z M247,248v-33h42.681l-1.375,33H247z M247,200v-33h44.681l-1.375,33H247z M232,200h-43.306
		l-1.375-33H232V200z M174.306,215l1.375,33h-41.28l-2.75-33H174.306z M176.306,263l1.375,33h-39.28l-2.75-33H176.306z M178.306,311
		l1.375,33h-37.28l-2.75-33H178.306z M193.319,311H232v33h-37.306L193.319,311z M247,311h38.681l-1.375,33H247V311z M300.694,311
		h38.655l-2.75,33h-37.28L300.694,311z M301.319,296l1.375-33h40.655l-2.75,33H301.319z M303.319,248l1.375-33h42.655l-2.75,33
		H303.319z M305.319,200l1.375-33h44.655l-2.75,33H305.319z M307.319,152l1.375-33h46.655l-2.75,33H307.319z M292.306,152H247v-33
		h46.681L292.306,152z M232,152h-45.306l-1.375-33H232V152z M171.681,152h-45.28l-2.75-33h46.655L171.681,152z M111.349,152H72.416
		l-3.965-33h40.148L111.349,152z M116.599,215l2.75,33H83.951l-3.965-33H116.599z M120.599,263l2.75,33h-33.63l-3.965-33H120.599z
		 M124.599,311l2.75,33H95.5c-0.005,0-0.009,0.001-0.014,0.001L91.521,311H124.599z M97.289,359h31.31l2.75,33h-30.095L97.289,359z
		 M146.401,392l-2.75-33h36.655l1.375,33H146.401z M350.401,359h31.31l-3.965,33h-30.095L350.401,359z M383.514,344.001
		c-0.005,0-0.009-0.001-0.014-0.001h-31.849l2.75-33h33.078L383.514,344.001z M363.651,200l2.75-33h38.38l-3.965,33H363.651z
		 M406.584,152h-38.933l2.75-33h40.148L406.584,152z M356.599,104h-47.28l1.375-33h48.655L356.599,104z M232,104h-47.306l-1.375-33
		H232V104z M168.306,71l1.375,33h-47.28l-2.75-33H168.306z M104.599,71l2.75,33h-40.7l-3.965-33H104.599z M371.662,442.635
		C370.091,454.815,359.645,464,347.364,464H131.636c-12.281,0-22.727-9.185-24.291-21.299L103.056,407h36.425
		c0.003,0,0.007,0,0.01,0c0.004,0,0.008,0,0.012,0h199.993c0.004,0,0.008,0,0.012,0c0.003,0,0.007,0,0.01,0h36.425L371.662,442.635z
		 M418.119,56H60.881l-4.926-41h367.09L418.119,56z"/>
	<path d="M355.129,416.05c-4.12-0.474-7.835,2.476-8.311,6.591l-2.769,24c-0.475,4.115,2.476,7.835,6.591,8.311
		c0.292,0.034,0.582,0.05,0.869,0.05c3.757,0,7-2.818,7.441-6.641l2.769-24C362.194,420.245,359.244,416.525,355.129,416.05z"/>
	<path d="M397.717,46.947c0.292,0.034,0.582,0.05,0.869,0.05c3.757,0,7-2.818,7.441-6.641l0.923-7.996
		c0.475-4.115-2.476-7.835-6.591-8.311c-4.112-0.474-7.835,2.476-8.311,6.591l-0.923,7.996
		C390.652,42.751,393.603,46.472,397.717,46.947z"/>
</g>
<g>
</g>
<g>
</g>
<g>
</g>
<g>
</g>
<g>
</g>
<g>
</g>
<g>
</g>
<g>
</g>
<g>
</g>
<g>
</g>
<g>
</g>
<g>
</g>
<g>
</g>
<g>
</g>
<g>
</g>
</svg>
