<?xml version="1.0" encoding="iso-8859-1"?>
<!-- Generator: Adobe Illustrator 17.1.0, SVG Export Plug-In . SVG Version: 6.00 Build 0)  -->
<!DOCTYPE svg PUBLIC "-//W3C//DTD SVG 1.1//EN" "http://www.w3.org/Graphics/SVG/1.1/DTD/svg11.dtd">
<svg version="1.1" id="Capa_1" xmlns="http://www.w3.org/2000/svg" xmlns:xlink="http://www.w3.org/1999/xlink" x="0px" y="0px"
	 viewBox="0 0 511 511" style="enable-background:new 0 0 511 511;" xml:space="preserve">
<g>
	<path d="M423.502,272h-16.005c-4.142,0-7.5,3.358-7.5,7.5s3.358,7.5,7.5,7.5h16.005c4.142,0,7.5-3.358,7.5-7.5
		S427.645,272,423.502,272z"/>
	<path d="M487.5,208H318.444l163.842-65.537c3.846-1.538,5.716-5.903,4.178-9.749c-1.538-3.845-5.902-5.718-9.749-4.178L287,204.422
		V55.5c0-12.958-10.542-23.5-23.5-23.5h-16C234.542,32,224,42.542,224,55.5v148.922L34.286,128.537
		c-3.848-1.541-8.211,0.332-9.749,4.178c-1.539,3.846,0.332,8.211,4.178,9.749L192.556,208H23.5C10.542,208,0,218.542,0,231.5v32
		c0,10.336,6.71,19.128,16,22.266V423.5c0,30.603,24.897,55.5,55.5,55.5h368c30.603,0,55.5-24.897,55.5-55.5V285.766
		c9.29-3.138,16-11.93,16-22.266v-32C511,218.542,500.458,208,487.5,208z M247.5,47h16c4.687,0,8.5,3.813,8.5,8.5v159.849
		c0,0.008,0,0.016,0,0.024V240h-33v-24.49c0-0.003,0-0.006,0-0.01s0-0.006,0-0.01v-0.118c0-0.008,0-0.016,0-0.024V55.5
		C239,50.813,242.813,47,247.5,47z M496,263.5c0,4.687-3.813,8.5-8.5,8.5h-32.001c-4.142,0-7.5,3.358-7.5,7.5s3.358,7.5,7.5,7.5H480
		v136.5c0,22.332-18.168,40.5-40.5,40.5h-368C49.168,464,31,445.832,31,423.5V287h344.501c4.142,0,7.5-3.358,7.5-7.5
		s-3.358-7.5-7.5-7.5H23.5c-4.687,0-8.5-3.813-8.5-8.5v-32c0-4.687,3.813-8.5,8.5-8.5H224v22.5c0,5.238,4.262,9.5,9.5,9.5h44
		c5.238,0,9.5-4.262,9.5-9.5V223h200.5c4.687,0,8.5,3.813,8.5,8.5V263.5z"/>
	<path d="M455.5,439c4.142,0,7.5-3.358,7.5-7.5v-72c0-4.142-3.358-7.5-7.5-7.5s-7.5,3.358-7.5,7.5v72
		C448,435.642,451.358,439,455.5,439z"/>
	<path d="M455.5,335c4.142,0,7.5-3.358,7.5-7.5v-16c0-4.142-3.358-7.5-7.5-7.5s-7.5,3.358-7.5,7.5v16
		C448,331.642,451.358,335,455.5,335z"/>
</g>
<g>
</g>
<g>
</g>
<g>
</g>
<g>
</g>
<g>
</g>
<g>
</g>
<g>
</g>
<g>
</g>
<g>
</g>
<g>
</g>
<g>
</g>
<g>
</g>
<g>
</g>
<g>
</g>
<g>
</g>
</svg>
