<?xml version="1.0" encoding="iso-8859-1"?>
<!-- Generator: Adobe Illustrator 17.1.0, SVG Export Plug-In . SVG Version: 6.00 Build 0)  -->
<!DOCTYPE svg PUBLIC "-//W3C//DTD SVG 1.1//EN" "http://www.w3.org/Graphics/SVG/1.1/DTD/svg11.dtd">
<svg version="1.1" id="Capa_1" xmlns="http://www.w3.org/2000/svg" xmlns:xlink="http://www.w3.org/1999/xlink" x="0px" y="0px"
	 viewBox="0 0 511 511" style="enable-background:new 0 0 511 511;" xml:space="preserve">
<g>
	<path d="M367,23.5C367,10.542,356.458,0,343.5,0h-176C154.542,0,144,10.542,144,23.5v52.918c0,0.658,0.039,1.311,0.093,1.961
		C144.038,78.746,144,79.118,144,79.5c0,1.388,0.384,2.684,1.041,3.799c0.191,0.622,0.396,1.24,0.64,1.848L192,200.944V463.5
		c0,26.191,21.309,47.5,47.5,47.5h32c26.191,0,47.5-21.309,47.5-47.5V200.944l46.318-115.796c0.244-0.609,0.449-1.227,0.64-1.849
		C366.616,82.184,367,80.888,367,79.5c0-0.382-0.038-0.754-0.093-1.12c0.054-0.651,0.093-1.303,0.093-1.961V23.5z M167.5,15h176
		c4.687,0,8.5,3.813,8.5,8.5V72h-16.5c-4.142,0-7.5,3.358-7.5,7.5s3.358,7.5,7.5,7.5h12.922l-42,105H204.578l-42-105H255.5
		c4.142,0,7.5-3.358,7.5-7.5s-3.358-7.5-7.5-7.5H159V23.5C159,18.813,162.813,15,167.5,15z M304,463.5c0,17.92-14.58,32.5-32.5,32.5
		h-32c-17.92,0-32.5-14.58-32.5-32.5V207h97V463.5z"/>
	<path d="M287.5,87h16c4.142,0,7.5-3.358,7.5-7.5s-3.358-7.5-7.5-7.5h-16c-4.142,0-7.5,3.358-7.5,7.5S283.358,87,287.5,87z"/>
	<path d="M255.5,335c17.369,0,31.5-14.131,31.5-31.5v-48c0-17.369-14.131-31.5-31.5-31.5S224,238.131,224,255.5v48
		C224,320.869,238.131,335,255.5,335z M239,255.5c0-9.098,7.402-16.5,16.5-16.5s16.5,7.402,16.5,16.5v48
		c0,9.098-7.402,16.5-16.5,16.5s-16.5-7.402-16.5-16.5V255.5z"/>
	<path d="M255.5,271c4.142,0,7.5-3.358,7.5-7.5v-8c0-4.142-3.358-7.5-7.5-7.5s-7.5,3.358-7.5,7.5v8
		C248,267.642,251.358,271,255.5,271z"/>
	<path d="M255.5,311c4.142,0,7.5-3.358,7.5-7.5v-8c0-4.142-3.358-7.5-7.5-7.5s-7.5,3.358-7.5,7.5v8
		C248,307.642,251.358,311,255.5,311z"/>
</g>
<g>
</g>
<g>
</g>
<g>
</g>
<g>
</g>
<g>
</g>
<g>
</g>
<g>
</g>
<g>
</g>
<g>
</g>
<g>
</g>
<g>
</g>
<g>
</g>
<g>
</g>
<g>
</g>
<g>
</g>
</svg>
