<?xml version="1.0" encoding="iso-8859-1"?>
<!-- Generator: Adobe Illustrator 17.1.0, SVG Export Plug-In . SVG Version: 6.00 Build 0)  -->
<!DOCTYPE svg PUBLIC "-//W3C//DTD SVG 1.1//EN" "http://www.w3.org/Graphics/SVG/1.1/DTD/svg11.dtd">
<svg version="1.1" id="Capa_1" xmlns="http://www.w3.org/2000/svg" xmlns:xlink="http://www.w3.org/1999/xlink" x="0px" y="0px"
	 viewBox="0 0 511 511" style="enable-background:new 0 0 511 511;" xml:space="preserve">
<g>
	<path d="M462.985,183.796c0.004-0.099,0.015-0.196,0.015-0.296v-8c0-21.78-17.72-39.5-39.5-39.5h-46.324
		c-12.016-15.097-30.301-24-49.676-24s-37.659,8.903-49.676,24h-44.649c-12.016-15.097-30.301-24-49.676-24s-37.659,8.903-49.676,24
		H87.5C65.72,136,48,153.72,48,175.5v8c0,0.1,0.011,0.197,0.015,0.296C18.885,205.609,0,240.391,0,279.5
		C0,345.393,53.607,399,119.5,399S239,345.393,239,279.5c0-4.193-0.219-8.335-0.643-12.418c5.188,2.51,11.004,3.918,17.143,3.918
		s11.955-1.409,17.143-3.918c-0.424,4.083-0.643,8.225-0.643,12.418c0,65.893,53.607,119.5,119.5,119.5S511,345.393,511,279.5
		C511,240.391,492.115,205.609,462.985,183.796z M327.5,127c10.176,0,19.951,3.235,28.057,9h-56.113
		C307.549,130.235,317.324,127,327.5,127z M183.5,127c10.176,0,19.951,3.235,28.057,9h-56.113
		C163.549,130.235,173.324,127,183.5,127z M119.5,384C61.878,384,15,337.122,15,279.5S61.878,175,119.5,175S224,221.878,224,279.5
		S177.122,384,119.5,384z M231,231.5c0-13.509,10.991-24.5,24.5-24.5s24.5,10.991,24.5,24.5S269.009,256,255.5,256
		S231,245.009,231,231.5z M255.5,192c-15.74,0-29.356,9.257-35.699,22.611C198.481,181.77,161.487,160,119.5,160
		c-20.411,0-39.64,5.148-56.466,14.207C63.709,161.297,74.424,151,87.5,151h49.958c0,0,0.002,0,0.003,0h91.958
		c0.003,0,0.006,0,0.008,0c0.002,0,0.004,0,0.007,0h52.025c0,0,0.002,0,0.003,0h91.958c0.003,0,0.006,0,0.008,0
		c0.002,0,0.004,0,0.007,0H423.5c13.076,0,23.791,10.297,24.466,23.207C431.14,165.148,411.911,160,391.5,160
		c-41.987,0-78.981,21.77-100.301,54.611C284.856,201.257,271.24,192,255.5,192z M391.5,384C333.878,384,287,337.122,287,279.5
		S333.878,175,391.5,175S496,221.878,496,279.5S449.122,384,391.5,384z"/>
	<path d="M391.5,192c-48.248,0-87.5,39.252-87.5,87.5s39.252,87.5,87.5,87.5s87.5-39.252,87.5-87.5S439.748,192,391.5,192z
		 M391.5,352c-39.977,0-72.5-32.523-72.5-72.5s32.523-72.5,72.5-72.5s72.5,32.523,72.5,72.5S431.477,352,391.5,352z"/>
	<path d="M119.5,192C71.252,192,32,231.252,32,279.5S71.252,367,119.5,367s87.5-39.252,87.5-87.5S167.748,192,119.5,192z M119.5,352
		C79.523,352,47,319.477,47,279.5S79.523,207,119.5,207s72.5,32.523,72.5,72.5S159.477,352,119.5,352z"/>
	<path d="M391.5,224c-4.142,0-7.5,3.358-7.5,7.5s3.358,7.5,7.5,7.5c22.332,0,40.5,18.168,40.5,40.5c0,4.142,3.358,7.5,7.5,7.5
		s7.5-3.358,7.5-7.5C447,248.897,422.103,224,391.5,224z"/>
	<path d="M119.5,224c-4.142,0-7.5,3.358-7.5,7.5s3.358,7.5,7.5,7.5c22.332,0,40.5,18.168,40.5,40.5c0,4.142,3.358,7.5,7.5,7.5
		s7.5-3.358,7.5-7.5C175,248.897,150.103,224,119.5,224z"/>
</g>
<g>
</g>
<g>
</g>
<g>
</g>
<g>
</g>
<g>
</g>
<g>
</g>
<g>
</g>
<g>
</g>
<g>
</g>
<g>
</g>
<g>
</g>
<g>
</g>
<g>
</g>
<g>
</g>
<g>
</g>
</svg>
