<?xml version="1.0" encoding="iso-8859-1"?>
<!-- Generator: Adobe Illustrator 17.1.0, SVG Export Plug-In . SVG Version: 6.00 Build 0)  -->
<!DOCTYPE svg PUBLIC "-//W3C//DTD SVG 1.1//EN" "http://www.w3.org/Graphics/SVG/1.1/DTD/svg11.dtd">
<svg version="1.1" id="Capa_1" xmlns="http://www.w3.org/2000/svg" xmlns:xlink="http://www.w3.org/1999/xlink" x="0px" y="0px"
	 viewBox="0 0 511 511" style="enable-background:new 0 0 511 511;" xml:space="preserve">
<g>
	<path d="M455.5,256h-55.211C413.901,247.638,423,232.613,423,215.5c0-24.247-18.266-44.294-41.757-47.141
		c-2.588-4.96-7.772-8.359-13.743-8.359h-88c-8.547,0-15.5,6.953-15.5,15.5v40c0,4.687-3.813,8.5-8.5,8.5h-8
		c-17.369,0-31.5,14.131-31.5,31.5v0.5h-9V7.5c0-4.142-3.358-7.5-7.5-7.5h-112C65.72,0,48,17.72,48,39.5v192
		c0,21.78,17.72,39.5,39.5,39.5H192v200.5c0,21.78,17.72,39.5,39.5,39.5h192c21.78,0,39.5-17.72,39.5-39.5v-208
		C463,259.358,459.642,256,455.5,256z M408,215.5c0,15.339-10.685,28.221-25,31.617V223h0.5c4.142,0,7.5-3.358,7.5-7.5
		s-3.358-7.5-7.5-7.5H383v-24.117C397.315,187.279,408,200.161,408,215.5z M231,255.5c0-9.098,7.402-16.5,16.5-16.5h8
		c12.958,0,23.5-10.542,23.5-23.5v-40c0-0.275,0.224-0.5,0.5-0.5h88c0.276,0,0.5,0.225,0.5,0.5V256H231V255.5z M63,231.5v-192
		C63,25.991,73.991,15,87.5,15H192v241H87.5C73.991,256,63,245.009,63,231.5z M448,471.5c0,13.509-10.991,24.5-24.5,24.5h-192
		c-13.509,0-24.5-10.991-24.5-24.5V271h16.5h152H448V471.5z"/>
	<path d="M303.5,192c-1.97,0-3.91,0.8-5.3,2.2c-1.4,1.39-2.2,3.33-2.2,5.3s0.8,3.91,2.2,5.3c1.39,1.4,3.33,2.2,5.3,2.2
		c1.97,0,3.91-0.8,5.3-2.2c1.4-1.39,2.2-3.33,2.2-5.3s-0.8-3.91-2.2-5.3C307.41,192.8,305.47,192,303.5,192z"/>
	<path d="M343.5,192c-1.98,0-3.91,0.8-5.3,2.2c-1.4,1.39-2.2,3.33-2.2,5.3s0.8,3.91,2.2,5.3c1.39,1.4,3.33,2.2,5.3,2.2
		c1.97,0,3.91-0.8,5.3-2.2c1.4-1.39,2.2-3.33,2.2-5.3s-0.8-3.91-2.2-5.3C347.41,192.8,345.47,192,343.5,192z"/>
	<path d="M343.5,224c-1.98,0-3.91,0.8-5.3,2.2c-1.4,1.39-2.2,3.32-2.2,5.3s0.8,3.91,2.2,5.3c1.39,1.4,3.32,2.2,5.3,2.2
		c1.97,0,3.91-0.8,5.3-2.2c1.4-1.39,2.2-3.33,2.2-5.3s-0.8-3.91-2.2-5.3C347.41,224.8,345.47,224,343.5,224z"/>
	<path d="M303.5,224c-1.97,0-3.91,0.8-5.3,2.2c-1.4,1.39-2.2,3.33-2.2,5.3s0.8,3.91,2.2,5.3c1.39,1.4,3.33,2.2,5.3,2.2
		c1.97,0,3.91-0.8,5.3-2.2c1.4-1.39,2.2-3.33,2.2-5.3s-0.8-3.91-2.2-5.3C307.41,224.8,305.47,224,303.5,224z"/>
	<path d="M423.5,319c4.142,0,7.5-3.358,7.5-7.5v-16c0-4.142-3.358-7.5-7.5-7.5s-7.5,3.358-7.5,7.5v16
		C416,315.642,419.358,319,423.5,319z"/>
	<path d="M423.5,455c4.142,0,7.5-3.358,7.5-7.5v-104c0-4.142-3.358-7.5-7.5-7.5s-7.5,3.358-7.5,7.5v104
		C416,451.642,419.358,455,423.5,455z"/>
	<path d="M143.5,32h-56c-4.142,0-7.5,3.358-7.5,7.5s3.358,7.5,7.5,7.5h56c4.142,0,7.5-3.358,7.5-7.5S147.642,32,143.5,32z"/>
	<path d="M319.5,127c4.142,0,7.5-3.358,7.5-7.5v-16c0-4.142-3.358-7.5-7.5-7.5s-7.5,3.358-7.5,7.5v16
		C312,123.642,315.358,127,319.5,127z"/>
	<path d="M319.5,151c26.191,0,47.5-21.309,47.5-47.5c0-34.348-25.092-60.184-26.16-61.267c-1.403-1.423-3.316-2.227-5.314-2.233
		c-2.023-0.004-3.916,0.784-5.329,2.197l-0.598,0.597c-4.121-12.325-2.665-26.285-2.647-26.449c0.353-3.107-1.259-6.106-4.044-7.526
		c-2.785-1.42-6.159-0.964-8.467,1.145C285.281,36.609,272,77.129,272,103.5C272,129.691,293.309,151,319.5,151z M312.43,34.257
		c1.067,8.208,3.528,17.636,8.875,25.471c1.259,1.844,3.273,3.032,5.497,3.24c2.222,0.206,4.423-0.586,6.001-2.165l2.236-2.236
		C341.478,66.993,352,83.782,352,103.5c0,17.921-14.58,32.5-32.5,32.5S287,121.421,287,103.5
		C287,87.309,294.003,58.111,312.43,34.257z"/>
</g>
<g>
</g>
<g>
</g>
<g>
</g>
<g>
</g>
<g>
</g>
<g>
</g>
<g>
</g>
<g>
</g>
<g>
</g>
<g>
</g>
<g>
</g>
<g>
</g>
<g>
</g>
<g>
</g>
<g>
</g>
</svg>
