<?xml version="1.0" encoding="iso-8859-1"?>
<!-- Generator: Adobe Illustrator 17.1.0, SVG Export Plug-In . SVG Version: 6.00 Build 0)  -->
<!DOCTYPE svg PUBLIC "-//W3C//DTD SVG 1.1//EN" "http://www.w3.org/Graphics/SVG/1.1/DTD/svg11.dtd">
<svg version="1.1" id="Capa_1" xmlns="http://www.w3.org/2000/svg" xmlns:xlink="http://www.w3.org/1999/xlink" x="0px" y="0px"
	 viewBox="0 0 511 511" style="enable-background:new 0 0 511 511;" xml:space="preserve">
<g>
	<path d="M323.5,224c-4.142,0-7.5,3.358-7.5,7.5v104c0,4.142,3.358,7.5,7.5,7.5s7.5-3.358,7.5-7.5v-104
		C331,227.358,327.642,224,323.5,224z"/>
	<path d="M323.5,176c-4.142,0-7.5,3.358-7.5,7.5v16c0,4.142,3.358,7.5,7.5,7.5s7.5-3.358,7.5-7.5v-16
		C331,179.358,327.642,176,323.5,176z"/>
	<path d="M379.5,184H363v-13.171c0-8.572-2.026-17.156-5.86-24.822l-8.721-17.44c-1.957-3.912-5.378-6.723-9.419-7.921V31.5
		C339,14.131,324.869,0,307.5,0h-176C114.131,0,100,14.131,100,31.5v89.146c-4.041,1.198-7.462,4.009-9.419,7.921l-8.72,17.439
		c-3.834,7.667-5.86,16.25-5.86,24.823V479.5c0,17.369,14.131,31.5,31.5,31.5h224c17.369,0,31.5-14.131,31.5-31.5V439h16.5
		c30.603,0,55.5-24.897,55.5-55.5v-144C435,208.897,410.103,184,379.5,184z M131.5,15h176c9.098,0,16.5,7.402,16.5,16.5V32h-24.5
		c-4.142,0-7.5,3.358-7.5,7.5s3.358,7.5,7.5,7.5H324v73H115V47h152.5c4.142,0,7.5-3.358,7.5-7.5s-3.358-7.5-7.5-7.5H115v-0.5
		C115,22.402,122.402,15,131.5,15z M348,479.5c0,9.098-7.402,16.5-16.5,16.5h-224c-9.098,0-16.5-7.402-16.5-16.5V170.829
		c0-6.255,1.479-12.519,4.276-18.114l8.72-17.438c0.085-0.171,0.257-0.277,0.448-0.277h3.056h224h3.056
		c0.19,0,0.362,0.106,0.447,0.276l8.72,17.439c2.798,5.595,4.276,11.858,4.276,18.114V479.5z M420,383.5
		c0,22.332-18.168,40.5-40.5,40.5H363V199h16.5c22.332,0,40.5,18.168,40.5,40.5V383.5z"/>
</g>
<g>
</g>
<g>
</g>
<g>
</g>
<g>
</g>
<g>
</g>
<g>
</g>
<g>
</g>
<g>
</g>
<g>
</g>
<g>
</g>
<g>
</g>
<g>
</g>
<g>
</g>
<g>
</g>
<g>
</g>
</svg>
