<?xml version="1.0" encoding="iso-8859-1"?>
<!-- Generator: Adobe Illustrator 17.1.0, SVG Export Plug-In . SVG Version: 6.00 Build 0)  -->
<!DOCTYPE svg PUBLIC "-//W3C//DTD SVG 1.1//EN" "http://www.w3.org/Graphics/SVG/1.1/DTD/svg11.dtd">
<svg version="1.1" id="Capa_1" xmlns="http://www.w3.org/2000/svg" xmlns:xlink="http://www.w3.org/1999/xlink" x="0px" y="0px"
	 viewBox="0 0 511.002 511.002" style="enable-background:new 0 0 511.002 511.002;" xml:space="preserve">
<g>
	<path d="M455.501,0h-400c-8.547,0-15.5,6.953-15.5,15.5v16c0,8.547,6.953,15.5,15.5,15.5h0.639
		c3.02,81.3,54.927,150.315,127.114,178.458L113.686,496h-10.185c-4.142,0-7.5,3.358-7.5,7.5s3.358,7.5,7.5,7.5h15.974
		c0.01,0,0.021,0.002,0.031,0.002c0.008,0,0.016-0.002,0.023-0.002h15.971c4.142,0,7.5-3.358,7.5-7.5s-3.358-7.5-7.5-7.5h-6.328
		l33.172-129h186.312l33.172,129h-6.328c-4.142,0-7.5,3.358-7.5,7.5s3.358,7.5,7.5,7.5h15.971c0.008,0,0.016,0.002,0.023,0.002
		c0.01,0,0.021-0.002,0.031-0.002h15.974c4.142,0,7.5-3.358,7.5-7.5s-3.358-7.5-7.5-7.5h-10.185l-69.568-270.542
		C399.935,197.315,451.842,128.3,454.862,47h0.639c8.547,0,15.5-6.953,15.5-15.5v-16C471.001,6.953,464.048,0,455.501,0z
		 M166.202,352l16.722-65.029c0.191,0.014,0.382,0.029,0.577,0.029h144c0.195,0,0.386-0.015,0.577-0.029L344.8,352H166.202z
		 M324.229,272H186.773l10.699-41.606c18.369,5.595,37.854,8.606,58.029,8.606s39.659-3.011,58.029-8.606L324.229,272z
		 M456.001,31.5c0,0.276-0.224,0.5-0.5,0.5h-8h-32c-4.142,0-7.5,3.358-7.5,7.5s3.358,7.5,7.5,7.5h24.335
		c-3.95,98.269-85.114,177-184.335,177S75.116,145.269,71.166,47h264.335c4.142,0,7.5-3.358,7.5-7.5s-3.358-7.5-7.5-7.5h-272h-8
		c-0.276,0-0.5-0.224-0.5-0.5v-16c0-0.276,0.224-0.5,0.5-0.5h400c0.276,0,0.5,0.224,0.5,0.5V31.5z"/>
	<path d="M367.501,47h16c4.142,0,7.5-3.358,7.5-7.5s-3.358-7.5-7.5-7.5h-16c-4.142,0-7.5,3.358-7.5,7.5S363.359,47,367.501,47z"/>
	<path d="M398.401,92.877c-1.933,5.173-4.178,10.302-6.673,15.245c-1.866,3.698-0.381,8.208,3.316,10.075
		c1.084,0.547,2.237,0.806,3.374,0.806c2.741,0,5.382-1.509,6.702-4.123c2.741-5.431,5.208-11.067,7.332-16.753
		c1.45-3.88-0.52-8.201-4.4-9.651C404.174,87.028,399.851,88.997,398.401,92.877z"/>
	<path d="M388.01,129.514c-3.311-2.488-8.014-1.82-10.501,1.491c-14.556,19.376-33.736,35.197-55.465,45.751
		c-3.726,1.81-5.279,6.297-3.469,10.023c1.297,2.671,3.97,4.225,6.751,4.225c1.1,0,2.216-0.243,3.271-0.755
		c23.863-11.591,44.923-28.962,60.904-50.234C391.99,136.703,391.322,132.001,388.01,129.514z"/>
</g>
<g>
</g>
<g>
</g>
<g>
</g>
<g>
</g>
<g>
</g>
<g>
</g>
<g>
</g>
<g>
</g>
<g>
</g>
<g>
</g>
<g>
</g>
<g>
</g>
<g>
</g>
<g>
</g>
<g>
</g>
</svg>
