<?xml version="1.0" encoding="iso-8859-1"?>
<!-- Generator: Adobe Illustrator 19.1.0, SVG Export Plug-In . SVG Version: 6.00 Build 0)  -->
<svg version="1.1" id="Capa_1" xmlns="http://www.w3.org/2000/svg" xmlns:xlink="http://www.w3.org/1999/xlink" x="0px" y="0px"
	 viewBox="0 0 511 511" style="enable-background:new 0 0 511 511;" xml:space="preserve">
<g>
	<path d="M351.5,88H343v-0.5c0-12.958-10.542-23.5-23.5-23.5H311V47h24.5c4.142,0,7.5-3.358,7.5-7.5C343,17.72,325.28,0,303.5,0h-96
		C185.72,0,168,17.72,168,39.5c0,4.142,3.358,7.5,7.5,7.5H200v17h-8.5C178.542,64,168,74.542,168,87.5V88h-8.5
		C115.664,88,80,123.664,80,167.5v208c0,41.158,31.44,75.107,71.563,79.103l-6.771,13.543c-0.022,0.044-0.037,0.091-0.058,0.135
		c-0.085,0.178-0.163,0.359-0.234,0.545c-0.029,0.077-0.058,0.154-0.085,0.231c-0.064,0.185-0.119,0.374-0.168,0.565
		c-0.02,0.077-0.042,0.154-0.06,0.232c-0.045,0.2-0.079,0.403-0.107,0.609c-0.01,0.07-0.024,0.139-0.032,0.209
		c-0.03,0.271-0.048,0.546-0.048,0.825c0,0.001,0,0.002,0,0.003v32c0,4.142,3.358,7.5,7.5,7.5h208c4.142,0,7.5-3.358,7.5-7.5v-32
		c0-0.001,0-0.002,0-0.003c0-0.279-0.018-0.554-0.048-0.825c-0.008-0.07-0.022-0.139-0.032-0.209
		c-0.028-0.206-0.062-0.409-0.107-0.609c-0.018-0.078-0.04-0.155-0.06-0.232c-0.049-0.191-0.104-0.38-0.168-0.565
		c-0.027-0.078-0.055-0.155-0.085-0.231c-0.071-0.186-0.149-0.367-0.234-0.545c-0.021-0.044-0.036-0.091-0.058-0.135l-6.771-13.543
		C399.56,450.607,431,416.658,431,375.5v-208C431,123.664,395.336,88,351.5,88z M318.892,373.515
		c11.95-7.556,22.086-17.377,29.837-29.012C360.853,326.302,367,304.432,367,279.5c0-34.176-12.082-73.714-31.426-104.5H351.5
		c4.142,0,7.5-3.358,7.5-7.5s-3.358-7.5-7.5-7.5H343v-25h8.5c17.92,0,32.5,14.579,32.5,32.5v208c0,17.921-14.58,32.5-32.5,32.5
		h-15.365L318.892,373.515z M174.865,408H159.5c-17.92,0-32.5-14.579-32.5-32.5v-208c0-17.921,14.58-32.5,32.5-32.5h8.5v25h-8.5
		c-4.142,0-7.5,3.358-7.5,7.5s3.358,7.5,7.5,7.5h15.926C156.082,205.786,144,245.324,144,279.5c0,24.932,6.147,46.802,18.271,65.002
		c7.75,11.635,17.887,21.456,29.837,29.012L174.865,408z M159,279.5c0-34.574,13.45-75.156,34.468-104.5h124.064
		C338.55,204.344,352,244.926,352,279.5c0,41.838-20.007,74.012-54.952,88.5h-83.097C179.007,353.512,159,321.338,159,279.5z
		 M207.5,15h96c10.895,0,20.151,7.147,23.326,17H184.174C187.349,22.147,196.605,15,207.5,15z M215,47h81v17h-81V47z M183,87.5
		c0-4.687,3.813-8.5,8.5-8.5h128c4.687,0,8.5,3.813,8.5,8.5V160h-6.673H189.673H183V87.5z M95,375.5v-208
		c0-35.565,28.935-64.5,64.5-64.5h8.5v17h-8.5c-26.191,0-47.5,21.309-47.5,47.5v208c0,26.191,21.309,47.5,47.5,47.5h7.865
		l-8.492,16.984C123.596,439.645,95,410.855,95,375.5z M159,496v-17h136.5c4.142,0,7.5-3.358,7.5-7.5s-3.358-7.5-7.5-7.5H163.635
		l40.5-81h8.352h86.025h8.352l40.5,81H327.5c-4.142,0-7.5,3.358-7.5,7.5s3.358,7.5,7.5,7.5H352v17H159z M416,375.5
		c0,35.355-28.596,64.145-63.873,64.484L343.635,423h7.865c26.191,0,47.5-21.309,47.5-47.5v-208c0-26.191-21.309-47.5-47.5-47.5H343
		v-17h8.5c35.565,0,64.5,28.935,64.5,64.5V375.5z"/>
	<path d="M303.5,143c4.142,0,7.5-3.358,7.5-7.5v-32c0-4.142-3.358-7.5-7.5-7.5s-7.5,3.358-7.5,7.5v32
		C296,139.642,299.358,143,303.5,143z"/>
	<path d="M255.5,296c-4.142,0-7.5,3.358-7.5,7.5v16c0,4.142,3.358,7.5,7.5,7.5s7.5-3.358,7.5-7.5v-16
		C263,299.358,259.642,296,255.5,296z"/>
	<path d="M276.84,242.233c-1.403-1.423-3.316-2.227-5.314-2.233c-2.026,0.029-3.916,0.784-5.329,2.197l-0.598,0.597
		c-4.121-12.325-2.665-26.285-2.647-26.449c0.353-3.107-1.259-6.106-4.044-7.526c-2.785-1.42-6.159-0.964-8.467,1.145
		C221.281,236.609,208,277.129,208,303.5c0,26.191,21.309,47.5,47.5,47.5s47.5-21.309,47.5-47.5
		C303,269.152,277.908,243.316,276.84,242.233z M255.5,336c-17.92,0-32.5-14.579-32.5-32.5c0-16.191,7.003-45.389,25.43-69.243
		c1.067,8.208,3.528,17.636,8.875,25.471c1.259,1.844,3.273,3.032,5.497,3.24c2.221,0.205,4.423-0.586,6.001-2.165l2.236-2.236
		c6.438,8.426,16.96,25.215,16.96,44.933C288,321.421,273.42,336,255.5,336z"/>
</g>
<g>
</g>
<g>
</g>
<g>
</g>
<g>
</g>
<g>
</g>
<g>
</g>
<g>
</g>
<g>
</g>
<g>
</g>
<g>
</g>
<g>
</g>
<g>
</g>
<g>
</g>
<g>
</g>
<g>
</g>
</svg>
