<?xml version="1.0" encoding="iso-8859-1"?>
<!-- Generator: Adobe Illustrator 17.1.0, SVG Export Plug-In . SVG Version: 6.00 Build 0)  -->
<!DOCTYPE svg PUBLIC "-//W3C//DTD SVG 1.1//EN" "http://www.w3.org/Graphics/SVG/1.1/DTD/svg11.dtd">
<svg version="1.1" id="Capa_1" xmlns="http://www.w3.org/2000/svg" xmlns:xlink="http://www.w3.org/1999/xlink" x="0px" y="0px"
	 viewBox="0 0 511 511" style="enable-background:new 0 0 511 511;" xml:space="preserve">
<g>
	<path d="M487.5,264h-42.922l-10.091-25.228C430.897,229.798,422.333,224,412.667,224h-68.108c-8.207,0-15.928,4.372-20.151,11.409
		l-19.339,32.232c-0.699,1.166-1.069,2.5-1.069,3.859v32c0,0.168,0.009,0.333,0.013,0.5H287V183.5c0-12.958-10.542-23.5-23.5-23.5
		h-240C10.542,160,0,170.542,0,183.5v128C0,324.458,10.542,335,23.5,335h17.734c3.138,9.29,11.93,16,22.266,16
		c8.442,0,15.856-4.477,20-11.179c4.144,6.702,11.558,11.179,20,11.179c10.336,0,19.128-6.71,22.266-16H263.5
		c10.336,0,19.128-6.71,22.266-16h24.093c2.716,3.088,6.227,5.457,10.211,6.789c-0.041,0.566-0.069,1.135-0.069,1.711
		c0,12.958,10.542,23.5,23.5,23.5s23.5-10.542,23.5-23.5c0-0.168-0.009-0.333-0.013-0.5h81.025c-0.004,0.167-0.013,0.332-0.013,0.5
		c0,12.958,10.542,23.5,23.5,23.5s23.5-10.542,23.5-23.5c0-0.168-0.009-0.333-0.013-0.5h0.513c8.547,0,15.5-6.953,15.5-15.5v-24
		C511,274.542,500.458,264,487.5,264z M63.5,336c-4.685,0-8.497-3.81-8.5-8.495c0-0.002,0-0.003,0-0.005s0-0.003,0-0.005
		c0.003-4.685,3.814-8.495,8.5-8.495c4.687,0,8.5,3.813,8.5,8.5S68.187,336,63.5,336z M103.5,336c-4.687,0-8.5-3.813-8.5-8.5
		s3.813-8.5,8.5-8.5s8.5,3.813,8.5,8.5S108.187,336,103.5,336z M263.5,320H125.765c-3.138-9.29-11.93-16-22.266-16
		c-8.442,0-15.856,4.477-20,11.179C79.355,308.477,71.942,304,63.5,304c-10.336,0-19.128,6.71-22.266,16H23.5
		c-4.687,0-8.5-3.813-8.5-8.5v-128c0-4.687,3.813-8.5,8.5-8.5h240c4.687,0,8.5,3.813,8.5,8.5v128C272,316.187,268.187,320,263.5,320
		z M343.5,336c-4.687,0-8.5-3.813-8.5-8.5s3.813-8.5,8.5-8.5s8.5,3.813,8.5,8.5S348.187,336,343.5,336z M471.5,336
		c-4.687,0-8.5-3.813-8.5-8.5s3.813-8.5,8.5-8.5s8.5,3.813,8.5,8.5S476.187,336,471.5,336z M496,311.5c0,0.276-0.224,0.5-0.5,0.5
		h-6.359c-4.31-4.899-10.619-8-17.641-8s-13.332,3.101-17.641,8h-92.717c-4.31-4.899-10.619-8-17.641-8
		c-6.955,0-13.211,3.039-17.517,7.857c-3.964-0.718-6.983-4.188-6.983-8.357v-29.922l18.271-30.451
		c1.527-2.546,4.32-4.127,7.289-4.127h68.108c3.496,0,6.594,2.097,7.892,5.343L428.422,264H343.5c-4.142,0-7.5,3.358-7.5,7.5
		s3.358,7.5,7.5,7.5h95.841c0.016,0,0.031,0,0.047,0H487.5c4.687,0,8.5,3.813,8.5,8.5V311.5z"/>
	<path d="M191.5,200h-152c-8.547,0-15.5,6.953-15.5,15.5v24c0,8.547,6.953,15.5,15.5,15.5h152c8.547,0,15.5-6.953,15.5-15.5v-24
		C207,206.953,200.047,200,191.5,200z M192,239.5c0,0.257-0.243,0.5-0.5,0.5h-152c-0.257,0-0.5-0.243-0.5-0.5v-24
		c0-0.257,0.243-0.5,0.5-0.5h152c0.257,0,0.5,0.243,0.5,0.5V239.5z"/>
	<path d="M247.5,200h-16c-8.547,0-15.5,6.953-15.5,15.5v24c0,8.547,6.953,15.5,15.5,15.5h16c8.547,0,15.5-6.953,15.5-15.5v-24
		C263,206.953,256.047,200,247.5,200z M248,239.5c0,0.257-0.243,0.5-0.5,0.5h-16c-0.257,0-0.5-0.243-0.5-0.5v-24
		c0-0.257,0.243-0.5,0.5-0.5h16c0.257,0,0.5,0.243,0.5,0.5V239.5z"/>
</g>
<g>
</g>
<g>
</g>
<g>
</g>
<g>
</g>
<g>
</g>
<g>
</g>
<g>
</g>
<g>
</g>
<g>
</g>
<g>
</g>
<g>
</g>
<g>
</g>
<g>
</g>
<g>
</g>
<g>
</g>
</svg>
