<?xml version="1.0" encoding="iso-8859-1"?>
<!-- Generator: Adobe Illustrator 17.1.0, SVG Export Plug-In . SVG Version: 6.00 Build 0)  -->
<!DOCTYPE svg PUBLIC "-//W3C//DTD SVG 1.1//EN" "http://www.w3.org/Graphics/SVG/1.1/DTD/svg11.dtd">
<svg version="1.1" id="Capa_1" xmlns="http://www.w3.org/2000/svg" xmlns:xlink="http://www.w3.org/1999/xlink" x="0px" y="0px"
	 viewBox="0 0 511 511" style="enable-background:new 0 0 511 511;" xml:space="preserve">
<g>
	<path d="M511,163.498V123.5c0-12.958-10.542-23.5-23.5-23.5h-464C10.542,100,0,110.542,0,123.5v224C0,360.458,10.542,371,23.5,371
		h73.098c3.607,22.64,23.263,40,46.902,40s43.295-17.36,46.902-40h178.195c3.607,22.64,23.263,40,46.902,40s43.295-17.36,46.902-40
		H487.5c12.958,0,23.5-10.542,23.5-23.5v-68.725c0-8.358-1.448-16.579-4.305-24.435l-24.489-67.343h5.293
		C500.458,186.998,511,176.456,511,163.498z M15,347.5v-224c0-4.687,3.813-8.5,8.5-8.5h464c4.687,0,8.5,3.813,8.5,8.5v39.998
		c0,4.687-3.813,8.5-8.5,8.5h-16c-0.016,0-0.032,0.002-0.048,0.002H399.5c-17.369,0-31.5,14.131-31.5,31.5l0,55.997
		c0,0.001,0,0.002,0,0.003s0,0.002,0,0.003L368,356H190.402c-3.607-22.64-23.263-40-46.902-40s-43.295,17.36-46.902,40H23.5
		C18.813,356,15,352.187,15,347.5z M496,308h-8.5c-4.687,0-8.5-3.813-8.5-8.5s3.813-8.5,8.5-8.5h8.5V308z M466.247,187l23.637,65
		H383v-48.5c0-9.098,7.402-16.5,16.5-16.5H466.247z M143.5,396c-17.92,0-32.5-14.58-32.5-32.5s14.58-32.5,32.5-32.5
		s32.5,14.58,32.5,32.5S161.42,396,143.5,396z M415.5,396c-17.918,0-32.496-14.576-32.5-32.494c0-0.002,0-0.004,0-0.006
		s0-0.004,0-0.006C383.004,345.576,397.582,331,415.5,331s32.496,14.576,32.5,32.494c0,0.002,0,0.004,0,0.006s0,0.004,0,0.006
		C447.996,381.424,433.418,396,415.5,396z M487.5,356h-25.098c-3.607-22.64-23.263-40-46.902-40c-12.564,0-23.996,4.912-32.5,12.906
		V267h111.754c0.631,2.96,1.025,5.965,1.173,9H487.5c-12.958,0-23.5,10.542-23.5,23.5s10.542,23.5,23.5,23.5h8.5v24.5
		C496,352.187,492.187,356,487.5,356z"/>
	<path d="M63.5,235h256c12.958,0,23.5-10.542,23.5-23.5v-16c0-12.958-10.542-23.5-23.5-23.5h-256C50.542,172,40,182.542,40,195.5v16
		C40,224.458,50.542,235,63.5,235z M184,220h-57v-33h57V220z M199,187h57v33h-57V187z M328,195.5v16c0,4.687-3.813,8.5-8.5,8.5H271
		v-33h48.5C324.187,187,328,190.813,328,195.5z M55,195.5c0-4.687,3.813-8.5,8.5-8.5H112v33H63.5c-4.687,0-8.5-3.813-8.5-8.5V195.5z
		"/>
	<path d="M415.5,348c-8.547,0-15.5,6.953-15.5,15.5s6.953,15.5,15.5,15.5s15.5-6.953,15.5-15.5S424.047,348,415.5,348z M415.5,364
		c-0.276,0-0.5-0.224-0.5-0.5s0.224-0.5,0.5-0.5s0.5,0.224,0.5,0.5S415.776,364,415.5,364z"/>
	<path d="M143.5,348c-8.547,0-15.5,6.953-15.5,15.5s6.953,15.5,15.5,15.5s15.5-6.953,15.5-15.5S152.047,348,143.5,348z M143.5,364
		c-0.276,0-0.5-0.224-0.5-0.5s0.224-0.5,0.5-0.5s0.5,0.224,0.5,0.5S143.776,364,143.5,364z"/>
	<path d="M200,331.5c0,4.142,3.358,7.5,7.5,7.5h136c4.142,0,7.5-3.358,7.5-7.5s-3.358-7.5-7.5-7.5h-136
		C203.358,324,200,327.358,200,331.5z"/>
	<path d="M79.5,324h-40c-4.142,0-7.5,3.358-7.5,7.5s3.358,7.5,7.5,7.5h40c4.142,0,7.5-3.358,7.5-7.5S83.642,324,79.5,324z"/>
</g>
<g>
</g>
<g>
</g>
<g>
</g>
<g>
</g>
<g>
</g>
<g>
</g>
<g>
</g>
<g>
</g>
<g>
</g>
<g>
</g>
<g>
</g>
<g>
</g>
<g>
</g>
<g>
</g>
<g>
</g>
</svg>
