<?xml version="1.0" encoding="iso-8859-1"?>
<!-- Generator: Adobe Illustrator 17.1.0, SVG Export Plug-In . SVG Version: 6.00 Build 0)  -->
<!DOCTYPE svg PUBLIC "-//W3C//DTD SVG 1.1//EN" "http://www.w3.org/Graphics/SVG/1.1/DTD/svg11.dtd">
<svg version="1.1" id="Capa_1" xmlns="http://www.w3.org/2000/svg" xmlns:xlink="http://www.w3.org/1999/xlink" x="0px" y="0px"
	 viewBox="0 0 511 511" style="enable-background:new 0 0 511 511;" xml:space="preserve">
<g>
	<path d="M143.5,380c-4.142,0-7.5,3.358-7.5,7.5c0,9.098-7.402,16.5-16.5,16.5s-16.5-7.402-16.5-16.5s7.402-16.5,16.5-16.5
		c4.142,0,7.5-3.358,7.5-7.5s-3.358-7.5-7.5-7.5c-17.369,0-31.5,14.131-31.5,31.5s14.131,31.5,31.5,31.5s31.5-14.131,31.5-31.5
		C151,383.358,147.642,380,143.5,380z"/>
	<path d="M503.5,324c-4.142,0-7.5,3.358-7.5,7.5c0,13.509-10.991,24.5-24.5,24.5H431V91.5c0-17.369-14.131-31.5-31.5-31.5h-280
		C53.607,60,0,113.607,0,179.5v184C0,380.869,14.131,395,31.5,395h24.958c3.724,31.49,30.567,56,63.042,56s59.318-24.51,63.042-56
		H399.5c14.785,0,27.216-10.241,30.591-24H471.5c21.78,0,39.5-17.72,39.5-39.5C511,327.358,507.642,324,503.5,324z M119.5,436
		C92.757,436,71,414.243,71,387.5S92.757,339,119.5,339c26.741,0,48.496,21.753,48.5,48.494c0,0.002,0,0.004,0,0.006
		s0,0.004,0,0.006C167.996,414.247,146.241,436,119.5,436z M376,380h-89V187.5c0-13.509,10.991-24.5,24.5-24.5h40
		c13.509,0,24.5,10.991,24.5,24.5V380z M399.5,380H391V187.5c0-21.78-17.72-39.5-39.5-39.5h-40c-21.78,0-39.5,17.72-39.5,39.5V380
		h-89.458c-3.724-31.49-30.567-56-63.042-56s-59.318,24.51-63.042,56H31.5c-9.098,0-16.5-7.402-16.5-16.5v-184
		c0-17.496,4.328-33.997,11.96-48.5h284.537c4.142,0,7.5-3.358,7.5-7.5s-3.358-7.5-7.5-7.5H36.567C55.684,91.091,85.746,75,119.5,75
		h280c9.098,0,16.5,7.402,16.5,16.5V116h-24.499c-4.142,0-7.5,3.358-7.5,7.5s3.358,7.5,7.5,7.5H416v232.5
		C416,372.598,408.598,380,399.5,380z"/>
	<path d="M215.5,172h-144C58.542,172,48,182.542,48,195.5v32c0,12.958,10.542,23.5,23.5,23.5h144c12.958,0,23.5-10.542,23.5-23.5
		v-32C239,182.542,228.458,172,215.5,172z M63,227.5v-32c0-4.687,3.813-8.5,8.5-8.5H136v49H71.5C66.813,236,63,232.187,63,227.5z
		 M224,227.5c0,4.687-3.813,8.5-8.5,8.5H151v-49h64.5c4.687,0,8.5,3.813,8.5,8.5V227.5z"/>
	<path d="M351.5,172h-40c-8.547,0-15.5,6.953-15.5,15.5v48c0,8.547,6.953,15.5,15.5,15.5h40c8.547,0,15.5-6.953,15.5-15.5v-48
		C367,178.953,360.047,172,351.5,172z M352,235.5c0,0.257-0.243,0.5-0.5,0.5h-40c-0.257,0-0.5-0.243-0.5-0.5v-48
		c0-0.257,0.243-0.5,0.5-0.5h40c0.257,0,0.5,0.243,0.5,0.5V235.5z"/>
	<path d="M359.499,116h-16.001c-4.142,0-7.5,3.358-7.5,7.5s3.358,7.5,7.5,7.5h16.001c4.142,0,7.5-3.358,7.5-7.5
		S363.641,116,359.499,116z"/>
</g>
<g>
</g>
<g>
</g>
<g>
</g>
<g>
</g>
<g>
</g>
<g>
</g>
<g>
</g>
<g>
</g>
<g>
</g>
<g>
</g>
<g>
</g>
<g>
</g>
<g>
</g>
<g>
</g>
<g>
</g>
</svg>
