<?xml version="1.0" encoding="iso-8859-1"?>
<!-- Generator: Adobe Illustrator 17.1.0, SVG Export Plug-In . SVG Version: 6.00 Build 0)  -->
<!DOCTYPE svg PUBLIC "-//W3C//DTD SVG 1.1//EN" "http://www.w3.org/Graphics/SVG/1.1/DTD/svg11.dtd">
<svg version="1.1" id="Capa_1" xmlns="http://www.w3.org/2000/svg" xmlns:xlink="http://www.w3.org/1999/xlink" x="0px" y="0px"
	 viewBox="0 0 511 511" style="enable-background:new 0 0 511 511;" xml:space="preserve">
<path d="M506.238,464.321l-53.5-53.501c-1.406-1.407-3.314-2.197-5.303-2.197h-28.391l-73.911-73.911
	c3.738-25.584,5.681-52.253,5.681-79.212c0-50.398-6.727-99.823-19.452-142.931c-12.468-42.236-30.356-77.442-51.73-101.813
	C273.637,3.921,264.774,0,255.314,0h0h0h0c-9.459,0-18.322,3.92-24.317,10.756c-21.374,24.371-39.262,59.577-51.73,101.813
	c-4.285,14.516-7.873,29.762-10.77,45.507l-65.934-65.934V63.751c0-1.989-0.79-3.897-2.197-5.303l-53.5-53.5
	c-2.928-2.928-6.82-4.54-10.96-4.54c-4.14,0-8.032,1.612-10.96,4.54L4.762,25.13c-2.928,2.928-4.541,6.82-4.541,10.96
	c0,4.14,1.612,8.033,4.54,10.96l53.5,53.5c1.406,1.407,3.314,2.197,5.303,2.197h28.391l73.539,73.539
	c-3.738,25.584-5.681,52.253-5.681,79.212c0,50.398,6.727,99.823,19.452,142.931c12.468,42.236,30.356,77.442,51.73,101.813
	C236.991,507.08,245.854,511,255.313,511c0,0,0,0,0.001,0c9.458,0,18.323-3.92,24.317-10.756
	c21.374-24.371,39.262-59.577,51.73-101.813c4.285-14.516,7.873-29.762,10.77-45.507l66.306,66.306v28.39
	c0,1.989,0.79,3.897,2.197,5.303l53.501,53.501c3.021,3.021,6.99,4.532,10.959,4.532s7.938-1.511,10.96-4.532l20.183-20.183
	c2.928-2.928,4.541-6.82,4.541-10.96S509.166,467.248,506.238,464.321z M66.672,87.749L15.368,36.445
	c-0.036-0.036-0.146-0.147-0.146-0.354c0-0.207,0.11-0.317,0.146-0.354l20.183-20.183c0.036-0.036,0.147-0.146,0.354-0.146
	c0.207,0,0.318,0.11,0.354,0.146l51.304,51.304v10.284L68.617,58.197c-2.929-2.929-7.678-2.929-10.606,0
	c-2.929,2.929-2.929,7.678,0,10.606l18.945,18.945H66.672z M242.274,20.646c1.517-1.73,3.413-3.094,5.54-4.053v22.908
	c0,4.142,3.358,7.5,7.5,7.5s7.5-3.358,7.5-7.5V16.593c2.127,0.959,4.023,2.323,5.541,4.053
	c41.61,47.445,67.459,137.436,67.459,234.854c0,22.5-1.382,44.603-4.016,65.878l-30.702-30.702
	c1.125-6.176,1.717-12.614,1.717-19.176v-32c0-18.412-4.578-35.875-12.89-49.175c-7.28-11.648-16.717-19.057-27.11-21.463V71.5
	c0-4.142-3.358-7.5-7.5-7.5s-7.5,3.358-7.5,7.5v97.361c-10.393,2.406-19.83,9.815-27.11,21.463
	c-2.558,4.094-4.76,8.584-6.586,13.373l-32.64-32.64C191.681,108.078,213.103,53.907,242.274,20.646z M255.314,328
	c-17.617,0-32.5-25.874-32.5-56.5v-32c0-1.927,0.06-3.835,0.174-5.719l61.647,61.647C279.346,314.483,268.045,328,255.314,328z
	 M225.992,215.572c5.29-19.055,16.59-32.572,29.322-32.572c17.617,0,32.5,25.874,32.5,56.5v32c0,1.927-0.06,3.835-0.174,5.719
	L225.992,215.572z M268.354,490.354c-1.517,1.73-3.414,3.094-5.541,4.053V399.5c0-4.142-3.358-7.5-7.5-7.5s-7.5,3.358-7.5,7.5
	v94.907c-2.127-0.959-4.023-2.323-5.54-4.053c-41.611-47.445-67.46-137.436-67.46-234.854c0-22.5,1.382-44.603,4.016-65.878
	l30.702,30.702c-1.125,6.176-1.717,12.614-1.717,19.176v32c0,18.412,4.578,35.875,12.89,49.175
	c7.28,11.648,16.717,19.057,27.11,21.463v25.362c0,4.142,3.358,7.5,7.5,7.5s7.5-3.358,7.5-7.5v-25.362
	c10.393-2.406,19.83-9.815,27.11-21.463c2.558-4.094,4.76-8.584,6.586-13.373l32.64,32.64
	C318.947,402.922,297.525,457.093,268.354,490.354z M495.632,475.634l-20.183,20.183c-0.195,0.195-0.513,0.195-0.708,0
	l-51.304-51.304V434.23l18.573,18.573c1.464,1.464,3.384,2.197,5.303,2.197s3.839-0.732,5.303-2.197
	c2.929-2.929,2.929-7.678,0-10.606l-18.574-18.574h10.285l51.304,51.305c0.036,0.036,0.146,0.146,0.146,0.353
	S495.668,475.598,495.632,475.634z"/>
<g>
</g>
<g>
</g>
<g>
</g>
<g>
</g>
<g>
</g>
<g>
</g>
<g>
</g>
<g>
</g>
<g>
</g>
<g>
</g>
<g>
</g>
<g>
</g>
<g>
</g>
<g>
</g>
<g>
</g>
</svg>
