<?xml version="1.0" encoding="iso-8859-1"?>
<!-- Generator: Adobe Illustrator 17.1.0, SVG Export Plug-In . SVG Version: 6.00 Build 0)  -->
<!DOCTYPE svg PUBLIC "-//W3C//DTD SVG 1.1//EN" "http://www.w3.org/Graphics/SVG/1.1/DTD/svg11.dtd">
<svg version="1.1" id="Capa_1" xmlns="http://www.w3.org/2000/svg" xmlns:xlink="http://www.w3.org/1999/xlink" x="0px" y="0px"
	 viewBox="0 0 511 511" style="enable-background:new 0 0 511 511;" xml:space="preserve">
<g>
	<path d="M507.529,85.174c-2.162-1.376-4.877-1.554-7.201-0.47L383.4,139.27L258.506,84.629c-0.008-0.003-0.016-0.005-0.023-0.009
		c-0.218-0.094-0.441-0.178-0.668-0.252c-0.014-0.005-0.028-0.011-0.042-0.016c-0.623-0.198-1.282-0.309-1.964-0.337
		c-0.206-0.009-0.411-0.009-0.617,0c-0.681,0.028-1.341,0.139-1.964,0.337c-0.014,0.005-0.028,0.011-0.042,0.016
		c-0.228,0.074-0.451,0.157-0.668,0.252c-0.008,0.003-0.016,0.005-0.023,0.009L127.6,139.27L10.672,84.704
		c-2.324-1.084-5.039-0.907-7.201,0.47S0,88.937,0,91.5v272c0,2.914,1.688,5.564,4.328,6.796l120,56
		c0.031,0.014,0.063,0.024,0.095,0.038c0.162,0.073,0.328,0.138,0.495,0.2c0.075,0.027,0.149,0.057,0.225,0.082
		c0.171,0.057,0.346,0.104,0.522,0.148c0.077,0.019,0.152,0.042,0.229,0.059c0.167,0.036,0.338,0.062,0.509,0.088
		c0.088,0.013,0.176,0.031,0.265,0.04c0.151,0.017,0.304,0.022,0.458,0.03c0.109,0.005,0.218,0.016,0.328,0.016
		c0.015,0,0.03,0.002,0.046,0.002c0.144,0,0.284-0.014,0.425-0.021c0.101-0.006,0.201-0.005,0.302-0.015
		c0.255-0.025,0.506-0.062,0.753-0.111c0.001,0,0.002,0,0.003,0c0.522-0.105,1.024-0.265,1.5-0.472
		c0.008-0.003,0.015-0.005,0.023-0.009L255.5,371.687l124.994,54.685c0.008,0.003,0.016,0.005,0.023,0.009
		c0.223,0.097,0.451,0.183,0.684,0.258c0.009,0.003,0.017,0.007,0.026,0.01c0.717,0.228,1.48,0.353,2.273,0.353
		c0.269,0,0.534-0.016,0.796-0.043c0.05-0.005,0.098-0.016,0.148-0.022c0.215-0.027,0.429-0.06,0.638-0.105
		c0.061-0.013,0.12-0.032,0.181-0.046c0.197-0.048,0.393-0.1,0.583-0.163c0.069-0.023,0.137-0.051,0.206-0.076
		c0.179-0.065,0.355-0.134,0.527-0.211c0.031-0.014,0.062-0.023,0.093-0.037l120-56c2.64-1.232,4.328-3.882,4.328-6.796v-272
		C511,88.937,509.691,86.551,507.529,85.174z M496,220.083c-40.368,0.809-75.484,8.191-105,22.04V203.5c0-4.142-3.358-7.5-7.5-7.5
		s-7.5,3.358-7.5,7.5v46.509c-10.712,6.266-20.579,13.496-29.56,21.706c-26.907,24.594-45.864,57.776-56.435,98.695L263,358.595
		V259.18c14.106-9.215,26.105-20.988,35.575-35.128c19.751-29.494,25.518-65.383,16.33-98.377L376,152.405V171.5
		c0,4.142,3.358,7.5,7.5,7.5s7.5-3.358,7.5-7.5v-19.223l105-49V220.083z M376,408.032l-72.048-31.521
		c9.716-39.14,27.385-70.67,52.608-93.726c6.033-5.514,12.522-10.545,19.44-15.111V408.032z M135,285.552
		c12.695-1.611,26.216-2.552,40.5-2.552c27.082,0,51.587-5.287,72.5-15.365v90.96l-113,49.438V285.552z M120,152.277V171.5
		c0,4.142,3.358,7.5,7.5,7.5s7.5-3.358,7.5-7.5v-19.095l113-49.437V115.5c0,4.142,3.358,7.5,7.5,7.5s7.5-3.358,7.5-7.5v-12.532
		l33.284,14.562c0.078,0.277,0.169,0.553,0.281,0.826c13.051,31.695,9.143,68.088-10.454,97.351
		c-6.412,9.574-14.173,17.923-23.111,24.977V147.5c0-4.142-3.358-7.5-7.5-7.5s-7.5,3.358-7.5,7.5v103.186
		C227.758,262.016,203.155,268,175.5,268c-14.269,0-27.781,0.878-40.5,2.39V203.5c0-4.142-3.358-7.5-7.5-7.5s-7.5,3.358-7.5,7.5
		v69.016c-51.047,8.428-87.37,26.652-105,37.157V103.276L120,152.277z M15,327.437c10.512-6.956,48.098-29.614,105-39.616v119.903
		l-105-49V327.437z M391,407.724V258.872c28.783-14.952,63.917-22.925,105-23.784v123.636L391,407.724z"/>
	<path d="M170.197,216.803c1.464,1.464,3.384,2.197,5.303,2.197s3.839-0.732,5.303-2.197l10.697-10.697l10.697,10.697
		c1.464,1.464,3.384,2.197,5.303,2.197s3.839-0.732,5.303-2.197c2.929-2.929,2.929-7.678,0-10.606L202.106,195.5l10.697-10.697
		c2.929-2.929,2.929-7.678,0-10.606c-2.929-2.929-7.678-2.929-10.606,0L191.5,184.894l-10.697-10.697
		c-2.929-2.929-7.678-2.929-10.606,0c-2.929,2.929-2.929,7.678,0,10.606l10.697,10.697l-10.697,10.697
		C167.268,209.126,167.268,213.875,170.197,216.803z"/>
</g>
<g>
</g>
<g>
</g>
<g>
</g>
<g>
</g>
<g>
</g>
<g>
</g>
<g>
</g>
<g>
</g>
<g>
</g>
<g>
</g>
<g>
</g>
<g>
</g>
<g>
</g>
<g>
</g>
<g>
</g>
</svg>
