<?xml version="1.0" encoding="iso-8859-1"?>
<!-- Generator: Adobe Illustrator 19.1.0, SVG Export Plug-In . SVG Version: 6.00 Build 0)  -->
<svg version="1.1" id="Capa_1" xmlns="http://www.w3.org/2000/svg" xmlns:xlink="http://www.w3.org/1999/xlink" x="0px" y="0px"
	 viewBox="0 0 511 511" style="enable-background:new 0 0 511 511;" xml:space="preserve">
<path d="M464.21,393.663c-0.565-0.456-53.135-43.299-72.38-90.663h43.67c3.114,0,5.904-1.924,7.011-4.835
	c1.106-2.911,0.299-6.202-2.028-8.271c-0.538-0.478-49.877-44.64-64.913-82.894h40.257c3.051,0,5.797-1.849,6.946-4.675
	c1.15-2.826,0.472-6.067-1.712-8.197c-0.606-0.591-60.794-59.772-74.265-116.365C345.992,74.385,342.973,72,339.5,72
	s-6.492,2.385-7.296,5.764c-5.461,22.944-18.602,46.313-32.338,66.032c-12.71-12.708-74.139-76.588-89.078-138.066
	C209.971,2.367,206.96,0,203.5,0s-6.471,2.367-7.288,5.729c-16.603,68.327-90.644,139.633-91.39,140.345
	c-2.217,2.117-2.923,5.37-1.783,8.215c1.141,2.846,3.896,4.711,6.961,4.711h51.415c-17.612,48.826-81.239,106.282-81.921,106.894
	c-2.314,2.074-3.109,5.362-1.999,8.265c1.111,2.903,3.896,4.82,7.004,4.82h55.533c-9.413,23.57-27.197,49.661-51.957,76.103
	c-21.594,23.061-41.01,38.365-41.204,38.517c-2.516,1.974-3.504,5.327-2.46,8.35c1.044,3.023,3.89,5.052,7.088,5.052H180v72.5
	c0,9.098-7.402,16.5-16.5,16.5h-16c-4.142,0-7.5,3.358-7.5,7.5s3.358,7.5,7.5,7.5h112c4.142,0,7.5-3.358,7.5-7.5s-3.358-7.5-7.5-7.5
	h-16c-9.098,0-16.5-7.402-16.5-16.5V407h89v72.5c0,9.098-7.402,16.5-16.5,16.5h-8c-4.142,0-7.5,3.358-7.5,7.5s3.358,7.5,7.5,7.5h96
	c4.142,0,7.5-3.358,7.5-7.5s-3.358-7.5-7.5-7.5h-8c-9.098,0-16.5-7.402-16.5-16.5V407h96.5c3.179,0,6.012-2.005,7.071-5.002
	C467.63,399,466.683,395.66,464.21,393.663z M273.528,207h29.886c-2.68,6.784-6.606,14.183-11.753,22.128
	C285.649,222.286,279.446,214.814,273.528,207z M245.585,159h43.079c-11.26,14.5-21.591,25.696-26.927,31.258
	C254.998,179.861,249.279,169.242,245.585,159z M156.054,278.979h55.444c4.142,0,7.5-3.358,7.5-7.5c0-4.143-3.358-7.5-7.5-7.5H103.2
	c7.063-7.039,16.182-16.537,25.71-27.556c25.321-29.285,41.539-55.292,48.309-77.422H195.5c4.142,0,7.5-3.358,7.5-7.5
	s-3.358-7.5-7.5-7.5h-67.695c7.501-8.029,17.619-19.422,28.351-33.126c21.86-27.916,37.716-54.331,47.345-78.832
	c9.629,24.5,25.485,50.916,47.345,78.832c10.731,13.704,20.85,25.097,28.35,33.126h-51.692c-4.142,0-7.5,3.358-7.5,7.5
	s3.358,7.5,7.5,7.5h2.296c12.173,39.673,52.447,83.581,73.968,104.979h-60.269c-4.142,0-7.5,3.357-7.5,7.5
	c0,4.142,3.358,7.5,7.5,7.5h7.448c16.892,47.869,60.492,91.749,84.17,113.021H71.883
	C95.563,370.726,139.163,326.845,156.054,278.979z M278.938,303h8.226c-1.033,2.541-2.19,5.119-3.449,7.723
	C282.039,308.131,280.449,305.557,278.938,303z M212,479.5c0,6.046,1.716,11.698,4.681,16.5h-26.363
	c2.965-4.802,4.681-10.454,4.681-16.5V407h17V479.5z M326.319,496c2.965-4.802,4.681-10.454,4.681-16.5V407h17v72.5
	c0,6.046,1.716,11.698,4.681,16.5H326.319z M358.147,392c-5.458-4.466-21.487-17.999-39.053-36.737
	c-9.651-10.294-18.243-20.535-25.698-30.595c4.031-7.371,7.313-14.629,9.8-21.667h42.757c4.142,0,7.5-3.358,7.5-7.5
	s-3.358-7.5-7.5-7.5H297.73c-0.018,0-0.036,0-0.054,0h-26.751c-1.448-3.044-2.771-6.053-3.957-9.021H322.5
	c3.108,0,5.894-1.917,7.004-4.82s0.315-6.19-1.999-8.265c-0.282-0.253-11.336-10.234-25.447-25.305
	c8.186-12.13,13.979-23.393,17.283-33.588h13.627c4.142,0,7.5-3.358,7.5-7.5s-3.358-7.5-7.5-7.5h-52.343
	c5.909-6.547,13.43-15.312,21.355-25.644c16.964-22.115,29.523-43.12,37.519-62.716c7.996,19.596,20.554,40.601,37.519,62.716
	c7.926,10.332,15.447,19.096,21.355,25.644h-39.28c-4.142,0-7.5,3.358-7.5,7.5s3.358,7.5,7.5,7.5h0.56
	c9.809,30.247,39.424,63.209,57.141,81h-45.028c-4.142,0-7.5,3.358-7.5,7.5s3.358,7.5,7.5,7.5h4.037
	c13.07,37.054,44.865,71.025,63.922,89H358.147z"/>
<g>
</g>
<g>
</g>
<g>
</g>
<g>
</g>
<g>
</g>
<g>
</g>
<g>
</g>
<g>
</g>
<g>
</g>
<g>
</g>
<g>
</g>
<g>
</g>
<g>
</g>
<g>
</g>
<g>
</g>
</svg>
