<?xml version="1.0" encoding="iso-8859-1"?>
<!-- Generator: Adobe Illustrator 17.1.0, SVG Export Plug-In . SVG Version: 6.00 Build 0)  -->
<!DOCTYPE svg PUBLIC "-//W3C//DTD SVG 1.1//EN" "http://www.w3.org/Graphics/SVG/1.1/DTD/svg11.dtd">
<svg version="1.1" id="Capa_1" xmlns="http://www.w3.org/2000/svg" xmlns:xlink="http://www.w3.org/1999/xlink" x="0px" y="0px"
	 viewBox="0 0 511 511" style="enable-background:new 0 0 511 511;" xml:space="preserve">
<g>
	<path d="M415,135.5C415,74.019,364.981,24,303.5,24c-0.99,0-1.92,0.042-2.818,0.097C281.038,8.535,256.593,0,231.5,0
		C170.019,0,120,50.019,120,111.5c0,10.056,1.351,20.014,4.011,29.662C105.919,167.435,96,198.756,96,231.5
		c0,39.675,14.662,77.702,41.284,107.077c24.906,27.481,58.329,45.317,94.716,50.697V479.5c0,9.098-7.402,16.5-16.5,16.5h-8
		c-4.142,0-7.5,3.358-7.5,7.5s3.358,7.5,7.5,7.5h96c4.142,0,7.5-3.358,7.5-7.5s-3.358-7.5-7.5-7.5h-8c-9.098,0-16.5-7.402-16.5-16.5
		v-90.226c36.387-5.38,69.81-23.216,94.716-50.697C400.338,309.202,415,271.175,415,231.5c0-17.675-3.021-35.27-8.983-52.351
		C411.979,165.213,415,150.545,415,135.5z M390.908,181.458C396.941,197.771,400,214.607,400,231.5
		c0,35.944-13.282,70.394-37.398,97.004c-22.064,24.345-51.5,40.331-83.602,45.585V335.5c0-4.142-3.358-7.5-7.5-7.5
		s-7.5,3.358-7.5,7.5v47.116c0,0.041,0,0.082,0,0.124v96.76c0,6.046,1.716,11.698,4.681,16.5h-26.363
		c2.965-4.802,4.681-10.454,4.681-16.5v-96.76c0-0.042,0-0.083,0-0.124V335.5c0-4.142-3.358-7.5-7.5-7.5s-7.5,3.358-7.5,7.5v38.589
		c-32.102-5.255-61.538-21.24-83.602-45.585C124.282,301.894,111,267.444,111,231.5c0-30.251,9.345-59.163,26.359-83.251
		c0.755-0.696,1.355-1.534,1.769-2.46c7.144-9.675,15.55-18.531,25.109-26.328c3.21-2.618,3.69-7.342,1.072-10.552
		c-2.618-3.21-7.342-3.689-10.552-1.072c-6.769,5.52-13.006,11.527-18.695,17.939c-0.702-4.712-1.062-9.48-1.062-14.275
		c0-53.21,43.29-96.5,96.5-96.5c22.59,0,44.576,7.996,61.907,22.516c1.449,1.214,3.293,1.839,5.193,1.741
		c0.633-0.031,1.264-0.074,1.894-0.116C301.561,39.068,302.569,39,303.5,39c53.21,0,96.5,43.29,96.5,96.5
		c0,13.892-2.985,27.424-8.872,40.223C390.297,177.529,390.218,179.593,390.908,181.458z"/>
	<path d="M210.49,334.722c-21.898-9.489-40.539-26.133-52.488-46.865c-2.069-3.589-6.656-4.821-10.243-2.753
		c-3.589,2.069-4.821,6.655-2.753,10.243c13.548,23.505,34.686,42.376,59.52,53.138c0.971,0.421,1.983,0.62,2.978,0.62
		c2.899,0,5.66-1.69,6.886-4.52C216.037,340.785,214.291,336.369,210.49,334.722z"/>
	<path d="M245.853,48.579c9.925,2.238,19.011,6.77,27.005,13.467c1.405,1.176,3.113,1.751,4.813,1.751
		c2.143,0,4.27-0.914,5.753-2.685c2.66-3.175,2.242-7.905-0.933-10.565c-9.844-8.246-21.061-13.831-33.338-16.6
		c-4.044-0.914-8.055,1.625-8.966,5.667C239.275,43.653,241.812,47.668,245.853,48.579z"/>
	<path d="M347.663,69.421c-5.498-3.686-11.437-6.672-17.65-8.875c-3.904-1.384-8.191,0.658-9.576,4.562
		c-1.384,3.904,0.658,8.191,4.562,9.576c5.037,1.786,9.852,4.208,14.313,7.198c1.282,0.859,2.733,1.271,4.169,1.271
		c2.417,0,4.79-1.167,6.237-3.325C352.023,76.386,351.104,71.727,347.663,69.421z"/>
	<path d="M359.165,89.273c-3.44,2.307-4.359,6.966-2.052,10.406C364.235,110.301,368,122.687,368,135.5
		c0,9.242-2,18.276-5.943,26.85c-1.731,3.763-0.084,8.217,3.679,9.948c1.016,0.467,2.081,0.688,3.129,0.688
		c2.838,0,5.555-1.62,6.819-4.368C380.539,158.064,383,146.922,383,135.5c0-15.799-4.644-31.074-13.429-44.175
		C367.264,87.885,362.604,86.967,359.165,89.273z"/>
	<path d="M331.652,209.253c-7.031-4.674-14.963-7.637-23.264-8.749c0.044-0.329,0.075-0.662,0.075-1.002
		c0-35.014-28.486-63.5-63.5-63.5c-11.558,0-22.875,3.138-32.728,9.074c-3.548,2.138-4.691,6.746-2.554,10.294
		c2.138,3.547,6.747,4.691,10.294,2.554c7.517-4.529,16.157-6.923,24.987-6.923c26.743,0,48.5,21.757,48.5,48.5
		c0,0.342,0.031,0.675,0.075,1.005c-16.854,2.293-31.998,12.292-40.644,27.237c-2.074,3.585-0.85,8.173,2.736,10.248
		c1.183,0.684,2.474,1.009,3.749,1.009c2.589,0,5.108-1.343,6.499-3.745c7.228-12.493,20.672-20.254,35.085-20.254
		c8.008,0,15.749,2.332,22.385,6.743c3.45,2.292,8.105,1.355,10.398-2.095C336.039,216.201,335.102,211.546,331.652,209.253z"/>
</g>
<g>
</g>
<g>
</g>
<g>
</g>
<g>
</g>
<g>
</g>
<g>
</g>
<g>
</g>
<g>
</g>
<g>
</g>
<g>
</g>
<g>
</g>
<g>
</g>
<g>
</g>
<g>
</g>
<g>
</g>
</svg>
